<ttFont>
    <TTGlyph name="A" xMin="33" yMin="-160" xMax="707" yMax="829">
      <contour>
        <pt x="525" y="253" on="1"/>
        <pt x="315" y="254" on="1"/>
        <pt x="270" y="85" on="1"/>
        <pt x="255" y="28" on="0"/>
        <pt x="227" y="-46" on="0"/>
        <pt x="204" y="-84" on="1"/>
        <pt x="156" y="-160" on="0"/>
        <pt x="62" y="-160" on="1"/>
        <pt x="62" y="-148" on="1"/>
        <pt x="137" y="-148" on="0"/>
        <pt x="221" y="-47" on="0"/>
        <pt x="246" y="41" on="1"/>
        <pt x="256" y="62" on="1"/>
        <pt x="254" y="63" on="1"/>
        <pt x="220" y="-13" on="0"/>
        <pt x="146" y="-13" on="1"/>
        <pt x="97" y="-13" on="0"/>
        <pt x="33" y="53" on="0"/>
        <pt x="33" y="103" on="1"/>
        <pt x="33" y="266" on="0"/>
        <pt x="305" y="266" on="1"/>
        <pt x="405" y="644" on="1"/>
        <pt x="374" y="645" on="1"/>
        <pt x="370" y="645" on="0"/>
        <pt x="366" y="645" on="1"/>
        <pt x="311" y="645" on="0"/>
        <pt x="243" y="594" on="0"/>
        <pt x="243" y="552" on="1"/>
        <pt x="243" y="532" on="0"/>
        <pt x="249" y="519" on="1"/>
        <pt x="241" y="513" on="1"/>
        <pt x="230" y="525" on="0"/>
        <pt x="230" y="584" on="0"/>
        <pt x="272" y="637" on="0"/>
        <pt x="305" y="646" on="1"/>
        <pt x="314" y="648" on="0"/>
        <pt x="328" y="650" on="1"/>
        <pt x="328" y="652" on="1"/>
        <pt x="305" y="651" on="1"/>
        <pt x="209" y="663" on="0"/>
        <pt x="89" y="748" on="0"/>
        <pt x="89" y="828" on="1"/>
        <pt x="101" y="829" on="1"/>
        <pt x="101" y="783" on="0"/>
        <pt x="147" y="716" on="0"/>
        <pt x="187" y="697" on="1"/>
        <pt x="263" y="661" on="0"/>
        <pt x="367" y="657" on="1"/>
        <pt x="539" y="649" on="1"/>
        <pt x="539" y="107" on="1"/>
        <pt x="539" y="47" on="0"/>
        <pt x="495" y="-12" on="0"/>
        <pt x="442" y="-12" on="1"/>
        <pt x="415" y="-12" on="0"/>
        <pt x="397" y="-6" on="1"/>
        <pt x="399" y="4" on="1"/>
        <pt x="421" y="-1" on="0"/>
        <pt x="439" y="-1" on="1"/>
        <pt x="489" y="-1" on="0"/>
        <pt x="525" y="51" on="0"/>
        <pt x="525" y="107" on="1"/>
      </contour>
      <contour>
        <pt x="366" y="266" on="1"/>
        <pt x="525" y="265" on="1"/>
        <pt x="525" y="638" on="1"/>
        <pt x="418" y="643" on="1"/>
        <pt x="318" y="266" on="1"/>
      </contour>
      <contour>
        <pt x="47" y="103" on="1"/>
        <pt x="47" y="59" on="0"/>
        <pt x="103" y="-1" on="0"/>
        <pt x="146" y="-1" on="1"/>
        <pt x="215" y="-1" on="0"/>
        <pt x="248" y="72" on="1"/>
        <pt x="266" y="113" on="0"/>
        <pt x="279" y="168" on="1"/>
        <pt x="302" y="254" on="1"/>
        <pt x="47" y="252" on="0"/>
      </contour>
      <contour>
        <pt x="565" y="107" on="1"/>
        <pt x="565" y="605" on="1"/>
        <pt x="565" y="665" on="0"/>
        <pt x="609" y="724" on="0"/>
        <pt x="662" y="724" on="1"/>
        <pt x="689" y="724" on="0"/>
        <pt x="707" y="718" on="1"/>
        <pt x="705" y="708" on="1"/>
        <pt x="683" y="713" on="0"/>
        <pt x="665" y="713" on="1"/>
        <pt x="615" y="713" on="0"/>
        <pt x="579" y="661" on="0"/>
        <pt x="579" y="605" on="1"/>
        <pt x="579" y="107" on="1"/>
        <pt x="579" y="51" on="0"/>
        <pt x="615" y="-1" on="0"/>
        <pt x="665" y="-1" on="1"/>
        <pt x="683" y="-1" on="0"/>
        <pt x="705" y="4" on="1"/>
        <pt x="707" y="-6" on="1"/>
        <pt x="689" y="-12" on="0"/>
        <pt x="662" y="-12" on="1"/>
        <pt x="609" y="-12" on="0"/>
        <pt x="565" y="47" on="0"/>
      </contour>
    </TTGlyph>
    <TTGlyph name="AE" xMin="44" yMin="-160" xMax="952" yMax="828">
      <contour>
        <pt x="416" y="643" on="1"/>
        <pt x="296" y="649" on="1"/>
        <pt x="180" y="649" on="0"/>
        <pt x="180" y="559" on="1"/>
        <pt x="180" y="526" on="0"/>
        <pt x="214" y="482" on="0"/>
        <pt x="272" y="482" on="0"/>
        <pt x="305" y="516" on="0"/>
        <pt x="305" y="544" on="1"/>
        <pt x="305" y="554" on="0"/>
        <pt x="302" y="564" on="1"/>
        <pt x="313" y="568" on="1"/>
        <pt x="318" y="556" on="0"/>
        <pt x="318" y="544" on="1"/>
        <pt x="318" y="511" on="0"/>
        <pt x="278" y="470" on="0"/>
        <pt x="209" y="470" on="0"/>
        <pt x="166" y="521" on="0"/>
        <pt x="166" y="560" on="1"/>
        <pt x="166" y="661" on="0"/>
        <pt x="300" y="661" on="1"/>
        <pt x="354" y="661" on="0"/>
        <pt x="431" y="654" on="1"/>
        <pt x="521" y="649" on="1"/>
        <pt x="521" y="107" on="1"/>
        <pt x="521" y="47" on="0"/>
        <pt x="477" y="-12" on="0"/>
        <pt x="424" y="-12" on="1"/>
        <pt x="397" y="-12" on="0"/>
        <pt x="379" y="-6" on="1"/>
        <pt x="381" y="4" on="1"/>
        <pt x="403" y="-1" on="0"/>
        <pt x="421" y="-1" on="1"/>
        <pt x="471" y="-1" on="0"/>
        <pt x="507" y="51" on="0"/>
        <pt x="507" y="107" on="1"/>
        <pt x="507" y="298" on="1"/>
        <pt x="322" y="298" on="1"/>
        <pt x="255" y="85" on="1"/>
        <pt x="238" y="32" on="0"/>
        <pt x="218" y="-25" on="0"/>
        <pt x="181" y="-98" on="0"/>
        <pt x="162" y="-116" on="1"/>
        <pt x="116" y="-158" on="0"/>
        <pt x="44" y="-160" on="1"/>
        <pt x="44" y="-148" on="1"/>
        <pt x="88" y="-148" on="0"/>
        <pt x="151" y="-118" on="0"/>
        <pt x="197" y="-39" on="0"/>
        <pt x="218" y="11" on="0"/>
        <pt x="238" y="76" on="0"/>
        <pt x="238" y="78" on="1"/>
        <pt x="240" y="84" on="0"/>
        <pt x="242" y="88" on="1"/>
      </contour>
      <contour>
        <pt x="507" y="310" on="1"/>
        <pt x="507" y="638" on="1"/>
        <pt x="430" y="643" on="1"/>
        <pt x="326" y="310" on="1"/>
      </contour>
      <contour>
        <pt x="561" y="298" on="1"/>
        <pt x="561" y="38" on="1"/>
        <pt x="637" y="-1" on="0"/>
        <pt x="764" y="-1" on="0"/>
        <pt x="819" y="43" on="0"/>
        <pt x="819" y="99" on="1"/>
        <pt x="819" y="117" on="0"/>
        <pt x="814" y="132" on="1"/>
        <pt x="825" y="137" on="1"/>
        <pt x="832" y="120" on="0"/>
        <pt x="832" y="99" on="1"/>
        <pt x="832" y="39" on="0"/>
        <pt x="770" y="-13" on="0"/>
        <pt x="630" y="-13" on="0"/>
        <pt x="547" y="30" on="1"/>
        <pt x="547" y="648" on="1"/>
        <pt x="674" y="656" on="1"/>
        <pt x="778" y="660" on="0"/>
        <pt x="854" y="696" on="1"/>
        <pt x="894" y="715" on="0"/>
        <pt x="940" y="782" on="0"/>
        <pt x="940" y="828" on="1"/>
        <pt x="952" y="827" on="1"/>
        <pt x="952" y="747" on="0"/>
        <pt x="832" y="662" on="0"/>
        <pt x="736" y="650" on="1"/>
        <pt x="729" y="650" on="0"/>
        <pt x="713" y="651" on="1"/>
        <pt x="713" y="649" on="1"/>
        <pt x="727" y="647" on="0"/>
        <pt x="736" y="645" on="1"/>
        <pt x="769" y="636" on="0"/>
        <pt x="811" y="583" on="0"/>
        <pt x="811" y="524" on="0"/>
        <pt x="800" y="512" on="1"/>
        <pt x="792" y="518" on="1"/>
        <pt x="798" y="531" on="0"/>
        <pt x="798" y="551" on="1"/>
        <pt x="798" y="593" on="0"/>
        <pt x="731" y="644" on="0"/>
        <pt x="679" y="644" on="1"/>
        <pt x="673" y="644" on="0"/>
        <pt x="667" y="644" on="1"/>
        <pt x="561" y="637" on="1"/>
        <pt x="561" y="310" on="1"/>
        <pt x="665" y="310" on="1"/>
        <pt x="737" y="310" on="0"/>
        <pt x="737" y="351" on="1"/>
        <pt x="737" y="362" on="0"/>
        <pt x="732" y="372" on="1"/>
        <pt x="742" y="377" on="1"/>
        <pt x="750" y="367" on="0"/>
        <pt x="750" y="332" on="0"/>
        <pt x="723" y="306" on="0"/>
        <pt x="704" y="303" on="1"/>
        <pt x="743" y="290" on="0"/>
        <pt x="751" y="229" on="1"/>
        <pt x="739" y="226" on="1"/>
        <pt x="732" y="265" on="0"/>
        <pt x="700" y="298" on="0"/>
        <pt x="664" y="298" on="1"/>
      </contour>
    </TTGlyph>
    <TTGlyph name="Aacute" xMin="33" yMin="-160" xMax="707" yMax="853">
      <contour>
        <pt x="525" y="253" on="1"/>
        <pt x="315" y="254" on="1"/>
        <pt x="270" y="85" on="1"/>
        <pt x="255" y="28" on="0"/>
        <pt x="227" y="-46" on="0"/>
        <pt x="204" y="-84" on="1"/>
        <pt x="156" y="-160" on="0"/>
        <pt x="62" y="-160" on="1"/>
        <pt x="62" y="-148" on="1"/>
        <pt x="137" y="-148" on="0"/>
        <pt x="221" y="-47" on="0"/>
        <pt x="246" y="41" on="1"/>
        <pt x="256" y="62" on="1"/>
        <pt x="254" y="63" on="1"/>
        <pt x="220" y="-13" on="0"/>
        <pt x="146" y="-13" on="1"/>
        <pt x="97" y="-13" on="0"/>
        <pt x="33" y="53" on="0"/>
        <pt x="33" y="103" on="1"/>
        <pt x="33" y="266" on="0"/>
        <pt x="305" y="266" on="1"/>
        <pt x="405" y="644" on="1"/>
        <pt x="374" y="645" on="1"/>
        <pt x="370" y="645" on="0"/>
        <pt x="366" y="645" on="1"/>
        <pt x="311" y="645" on="0"/>
        <pt x="243" y="594" on="0"/>
        <pt x="243" y="552" on="1"/>
        <pt x="243" y="532" on="0"/>
        <pt x="249" y="519" on="1"/>
        <pt x="241" y="513" on="1"/>
        <pt x="230" y="525" on="0"/>
        <pt x="230" y="584" on="0"/>
        <pt x="272" y="637" on="0"/>
        <pt x="305" y="646" on="1"/>
        <pt x="314" y="648" on="0"/>
        <pt x="328" y="650" on="1"/>
        <pt x="328" y="652" on="1"/>
        <pt x="305" y="651" on="1"/>
        <pt x="209" y="663" on="0"/>
        <pt x="89" y="748" on="0"/>
        <pt x="89" y="828" on="1"/>
        <pt x="101" y="829" on="1"/>
        <pt x="101" y="783" on="0"/>
        <pt x="147" y="716" on="0"/>
        <pt x="187" y="697" on="1"/>
        <pt x="263" y="661" on="0"/>
        <pt x="367" y="657" on="1"/>
        <pt x="539" y="649" on="1"/>
        <pt x="539" y="107" on="1"/>
        <pt x="539" y="47" on="0"/>
        <pt x="495" y="-12" on="0"/>
        <pt x="442" y="-12" on="1"/>
        <pt x="415" y="-12" on="0"/>
        <pt x="397" y="-6" on="1"/>
        <pt x="399" y="4" on="1"/>
        <pt x="421" y="-1" on="0"/>
        <pt x="439" y="-1" on="1"/>
        <pt x="489" y="-1" on="0"/>
        <pt x="525" y="51" on="0"/>
        <pt x="525" y="107" on="1"/>
      </contour>
      <contour>
        <pt x="366" y="266" on="1"/>
        <pt x="525" y="265" on="1"/>
        <pt x="525" y="638" on="1"/>
        <pt x="418" y="643" on="1"/>
        <pt x="318" y="266" on="1"/>
      </contour>
      <contour>
        <pt x="47" y="103" on="1"/>
        <pt x="47" y="59" on="0"/>
        <pt x="103" y="-1" on="0"/>
        <pt x="146" y="-1" on="1"/>
        <pt x="215" y="-1" on="0"/>
        <pt x="248" y="72" on="1"/>
        <pt x="266" y="113" on="0"/>
        <pt x="279" y="168" on="1"/>
        <pt x="302" y="254" on="1"/>
        <pt x="47" y="252" on="0"/>
      </contour>
      <contour>
        <pt x="565" y="107" on="1"/>
        <pt x="565" y="605" on="1"/>
        <pt x="565" y="665" on="0"/>
        <pt x="609" y="724" on="0"/>
        <pt x="662" y="724" on="1"/>
        <pt x="689" y="724" on="0"/>
        <pt x="707" y="718" on="1"/>
        <pt x="705" y="708" on="1"/>
        <pt x="683" y="713" on="0"/>
        <pt x="665" y="713" on="1"/>
        <pt x="615" y="713" on="0"/>
        <pt x="579" y="661" on="0"/>
        <pt x="579" y="605" on="1"/>
        <pt x="579" y="107" on="1"/>
        <pt x="579" y="51" on="0"/>
        <pt x="615" y="-1" on="0"/>
        <pt x="665" y="-1" on="1"/>
        <pt x="683" y="-1" on="0"/>
        <pt x="705" y="4" on="1"/>
        <pt x="707" y="-6" on="1"/>
        <pt x="689" y="-12" on="0"/>
        <pt x="662" y="-12" on="1"/>
        <pt x="609" y="-12" on="0"/>
        <pt x="565" y="47" on="0"/>
      </contour>
      <contour>
        <pt x="606" y="853" on="1"/>
        <pt x="617" y="853" on="0"/>
        <pt x="617" y="839" on="1"/>
        <pt x="432" y="719" on="1"/>
        <pt x="427" y="727" on="1"/>
        <pt x="598" y="850" on="1"/>
        <pt x="602" y="853" on="0"/>
      </contour>
    </TTGlyph>
    <TTGlyph name="Acircumflex" xMin="33" yMin="-160" xMax="707" yMax="868">
      <contour>
        <pt x="525" y="253" on="1"/>
        <pt x="315" y="254" on="1"/>
        <pt x="270" y="85" on="1"/>
        <pt x="255" y="28" on="0"/>
        <pt x="227" y="-46" on="0"/>
        <pt x="204" y="-84" on="1"/>
        <pt x="156" y="-160" on="0"/>
        <pt x="62" y="-160" on="1"/>
        <pt x="62" y="-148" on="1"/>
        <pt x="137" y="-148" on="0"/>
        <pt x="221" y="-47" on="0"/>
        <pt x="246" y="41" on="1"/>
        <pt x="256" y="62" on="1"/>
        <pt x="254" y="63" on="1"/>
        <pt x="220" y="-13" on="0"/>
        <pt x="146" y="-13" on="1"/>
        <pt x="97" y="-13" on="0"/>
        <pt x="33" y="53" on="0"/>
        <pt x="33" y="103" on="1"/>
        <pt x="33" y="266" on="0"/>
        <pt x="305" y="266" on="1"/>
        <pt x="405" y="644" on="1"/>
        <pt x="374" y="645" on="1"/>
        <pt x="370" y="645" on="0"/>
        <pt x="366" y="645" on="1"/>
        <pt x="311" y="645" on="0"/>
        <pt x="243" y="594" on="0"/>
        <pt x="243" y="552" on="1"/>
        <pt x="243" y="532" on="0"/>
        <pt x="249" y="519" on="1"/>
        <pt x="241" y="513" on="1"/>
        <pt x="230" y="525" on="0"/>
        <pt x="230" y="584" on="0"/>
        <pt x="272" y="637" on="0"/>
        <pt x="305" y="646" on="1"/>
        <pt x="314" y="648" on="0"/>
        <pt x="328" y="650" on="1"/>
        <pt x="328" y="652" on="1"/>
        <pt x="305" y="651" on="1"/>
        <pt x="209" y="663" on="0"/>
        <pt x="89" y="748" on="0"/>
        <pt x="89" y="828" on="1"/>
        <pt x="101" y="829" on="1"/>
        <pt x="101" y="783" on="0"/>
        <pt x="147" y="716" on="0"/>
        <pt x="187" y="697" on="1"/>
        <pt x="263" y="661" on="0"/>
        <pt x="367" y="657" on="1"/>
        <pt x="539" y="649" on="1"/>
        <pt x="539" y="107" on="1"/>
        <pt x="539" y="47" on="0"/>
        <pt x="495" y="-12" on="0"/>
        <pt x="442" y="-12" on="1"/>
        <pt x="415" y="-12" on="0"/>
        <pt x="397" y="-6" on="1"/>
        <pt x="399" y="4" on="1"/>
        <pt x="421" y="-1" on="0"/>
        <pt x="439" y="-1" on="1"/>
        <pt x="489" y="-1" on="0"/>
        <pt x="525" y="51" on="0"/>
        <pt x="525" y="107" on="1"/>
      </contour>
      <contour>
        <pt x="366" y="266" on="1"/>
        <pt x="525" y="265" on="1"/>
        <pt x="525" y="638" on="1"/>
        <pt x="418" y="643" on="1"/>
        <pt x="318" y="266" on="1"/>
      </contour>
      <contour>
        <pt x="47" y="103" on="1"/>
        <pt x="47" y="59" on="0"/>
        <pt x="103" y="-1" on="0"/>
        <pt x="146" y="-1" on="1"/>
        <pt x="215" y="-1" on="0"/>
        <pt x="248" y="72" on="1"/>
        <pt x="266" y="113" on="0"/>
        <pt x="279" y="168" on="1"/>
        <pt x="302" y="254" on="1"/>
        <pt x="47" y="252" on="0"/>
      </contour>
      <contour>
        <pt x="565" y="107" on="1"/>
        <pt x="565" y="605" on="1"/>
        <pt x="565" y="665" on="0"/>
        <pt x="609" y="724" on="0"/>
        <pt x="662" y="724" on="1"/>
        <pt x="689" y="724" on="0"/>
        <pt x="707" y="718" on="1"/>
        <pt x="705" y="708" on="1"/>
        <pt x="683" y="713" on="0"/>
        <pt x="665" y="713" on="1"/>
        <pt x="615" y="713" on="0"/>
        <pt x="579" y="661" on="0"/>
        <pt x="579" y="605" on="1"/>
        <pt x="579" y="107" on="1"/>
        <pt x="579" y="51" on="0"/>
        <pt x="615" y="-1" on="0"/>
        <pt x="665" y="-1" on="1"/>
        <pt x="683" y="-1" on="0"/>
        <pt x="705" y="4" on="1"/>
        <pt x="707" y="-6" on="1"/>
        <pt x="689" y="-12" on="0"/>
        <pt x="662" y="-12" on="1"/>
        <pt x="609" y="-12" on="0"/>
        <pt x="565" y="47" on="0"/>
      </contour>
      <contour>
        <pt x="467" y="868" on="0"/>
        <pt x="477" y="868" on="0"/>
        <pt x="481" y="864" on="1"/>
        <pt x="599" y="740" on="1"/>
        <pt x="592" y="734" on="1"/>
        <pt x="472" y="846" on="1"/>
        <pt x="352" y="734" on="1"/>
        <pt x="345" y="740" on="1"/>
        <pt x="463" y="864" on="1"/>
      </contour>
    </TTGlyph>
    <TTGlyph name="Adieresis" xMin="33" yMin="-160" xMax="707" yMax="829">
      <contour>
        <pt x="525" y="253" on="1"/>
        <pt x="315" y="254" on="1"/>
        <pt x="270" y="85" on="1"/>
        <pt x="255" y="28" on="0"/>
        <pt x="227" y="-46" on="0"/>
        <pt x="204" y="-84" on="1"/>
        <pt x="156" y="-160" on="0"/>
        <pt x="62" y="-160" on="1"/>
        <pt x="62" y="-148" on="1"/>
        <pt x="137" y="-148" on="0"/>
        <pt x="221" y="-47" on="0"/>
        <pt x="246" y="41" on="1"/>
        <pt x="256" y="62" on="1"/>
        <pt x="254" y="63" on="1"/>
        <pt x="220" y="-13" on="0"/>
        <pt x="146" y="-13" on="1"/>
        <pt x="97" y="-13" on="0"/>
        <pt x="33" y="53" on="0"/>
        <pt x="33" y="103" on="1"/>
        <pt x="33" y="266" on="0"/>
        <pt x="305" y="266" on="1"/>
        <pt x="405" y="644" on="1"/>
        <pt x="374" y="645" on="1"/>
        <pt x="370" y="645" on="0"/>
        <pt x="366" y="645" on="1"/>
        <pt x="311" y="645" on="0"/>
        <pt x="243" y="594" on="0"/>
        <pt x="243" y="552" on="1"/>
        <pt x="243" y="532" on="0"/>
        <pt x="249" y="519" on="1"/>
        <pt x="241" y="513" on="1"/>
        <pt x="230" y="525" on="0"/>
        <pt x="230" y="584" on="0"/>
        <pt x="272" y="637" on="0"/>
        <pt x="305" y="646" on="1"/>
        <pt x="314" y="648" on="0"/>
        <pt x="328" y="650" on="1"/>
        <pt x="328" y="652" on="1"/>
        <pt x="305" y="651" on="1"/>
        <pt x="209" y="663" on="0"/>
        <pt x="89" y="748" on="0"/>
        <pt x="89" y="828" on="1"/>
        <pt x="101" y="829" on="1"/>
        <pt x="101" y="783" on="0"/>
        <pt x="147" y="716" on="0"/>
        <pt x="187" y="697" on="1"/>
        <pt x="263" y="661" on="0"/>
        <pt x="367" y="657" on="1"/>
        <pt x="539" y="649" on="1"/>
        <pt x="539" y="107" on="1"/>
        <pt x="539" y="47" on="0"/>
        <pt x="495" y="-12" on="0"/>
        <pt x="442" y="-12" on="1"/>
        <pt x="415" y="-12" on="0"/>
        <pt x="397" y="-6" on="1"/>
        <pt x="399" y="4" on="1"/>
        <pt x="421" y="-1" on="0"/>
        <pt x="439" y="-1" on="1"/>
        <pt x="489" y="-1" on="0"/>
        <pt x="525" y="51" on="0"/>
        <pt x="525" y="107" on="1"/>
      </contour>
      <contour>
        <pt x="366" y="266" on="1"/>
        <pt x="525" y="265" on="1"/>
        <pt x="525" y="638" on="1"/>
        <pt x="418" y="643" on="1"/>
        <pt x="318" y="266" on="1"/>
      </contour>
      <contour>
        <pt x="47" y="103" on="1"/>
        <pt x="47" y="59" on="0"/>
        <pt x="103" y="-1" on="0"/>
        <pt x="146" y="-1" on="1"/>
        <pt x="215" y="-1" on="0"/>
        <pt x="248" y="72" on="1"/>
        <pt x="266" y="113" on="0"/>
        <pt x="279" y="168" on="1"/>
        <pt x="302" y="254" on="1"/>
        <pt x="47" y="252" on="0"/>
      </contour>
      <contour>
        <pt x="565" y="107" on="1"/>
        <pt x="565" y="605" on="1"/>
        <pt x="565" y="665" on="0"/>
        <pt x="609" y="724" on="0"/>
        <pt x="662" y="724" on="1"/>
        <pt x="689" y="724" on="0"/>
        <pt x="707" y="718" on="1"/>
        <pt x="705" y="708" on="1"/>
        <pt x="683" y="713" on="0"/>
        <pt x="665" y="713" on="1"/>
        <pt x="615" y="713" on="0"/>
        <pt x="579" y="661" on="0"/>
        <pt x="579" y="605" on="1"/>
        <pt x="579" y="107" on="1"/>
        <pt x="579" y="51" on="0"/>
        <pt x="615" y="-1" on="0"/>
        <pt x="665" y="-1" on="1"/>
        <pt x="683" y="-1" on="0"/>
        <pt x="705" y="4" on="1"/>
        <pt x="707" y="-6" on="1"/>
        <pt x="689" y="-12" on="0"/>
        <pt x="662" y="-12" on="1"/>
        <pt x="609" y="-12" on="0"/>
        <pt x="565" y="47" on="0"/>
      </contour>
      <contour>
        <pt x="417" y="800" on="1"/>
        <pt x="417" y="791" on="0"/>
        <pt x="405" y="777" on="0"/>
        <pt x="385" y="777" on="0"/>
        <pt x="373" y="791" on="0"/>
        <pt x="373" y="800" on="1"/>
        <pt x="373" y="822" on="0"/>
        <pt x="417" y="822" on="0"/>
      </contour>
      <contour>
        <pt x="573" y="800" on="1"/>
        <pt x="573" y="791" on="0"/>
        <pt x="561" y="777" on="0"/>
        <pt x="541" y="777" on="0"/>
        <pt x="529" y="791" on="0"/>
        <pt x="529" y="800" on="1"/>
        <pt x="529" y="822" on="0"/>
        <pt x="573" y="822" on="0"/>
      </contour>
    </TTGlyph>
    <TTGlyph name="Agrave" xMin="33" yMin="-160" xMax="707" yMax="868">
      <contour>
        <pt x="525" y="253" on="1"/>
        <pt x="315" y="254" on="1"/>
        <pt x="270" y="85" on="1"/>
        <pt x="255" y="28" on="0"/>
        <pt x="227" y="-46" on="0"/>
        <pt x="204" y="-84" on="1"/>
        <pt x="156" y="-160" on="0"/>
        <pt x="62" y="-160" on="1"/>
        <pt x="62" y="-148" on="1"/>
        <pt x="137" y="-148" on="0"/>
        <pt x="221" y="-47" on="0"/>
        <pt x="246" y="41" on="1"/>
        <pt x="256" y="62" on="1"/>
        <pt x="254" y="63" on="1"/>
        <pt x="220" y="-13" on="0"/>
        <pt x="146" y="-13" on="1"/>
        <pt x="97" y="-13" on="0"/>
        <pt x="33" y="53" on="0"/>
        <pt x="33" y="103" on="1"/>
        <pt x="33" y="266" on="0"/>
        <pt x="305" y="266" on="1"/>
        <pt x="405" y="644" on="1"/>
        <pt x="374" y="645" on="1"/>
        <pt x="370" y="645" on="0"/>
        <pt x="366" y="645" on="1"/>
        <pt x="311" y="645" on="0"/>
        <pt x="243" y="594" on="0"/>
        <pt x="243" y="552" on="1"/>
        <pt x="243" y="532" on="0"/>
        <pt x="249" y="519" on="1"/>
        <pt x="241" y="513" on="1"/>
        <pt x="230" y="525" on="0"/>
        <pt x="230" y="584" on="0"/>
        <pt x="272" y="637" on="0"/>
        <pt x="305" y="646" on="1"/>
        <pt x="314" y="648" on="0"/>
        <pt x="328" y="650" on="1"/>
        <pt x="328" y="652" on="1"/>
        <pt x="305" y="651" on="1"/>
        <pt x="209" y="663" on="0"/>
        <pt x="89" y="748" on="0"/>
        <pt x="89" y="828" on="1"/>
        <pt x="101" y="829" on="1"/>
        <pt x="101" y="783" on="0"/>
        <pt x="147" y="716" on="0"/>
        <pt x="187" y="697" on="1"/>
        <pt x="263" y="661" on="0"/>
        <pt x="367" y="657" on="1"/>
        <pt x="539" y="649" on="1"/>
        <pt x="539" y="107" on="1"/>
        <pt x="539" y="47" on="0"/>
        <pt x="495" y="-12" on="0"/>
        <pt x="442" y="-12" on="1"/>
        <pt x="415" y="-12" on="0"/>
        <pt x="397" y="-6" on="1"/>
        <pt x="399" y="4" on="1"/>
        <pt x="421" y="-1" on="0"/>
        <pt x="439" y="-1" on="1"/>
        <pt x="489" y="-1" on="0"/>
        <pt x="525" y="51" on="0"/>
        <pt x="525" y="107" on="1"/>
      </contour>
      <contour>
        <pt x="366" y="266" on="1"/>
        <pt x="525" y="265" on="1"/>
        <pt x="525" y="638" on="1"/>
        <pt x="418" y="643" on="1"/>
        <pt x="318" y="266" on="1"/>
      </contour>
      <contour>
        <pt x="47" y="103" on="1"/>
        <pt x="47" y="59" on="0"/>
        <pt x="103" y="-1" on="0"/>
        <pt x="146" y="-1" on="1"/>
        <pt x="215" y="-1" on="0"/>
        <pt x="248" y="72" on="1"/>
        <pt x="266" y="113" on="0"/>
        <pt x="279" y="168" on="1"/>
        <pt x="302" y="254" on="1"/>
        <pt x="47" y="252" on="0"/>
      </contour>
      <contour>
        <pt x="565" y="107" on="1"/>
        <pt x="565" y="605" on="1"/>
        <pt x="565" y="665" on="0"/>
        <pt x="609" y="724" on="0"/>
        <pt x="662" y="724" on="1"/>
        <pt x="689" y="724" on="0"/>
        <pt x="707" y="718" on="1"/>
        <pt x="705" y="708" on="1"/>
        <pt x="683" y="713" on="0"/>
        <pt x="665" y="713" on="1"/>
        <pt x="615" y="713" on="0"/>
        <pt x="579" y="661" on="0"/>
        <pt x="579" y="605" on="1"/>
        <pt x="579" y="107" on="1"/>
        <pt x="579" y="51" on="0"/>
        <pt x="615" y="-1" on="0"/>
        <pt x="665" y="-1" on="1"/>
        <pt x="683" y="-1" on="0"/>
        <pt x="705" y="4" on="1"/>
        <pt x="707" y="-6" on="1"/>
        <pt x="689" y="-12" on="0"/>
        <pt x="662" y="-12" on="1"/>
        <pt x="609" y="-12" on="0"/>
        <pt x="565" y="47" on="0"/>
      </contour>
      <contour>
        <pt x="338" y="868" on="1"/>
        <pt x="342" y="868" on="0"/>
        <pt x="346" y="865" on="1"/>
        <pt x="517" y="742" on="1"/>
        <pt x="512" y="734" on="1"/>
        <pt x="327" y="854" on="1"/>
        <pt x="327" y="868" on="0"/>
      </contour>
    </TTGlyph>
    <TTGlyph name="Aring" xMin="33" yMin="-160" xMax="707" yMax="879">
      <contour>
        <pt x="525" y="253" on="1"/>
        <pt x="315" y="254" on="1"/>
        <pt x="270" y="85" on="1"/>
        <pt x="255" y="28" on="0"/>
        <pt x="227" y="-46" on="0"/>
        <pt x="204" y="-84" on="1"/>
        <pt x="156" y="-160" on="0"/>
        <pt x="62" y="-160" on="1"/>
        <pt x="62" y="-148" on="1"/>
        <pt x="137" y="-148" on="0"/>
        <pt x="221" y="-47" on="0"/>
        <pt x="246" y="41" on="1"/>
        <pt x="256" y="62" on="1"/>
        <pt x="254" y="63" on="1"/>
        <pt x="220" y="-13" on="0"/>
        <pt x="146" y="-13" on="1"/>
        <pt x="97" y="-13" on="0"/>
        <pt x="33" y="53" on="0"/>
        <pt x="33" y="103" on="1"/>
        <pt x="33" y="266" on="0"/>
        <pt x="305" y="266" on="1"/>
        <pt x="405" y="644" on="1"/>
        <pt x="374" y="645" on="1"/>
        <pt x="370" y="645" on="0"/>
        <pt x="366" y="645" on="1"/>
        <pt x="311" y="645" on="0"/>
        <pt x="243" y="594" on="0"/>
        <pt x="243" y="552" on="1"/>
        <pt x="243" y="532" on="0"/>
        <pt x="249" y="519" on="1"/>
        <pt x="241" y="513" on="1"/>
        <pt x="230" y="525" on="0"/>
        <pt x="230" y="584" on="0"/>
        <pt x="272" y="637" on="0"/>
        <pt x="305" y="646" on="1"/>
        <pt x="314" y="648" on="0"/>
        <pt x="328" y="650" on="1"/>
        <pt x="328" y="652" on="1"/>
        <pt x="305" y="651" on="1"/>
        <pt x="209" y="663" on="0"/>
        <pt x="89" y="748" on="0"/>
        <pt x="89" y="828" on="1"/>
        <pt x="101" y="829" on="1"/>
        <pt x="101" y="783" on="0"/>
        <pt x="147" y="716" on="0"/>
        <pt x="187" y="697" on="1"/>
        <pt x="263" y="661" on="0"/>
        <pt x="367" y="657" on="1"/>
        <pt x="539" y="649" on="1"/>
        <pt x="539" y="107" on="1"/>
        <pt x="539" y="47" on="0"/>
        <pt x="495" y="-12" on="0"/>
        <pt x="442" y="-12" on="1"/>
        <pt x="415" y="-12" on="0"/>
        <pt x="397" y="-6" on="1"/>
        <pt x="399" y="4" on="1"/>
        <pt x="421" y="-1" on="0"/>
        <pt x="439" y="-1" on="1"/>
        <pt x="489" y="-1" on="0"/>
        <pt x="525" y="51" on="0"/>
        <pt x="525" y="107" on="1"/>
      </contour>
      <contour>
        <pt x="366" y="266" on="1"/>
        <pt x="525" y="265" on="1"/>
        <pt x="525" y="638" on="1"/>
        <pt x="418" y="643" on="1"/>
        <pt x="318" y="266" on="1"/>
      </contour>
      <contour>
        <pt x="47" y="103" on="1"/>
        <pt x="47" y="59" on="0"/>
        <pt x="103" y="-1" on="0"/>
        <pt x="146" y="-1" on="1"/>
        <pt x="215" y="-1" on="0"/>
        <pt x="248" y="72" on="1"/>
        <pt x="266" y="113" on="0"/>
        <pt x="279" y="168" on="1"/>
        <pt x="302" y="254" on="1"/>
        <pt x="47" y="252" on="0"/>
      </contour>
      <contour>
        <pt x="565" y="107" on="1"/>
        <pt x="565" y="605" on="1"/>
        <pt x="565" y="665" on="0"/>
        <pt x="609" y="724" on="0"/>
        <pt x="662" y="724" on="1"/>
        <pt x="689" y="724" on="0"/>
        <pt x="707" y="718" on="1"/>
        <pt x="705" y="708" on="1"/>
        <pt x="683" y="713" on="0"/>
        <pt x="665" y="713" on="1"/>
        <pt x="615" y="713" on="0"/>
        <pt x="579" y="661" on="0"/>
        <pt x="579" y="605" on="1"/>
        <pt x="579" y="107" on="1"/>
        <pt x="579" y="51" on="0"/>
        <pt x="615" y="-1" on="0"/>
        <pt x="665" y="-1" on="1"/>
        <pt x="683" y="-1" on="0"/>
        <pt x="705" y="4" on="1"/>
        <pt x="707" y="-6" on="1"/>
        <pt x="689" y="-12" on="0"/>
        <pt x="662" y="-12" on="1"/>
        <pt x="609" y="-12" on="0"/>
        <pt x="565" y="47" on="0"/>
      </contour>
      <contour>
        <pt x="509" y="879" on="0"/>
        <pt x="551" y="836" on="0"/>
        <pt x="551" y="766" on="0"/>
        <pt x="508" y="717" on="0"/>
        <pt x="436" y="717" on="0"/>
        <pt x="393" y="766" on="0"/>
        <pt x="393" y="834" on="0"/>
        <pt x="436" y="879" on="0"/>
      </contour>
      <contour>
        <pt x="503" y="728" on="0"/>
        <pt x="538" y="770" on="0"/>
        <pt x="538" y="831" on="0"/>
        <pt x="504" y="868" on="0"/>
        <pt x="441" y="868" on="0"/>
        <pt x="405" y="829" on="0"/>
        <pt x="405" y="772" on="0"/>
        <pt x="443" y="728" on="0"/>
      </contour>
    </TTGlyph>
    <TTGlyph name="Atilde" xMin="33" yMin="-160" xMax="707" yMax="829">
      <contour>
        <pt x="525" y="253" on="1"/>
        <pt x="315" y="254" on="1"/>
        <pt x="270" y="85" on="1"/>
        <pt x="255" y="28" on="0"/>
        <pt x="227" y="-46" on="0"/>
        <pt x="204" y="-84" on="1"/>
        <pt x="156" y="-160" on="0"/>
        <pt x="62" y="-160" on="1"/>
        <pt x="62" y="-148" on="1"/>
        <pt x="137" y="-148" on="0"/>
        <pt x="221" y="-47" on="0"/>
        <pt x="246" y="41" on="1"/>
        <pt x="256" y="62" on="1"/>
        <pt x="254" y="63" on="1"/>
        <pt x="220" y="-13" on="0"/>
        <pt x="146" y="-13" on="1"/>
        <pt x="97" y="-13" on="0"/>
        <pt x="33" y="53" on="0"/>
        <pt x="33" y="103" on="1"/>
        <pt x="33" y="266" on="0"/>
        <pt x="305" y="266" on="1"/>
        <pt x="405" y="644" on="1"/>
        <pt x="374" y="645" on="1"/>
        <pt x="370" y="645" on="0"/>
        <pt x="366" y="645" on="1"/>
        <pt x="311" y="645" on="0"/>
        <pt x="243" y="594" on="0"/>
        <pt x="243" y="552" on="1"/>
        <pt x="243" y="532" on="0"/>
        <pt x="249" y="519" on="1"/>
        <pt x="241" y="513" on="1"/>
        <pt x="230" y="525" on="0"/>
        <pt x="230" y="584" on="0"/>
        <pt x="272" y="637" on="0"/>
        <pt x="305" y="646" on="1"/>
        <pt x="314" y="648" on="0"/>
        <pt x="328" y="650" on="1"/>
        <pt x="328" y="652" on="1"/>
        <pt x="305" y="651" on="1"/>
        <pt x="209" y="663" on="0"/>
        <pt x="89" y="748" on="0"/>
        <pt x="89" y="828" on="1"/>
        <pt x="101" y="829" on="1"/>
        <pt x="101" y="783" on="0"/>
        <pt x="147" y="716" on="0"/>
        <pt x="187" y="697" on="1"/>
        <pt x="263" y="661" on="0"/>
        <pt x="367" y="657" on="1"/>
        <pt x="539" y="649" on="1"/>
        <pt x="539" y="107" on="1"/>
        <pt x="539" y="47" on="0"/>
        <pt x="495" y="-12" on="0"/>
        <pt x="442" y="-12" on="1"/>
        <pt x="415" y="-12" on="0"/>
        <pt x="397" y="-6" on="1"/>
        <pt x="399" y="4" on="1"/>
        <pt x="421" y="-1" on="0"/>
        <pt x="439" y="-1" on="1"/>
        <pt x="489" y="-1" on="0"/>
        <pt x="525" y="51" on="0"/>
        <pt x="525" y="107" on="1"/>
      </contour>
      <contour>
        <pt x="366" y="266" on="1"/>
        <pt x="525" y="265" on="1"/>
        <pt x="525" y="638" on="1"/>
        <pt x="418" y="643" on="1"/>
        <pt x="318" y="266" on="1"/>
      </contour>
      <contour>
        <pt x="47" y="103" on="1"/>
        <pt x="47" y="59" on="0"/>
        <pt x="103" y="-1" on="0"/>
        <pt x="146" y="-1" on="1"/>
        <pt x="215" y="-1" on="0"/>
        <pt x="248" y="72" on="1"/>
        <pt x="266" y="113" on="0"/>
        <pt x="279" y="168" on="1"/>
        <pt x="302" y="254" on="1"/>
        <pt x="47" y="252" on="0"/>
      </contour>
      <contour>
        <pt x="565" y="107" on="1"/>
        <pt x="565" y="605" on="1"/>
        <pt x="565" y="665" on="0"/>
        <pt x="609" y="724" on="0"/>
        <pt x="662" y="724" on="1"/>
        <pt x="689" y="724" on="0"/>
        <pt x="707" y="718" on="1"/>
        <pt x="705" y="708" on="1"/>
        <pt x="683" y="713" on="0"/>
        <pt x="665" y="713" on="1"/>
        <pt x="615" y="713" on="0"/>
        <pt x="579" y="661" on="0"/>
        <pt x="579" y="605" on="1"/>
        <pt x="579" y="107" on="1"/>
        <pt x="579" y="51" on="0"/>
        <pt x="615" y="-1" on="0"/>
        <pt x="665" y="-1" on="1"/>
        <pt x="683" y="-1" on="0"/>
        <pt x="705" y="4" on="1"/>
        <pt x="707" y="-6" on="1"/>
        <pt x="689" y="-12" on="0"/>
        <pt x="662" y="-12" on="1"/>
        <pt x="609" y="-12" on="0"/>
        <pt x="565" y="47" on="0"/>
      </contour>
      <contour>
        <pt x="346" y="777" on="1"/>
        <pt x="337" y="783" on="1"/>
        <pt x="365" y="818" on="0"/>
        <pt x="394" y="829" on="1"/>
        <pt x="422" y="829" on="0"/>
        <pt x="524" y="784" on="0"/>
        <pt x="551" y="783" on="1"/>
        <pt x="580" y="797" on="0"/>
        <pt x="601" y="823" on="1"/>
        <pt x="610" y="817" on="1"/>
        <pt x="582" y="782" on="0"/>
        <pt x="553" y="771" on="1"/>
        <pt x="525" y="771" on="0"/>
        <pt x="423" y="816" on="0"/>
        <pt x="396" y="817" on="1"/>
        <pt x="367" y="803" on="0"/>
      </contour>
    </TTGlyph>
    <TTGlyph name="B" xMin="-100" yMin="-15" xMax="634" yMax="794">
      <contour>
        <pt x="414" y="663" on="1"/>
        <pt x="501" y="663" on="0"/>
        <pt x="584" y="605" on="0"/>
        <pt x="584" y="528" on="1"/>
        <pt x="584" y="479" on="0"/>
        <pt x="530" y="398" on="0"/>
        <pt x="486" y="379" on="1"/>
        <pt x="463" y="374" on="1"/>
        <pt x="464" y="372" on="1"/>
        <pt x="478" y="374" on="0"/>
        <pt x="491" y="374" on="1"/>
        <pt x="558" y="369" on="0"/>
        <pt x="634" y="292" on="0"/>
        <pt x="634" y="141" on="0"/>
        <pt x="517" y="8" on="0"/>
        <pt x="431" y="-15" on="1"/>
        <pt x="394" y="-15" on="0"/>
        <pt x="296" y="14" on="0"/>
        <pt x="262" y="33" on="1"/>
        <pt x="262" y="655" on="1"/>
        <pt x="376" y="663" on="0"/>
      </contour>
      <contour>
        <pt x="236" y="107" on="1"/>
        <pt x="236" y="47" on="0"/>
        <pt x="192" y="-12" on="0"/>
        <pt x="139" y="-12" on="1"/>
        <pt x="112" y="-12" on="0"/>
        <pt x="94" y="-6" on="1"/>
        <pt x="96" y="4" on="1"/>
        <pt x="118" y="-1" on="0"/>
        <pt x="136" y="-1" on="1"/>
        <pt x="186" y="-1" on="0"/>
        <pt x="222" y="51" on="0"/>
        <pt x="222" y="107" on="1"/>
        <pt x="222" y="640" on="1"/>
        <pt x="166" y="636" on="0"/>
        <pt x="140" y="625" on="1"/>
        <pt x="81" y="600" on="0"/>
        <pt x="81" y="544" on="1"/>
        <pt x="81" y="520" on="0"/>
        <pt x="91" y="501" on="1"/>
        <pt x="83" y="495" on="1"/>
        <pt x="68" y="512" on="0"/>
        <pt x="68" y="543" on="1"/>
        <pt x="68" y="609" on="0"/>
        <pt x="134" y="633" on="1"/>
        <pt x="146" y="637" on="0"/>
        <pt x="156" y="640" on="1"/>
        <pt x="156" y="642" on="1"/>
        <pt x="133" y="638" on="1"/>
        <pt x="37" y="640" on="0"/>
        <pt x="-92" y="713" on="0"/>
        <pt x="-100" y="792" on="1"/>
        <pt x="-88" y="794" on="1"/>
        <pt x="-72" y="650" on="0"/>
        <pt x="160" y="650" on="1"/>
        <pt x="192" y="650" on="0"/>
        <pt x="236" y="653" on="1"/>
      </contour>
      <contour>
        <pt x="570" y="598" on="0"/>
        <pt x="495" y="651" on="0"/>
        <pt x="362" y="651" on="0"/>
        <pt x="276" y="644" on="1"/>
        <pt x="276" y="40" on="1"/>
        <pt x="364" y="-3" on="0"/>
        <pt x="428" y="-3" on="1"/>
        <pt x="509" y="20" on="0"/>
        <pt x="620" y="146" on="0"/>
        <pt x="620" y="295" on="0"/>
        <pt x="533" y="366" on="0"/>
        <pt x="457" y="366" on="1"/>
        <pt x="385" y="366" on="0"/>
        <pt x="371" y="346" on="1"/>
        <pt x="364" y="336" on="0"/>
        <pt x="364" y="300" on="0"/>
        <pt x="389" y="277" on="0"/>
        <pt x="409" y="275" on="1"/>
        <pt x="407" y="265" on="1"/>
        <pt x="383" y="267" on="0"/>
        <pt x="350" y="296" on="0"/>
        <pt x="350" y="317" on="1"/>
        <pt x="350" y="360" on="0"/>
        <pt x="393" y="369" on="1"/>
        <pt x="368" y="371" on="0"/>
        <pt x="336" y="398" on="0"/>
        <pt x="336" y="444" on="0"/>
        <pt x="369" y="473" on="0"/>
        <pt x="393" y="475" on="1"/>
        <pt x="395" y="465" on="1"/>
        <pt x="375" y="463" on="0"/>
        <pt x="350" y="440" on="0"/>
        <pt x="350" y="398" on="0"/>
        <pt x="387" y="376" on="0"/>
        <pt x="415" y="376" on="1"/>
        <pt x="483" y="376" on="0"/>
        <pt x="570" y="466" on="0"/>
      </contour>
    </TTGlyph>
    <TTGlyph name="C" xMin="30" yMin="-14" xMax="467" yMax="666">
      <contour>
        <pt x="30" y="290" on="1"/>
        <pt x="30" y="401" on="0"/>
        <pt x="149" y="621" on="0"/>
        <pt x="248" y="666" on="1"/>
        <pt x="250" y="666" on="1"/>
        <pt x="250" y="326" on="1"/>
        <pt x="267" y="314" on="0"/>
        <pt x="274" y="296" on="1"/>
        <pt x="280" y="274" on="1"/>
        <pt x="282" y="275" on="1"/>
        <pt x="277" y="297" on="1"/>
        <pt x="276" y="666" on="1"/>
        <pt x="287" y="666" on="1"/>
        <pt x="400" y="666" on="0"/>
        <pt x="432" y="641" on="1"/>
        <pt x="467" y="615" on="0"/>
        <pt x="467" y="522" on="0"/>
        <pt x="424" y="471" on="0"/>
        <pt x="355" y="471" on="0"/>
        <pt x="315" y="512" on="0"/>
        <pt x="315" y="545" on="1"/>
        <pt x="315" y="557" on="0"/>
        <pt x="320" y="569" on="1"/>
        <pt x="331" y="565" on="1"/>
        <pt x="328" y="554" on="0"/>
        <pt x="328" y="545" on="1"/>
        <pt x="328" y="517" on="0"/>
        <pt x="361" y="483" on="0"/>
        <pt x="419" y="483" on="0"/>
        <pt x="453" y="527" on="0"/>
        <pt x="453" y="586" on="0"/>
        <pt x="435" y="623" on="0"/>
        <pt x="410" y="642" on="0"/>
        <pt x="386" y="647" on="1"/>
        <pt x="352" y="654" on="0"/>
        <pt x="290" y="654" on="1"/>
        <pt x="290" y="0" on="1"/>
        <pt x="390" y="18" on="0"/>
        <pt x="455" y="74" on="1"/>
        <pt x="465" y="64" on="1"/>
        <pt x="389" y="2" on="0"/>
        <pt x="280" y="-14" on="1"/>
        <pt x="149" y="-4" on="0"/>
        <pt x="30" y="150" on="0"/>
      </contour>
      <contour>
        <pt x="276" y="237" on="1"/>
        <pt x="276" y="329" on="0"/>
        <pt x="197" y="329" on="1"/>
        <pt x="174" y="329" on="0"/>
        <pt x="157" y="320" on="1"/>
        <pt x="152" y="328" on="1"/>
        <pt x="172" y="340" on="0"/>
        <pt x="221" y="340" on="0"/>
        <pt x="236" y="333" on="1"/>
        <pt x="236" y="646" on="1"/>
        <pt x="148" y="599" on="0"/>
        <pt x="44" y="394" on="0"/>
        <pt x="44" y="290" on="1"/>
        <pt x="44" y="20" on="0"/>
        <pt x="276" y="-1" on="1"/>
      </contour>
    </TTGlyph>
    <TTGlyph name="Ccedilla" xMin="30" yMin="-214" xMax="467" yMax="666">
      <contour>
        <pt x="30" y="290" on="1"/>
        <pt x="30" y="150" on="0"/>
        <pt x="149" y="-4" on="0"/>
        <pt x="280" y="-14" on="1"/>
        <pt x="389" y="2" on="0"/>
        <pt x="465" y="64" on="1"/>
        <pt x="455" y="74" on="1"/>
        <pt x="390" y="18" on="0"/>
        <pt x="290" y="0" on="1"/>
        <pt x="290" y="654" on="1"/>
        <pt x="352" y="654" on="0"/>
        <pt x="386" y="647" on="1"/>
        <pt x="410" y="642" on="0"/>
        <pt x="435" y="623" on="0"/>
        <pt x="453" y="586" on="0"/>
        <pt x="453" y="527" on="0"/>
        <pt x="419" y="483" on="0"/>
        <pt x="361" y="483" on="0"/>
        <pt x="328" y="517" on="0"/>
        <pt x="328" y="545" on="1"/>
        <pt x="328" y="554" on="0"/>
        <pt x="331" y="565" on="1"/>
        <pt x="320" y="569" on="1"/>
        <pt x="315" y="557" on="0"/>
        <pt x="315" y="545" on="1"/>
        <pt x="315" y="512" on="0"/>
        <pt x="355" y="471" on="0"/>
        <pt x="424" y="471" on="0"/>
        <pt x="467" y="522" on="0"/>
        <pt x="467" y="615" on="0"/>
        <pt x="432" y="641" on="1"/>
        <pt x="400" y="666" on="0"/>
        <pt x="287" y="666" on="1"/>
        <pt x="276" y="666" on="1"/>
        <pt x="277" y="297" on="1"/>
        <pt x="282" y="275" on="1"/>
        <pt x="280" y="274" on="1"/>
        <pt x="274" y="296" on="1"/>
        <pt x="267" y="314" on="0"/>
        <pt x="250" y="326" on="1"/>
        <pt x="250" y="666" on="1"/>
        <pt x="248" y="666" on="1"/>
        <pt x="149" y="621" on="0"/>
        <pt x="30" y="401" on="0"/>
      </contour>
      <contour>
        <pt x="276" y="237" on="1"/>
        <pt x="276" y="-1" on="1"/>
        <pt x="44" y="20" on="0"/>
        <pt x="44" y="290" on="1"/>
        <pt x="44" y="394" on="0"/>
        <pt x="148" y="599" on="0"/>
        <pt x="236" y="646" on="1"/>
        <pt x="236" y="333" on="1"/>
        <pt x="221" y="340" on="0"/>
        <pt x="172" y="340" on="0"/>
        <pt x="152" y="328" on="1"/>
        <pt x="157" y="320" on="1"/>
        <pt x="174" y="329" on="0"/>
        <pt x="197" y="329" on="1"/>
        <pt x="276" y="329" on="0"/>
      </contour>
      <contour>
        <pt x="376" y="-163" on="0"/>
        <pt x="333" y="-206" on="0"/>
        <pt x="302" y="-214" on="1"/>
        <pt x="259" y="-214" on="0"/>
        <pt x="220" y="-192" on="1"/>
        <pt x="226" y="-183" on="1"/>
        <pt x="263" y="-203" on="0"/>
        <pt x="300" y="-203" on="1"/>
        <pt x="327" y="-197" on="0"/>
        <pt x="362" y="-160" on="0"/>
        <pt x="362" y="-114" on="0"/>
        <pt x="347" y="-90" on="0"/>
        <pt x="329" y="-85" on="1"/>
        <pt x="304" y="-78" on="0"/>
        <pt x="256" y="-78" on="1"/>
        <pt x="252" y="-75" on="1"/>
        <pt x="269" y="-5" on="1"/>
        <pt x="281" y="-6" on="1"/>
        <pt x="267" y="-67" on="1"/>
        <pt x="335" y="-67" on="0"/>
        <pt x="376" y="-101" on="0"/>
      </contour>
    </TTGlyph>
    <TTGlyph name="D" xMin="-72" yMin="-13" xMax="663" yMax="794">
      <contour>
        <pt x="290" y="655" on="1"/>
        <pt x="404" y="663" on="0"/>
        <pt x="494" y="663" on="0"/>
        <pt x="572" y="629" on="0"/>
        <pt x="621" y="573" on="0"/>
        <pt x="636" y="530" on="1"/>
        <pt x="663" y="454" on="0"/>
        <pt x="663" y="222" on="0"/>
        <pt x="566" y="24" on="0"/>
        <pt x="469" y="-13" on="1"/>
        <pt x="376" y="-13" on="0"/>
        <pt x="290" y="34" on="1"/>
      </contour>
      <contour>
        <pt x="264" y="107" on="1"/>
        <pt x="264" y="47" on="0"/>
        <pt x="220" y="-12" on="0"/>
        <pt x="167" y="-12" on="1"/>
        <pt x="140" y="-12" on="0"/>
        <pt x="122" y="-6" on="1"/>
        <pt x="124" y="4" on="1"/>
        <pt x="146" y="-1" on="0"/>
        <pt x="164" y="-1" on="1"/>
        <pt x="214" y="-1" on="0"/>
        <pt x="250" y="51" on="0"/>
        <pt x="250" y="107" on="1"/>
        <pt x="250" y="408" on="1"/>
        <pt x="243" y="407" on="0"/>
        <pt x="230" y="407" on="1"/>
        <pt x="170" y="407" on="0"/>
        <pt x="96" y="483" on="0"/>
        <pt x="96" y="609" on="0"/>
        <pt x="162" y="633" on="1"/>
        <pt x="174" y="637" on="0"/>
        <pt x="184" y="640" on="1"/>
        <pt x="184" y="642" on="1"/>
        <pt x="161" y="638" on="1"/>
        <pt x="65" y="640" on="0"/>
        <pt x="-64" y="713" on="0"/>
        <pt x="-72" y="792" on="1"/>
        <pt x="-60" y="794" on="1"/>
        <pt x="-44" y="650" on="0"/>
        <pt x="188" y="650" on="1"/>
        <pt x="221" y="650" on="0"/>
        <pt x="264" y="653" on="1"/>
      </contour>
      <contour>
        <pt x="443" y="651" on="1"/>
        <pt x="418" y="651" on="0"/>
        <pt x="304" y="644" on="1"/>
        <pt x="304" y="42" on="1"/>
        <pt x="388" y="-1" on="0"/>
        <pt x="466" y="-1" on="1"/>
        <pt x="528" y="23" on="0"/>
        <pt x="571" y="80" on="1"/>
        <pt x="649" y="183" on="0"/>
        <pt x="649" y="341" on="1"/>
        <pt x="649" y="568" on="0"/>
        <pt x="545" y="627" on="1"/>
        <pt x="503" y="651" on="0"/>
      </contour>
      <contour>
        <pt x="230" y="419" on="1"/>
        <pt x="244" y="419" on="0"/>
        <pt x="250" y="420" on="1"/>
        <pt x="250" y="640" on="1"/>
        <pt x="194" y="636" on="0"/>
        <pt x="168" y="625" on="1"/>
        <pt x="110" y="602" on="0"/>
        <pt x="110" y="489" on="0"/>
        <pt x="176" y="419" on="0"/>
      </contour>
    </TTGlyph>
    <TTGlyph name="E" xMin="7" yMin="-13" xMax="600" yMax="828">
      <contour>
        <pt x="417" y="636" on="0"/>
        <pt x="459" y="583" on="0"/>
        <pt x="459" y="524" on="0"/>
        <pt x="448" y="512" on="1"/>
        <pt x="440" y="518" on="1"/>
        <pt x="446" y="532" on="0"/>
        <pt x="446" y="551" on="1"/>
        <pt x="446" y="593" on="0"/>
        <pt x="379" y="644" on="0"/>
        <pt x="327" y="644" on="1"/>
        <pt x="321" y="644" on="0"/>
        <pt x="315" y="644" on="1"/>
        <pt x="189" y="637" on="1"/>
        <pt x="189" y="340" on="1"/>
        <pt x="313" y="340" on="1"/>
        <pt x="385" y="340" on="0"/>
        <pt x="385" y="381" on="1"/>
        <pt x="385" y="392" on="0"/>
        <pt x="380" y="402" on="1"/>
        <pt x="390" y="407" on="1"/>
        <pt x="398" y="397" on="0"/>
        <pt x="398" y="362" on="0"/>
        <pt x="371" y="336" on="0"/>
        <pt x="352" y="333" on="1"/>
        <pt x="391" y="320" on="0"/>
        <pt x="399" y="259" on="1"/>
        <pt x="387" y="256" on="1"/>
        <pt x="380" y="295" on="0"/>
        <pt x="348" y="328" on="0"/>
        <pt x="312" y="328" on="1"/>
        <pt x="189" y="328" on="1"/>
        <pt x="189" y="42" on="1"/>
        <pt x="273" y="-1" on="0"/>
        <pt x="412" y="-1" on="0"/>
        <pt x="467" y="43" on="0"/>
        <pt x="467" y="99" on="1"/>
        <pt x="467" y="117" on="0"/>
        <pt x="462" y="132" on="1"/>
        <pt x="473" y="137" on="1"/>
        <pt x="480" y="120" on="0"/>
        <pt x="480" y="99" on="1"/>
        <pt x="480" y="39" on="0"/>
        <pt x="418" y="-13" on="0"/>
        <pt x="354" y="-13" on="1"/>
        <pt x="261" y="-13" on="0"/>
        <pt x="175" y="34" on="1"/>
        <pt x="175" y="648" on="1"/>
        <pt x="322" y="656" on="1"/>
        <pt x="426" y="660" on="0"/>
        <pt x="502" y="696" on="1"/>
        <pt x="542" y="715" on="0"/>
        <pt x="588" y="782" on="0"/>
        <pt x="588" y="828" on="1"/>
        <pt x="600" y="827" on="1"/>
        <pt x="600" y="747" on="0"/>
        <pt x="480" y="662" on="0"/>
        <pt x="384" y="650" on="1"/>
        <pt x="377" y="650" on="0"/>
        <pt x="361" y="651" on="1"/>
        <pt x="361" y="649" on="1"/>
        <pt x="375" y="647" on="0"/>
        <pt x="384" y="645" on="1"/>
      </contour>
      <contour>
        <pt x="149" y="605" on="1"/>
        <pt x="149" y="107" on="1"/>
        <pt x="149" y="47" on="0"/>
        <pt x="105" y="-12" on="0"/>
        <pt x="52" y="-12" on="1"/>
        <pt x="25" y="-12" on="0"/>
        <pt x="7" y="-6" on="1"/>
        <pt x="9" y="4" on="1"/>
        <pt x="31" y="-1" on="0"/>
        <pt x="49" y="-1" on="1"/>
        <pt x="99" y="-1" on="0"/>
        <pt x="135" y="51" on="0"/>
        <pt x="135" y="107" on="1"/>
        <pt x="135" y="605" on="1"/>
        <pt x="135" y="661" on="0"/>
        <pt x="99" y="713" on="0"/>
        <pt x="49" y="713" on="1"/>
        <pt x="31" y="713" on="0"/>
        <pt x="9" y="708" on="1"/>
        <pt x="7" y="718" on="1"/>
        <pt x="25" y="724" on="0"/>
        <pt x="52" y="724" on="1"/>
        <pt x="105" y="724" on="0"/>
        <pt x="149" y="665" on="0"/>
      </contour>
    </TTGlyph>
    <TTGlyph name="Eacute" xMin="7" yMin="-13" xMax="600" yMax="853">
      <contour>
        <pt x="417" y="636" on="0"/>
        <pt x="459" y="583" on="0"/>
        <pt x="459" y="524" on="0"/>
        <pt x="448" y="512" on="1"/>
        <pt x="440" y="518" on="1"/>
        <pt x="446" y="532" on="0"/>
        <pt x="446" y="551" on="1"/>
        <pt x="446" y="593" on="0"/>
        <pt x="379" y="644" on="0"/>
        <pt x="327" y="644" on="1"/>
        <pt x="321" y="644" on="0"/>
        <pt x="315" y="644" on="1"/>
        <pt x="189" y="637" on="1"/>
        <pt x="189" y="340" on="1"/>
        <pt x="313" y="340" on="1"/>
        <pt x="385" y="340" on="0"/>
        <pt x="385" y="381" on="1"/>
        <pt x="385" y="392" on="0"/>
        <pt x="380" y="402" on="1"/>
        <pt x="390" y="407" on="1"/>
        <pt x="398" y="397" on="0"/>
        <pt x="398" y="362" on="0"/>
        <pt x="371" y="336" on="0"/>
        <pt x="352" y="333" on="1"/>
        <pt x="391" y="320" on="0"/>
        <pt x="399" y="259" on="1"/>
        <pt x="387" y="256" on="1"/>
        <pt x="380" y="295" on="0"/>
        <pt x="348" y="328" on="0"/>
        <pt x="312" y="328" on="1"/>
        <pt x="189" y="328" on="1"/>
        <pt x="189" y="42" on="1"/>
        <pt x="273" y="-1" on="0"/>
        <pt x="412" y="-1" on="0"/>
        <pt x="467" y="43" on="0"/>
        <pt x="467" y="99" on="1"/>
        <pt x="467" y="117" on="0"/>
        <pt x="462" y="132" on="1"/>
        <pt x="473" y="137" on="1"/>
        <pt x="480" y="120" on="0"/>
        <pt x="480" y="99" on="1"/>
        <pt x="480" y="39" on="0"/>
        <pt x="418" y="-13" on="0"/>
        <pt x="354" y="-13" on="1"/>
        <pt x="261" y="-13" on="0"/>
        <pt x="175" y="34" on="1"/>
        <pt x="175" y="648" on="1"/>
        <pt x="322" y="656" on="1"/>
        <pt x="426" y="660" on="0"/>
        <pt x="502" y="696" on="1"/>
        <pt x="542" y="715" on="0"/>
        <pt x="588" y="782" on="0"/>
        <pt x="588" y="828" on="1"/>
        <pt x="600" y="827" on="1"/>
        <pt x="600" y="747" on="0"/>
        <pt x="480" y="662" on="0"/>
        <pt x="384" y="650" on="1"/>
        <pt x="377" y="650" on="0"/>
        <pt x="361" y="651" on="1"/>
        <pt x="361" y="649" on="1"/>
        <pt x="375" y="647" on="0"/>
        <pt x="384" y="645" on="1"/>
      </contour>
      <contour>
        <pt x="149" y="605" on="1"/>
        <pt x="149" y="107" on="1"/>
        <pt x="149" y="47" on="0"/>
        <pt x="105" y="-12" on="0"/>
        <pt x="52" y="-12" on="1"/>
        <pt x="25" y="-12" on="0"/>
        <pt x="7" y="-6" on="1"/>
        <pt x="9" y="4" on="1"/>
        <pt x="31" y="-1" on="0"/>
        <pt x="49" y="-1" on="1"/>
        <pt x="99" y="-1" on="0"/>
        <pt x="135" y="51" on="0"/>
        <pt x="135" y="107" on="1"/>
        <pt x="135" y="605" on="1"/>
        <pt x="135" y="661" on="0"/>
        <pt x="99" y="713" on="0"/>
        <pt x="49" y="713" on="1"/>
        <pt x="31" y="713" on="0"/>
        <pt x="9" y="708" on="1"/>
        <pt x="7" y="718" on="1"/>
        <pt x="25" y="724" on="0"/>
        <pt x="52" y="724" on="1"/>
        <pt x="105" y="724" on="0"/>
        <pt x="149" y="665" on="0"/>
      </contour>
      <contour>
        <pt x="421" y="853" on="1"/>
        <pt x="432" y="853" on="0"/>
        <pt x="432" y="839" on="1"/>
        <pt x="247" y="719" on="1"/>
        <pt x="242" y="727" on="1"/>
        <pt x="413" y="850" on="1"/>
        <pt x="417" y="853" on="0"/>
      </contour>
    </TTGlyph>
    <TTGlyph name="Ecircumflex" xMin="7" yMin="-13" xMax="600" yMax="868">
      <contour>
        <pt x="417" y="636" on="0"/>
        <pt x="459" y="583" on="0"/>
        <pt x="459" y="524" on="0"/>
        <pt x="448" y="512" on="1"/>
        <pt x="440" y="518" on="1"/>
        <pt x="446" y="532" on="0"/>
        <pt x="446" y="551" on="1"/>
        <pt x="446" y="593" on="0"/>
        <pt x="379" y="644" on="0"/>
        <pt x="327" y="644" on="1"/>
        <pt x="321" y="644" on="0"/>
        <pt x="315" y="644" on="1"/>
        <pt x="189" y="637" on="1"/>
        <pt x="189" y="340" on="1"/>
        <pt x="313" y="340" on="1"/>
        <pt x="385" y="340" on="0"/>
        <pt x="385" y="381" on="1"/>
        <pt x="385" y="392" on="0"/>
        <pt x="380" y="402" on="1"/>
        <pt x="390" y="407" on="1"/>
        <pt x="398" y="397" on="0"/>
        <pt x="398" y="362" on="0"/>
        <pt x="371" y="336" on="0"/>
        <pt x="352" y="333" on="1"/>
        <pt x="391" y="320" on="0"/>
        <pt x="399" y="259" on="1"/>
        <pt x="387" y="256" on="1"/>
        <pt x="380" y="295" on="0"/>
        <pt x="348" y="328" on="0"/>
        <pt x="312" y="328" on="1"/>
        <pt x="189" y="328" on="1"/>
        <pt x="189" y="42" on="1"/>
        <pt x="273" y="-1" on="0"/>
        <pt x="412" y="-1" on="0"/>
        <pt x="467" y="43" on="0"/>
        <pt x="467" y="99" on="1"/>
        <pt x="467" y="117" on="0"/>
        <pt x="462" y="132" on="1"/>
        <pt x="473" y="137" on="1"/>
        <pt x="480" y="120" on="0"/>
        <pt x="480" y="99" on="1"/>
        <pt x="480" y="39" on="0"/>
        <pt x="418" y="-13" on="0"/>
        <pt x="354" y="-13" on="1"/>
        <pt x="261" y="-13" on="0"/>
        <pt x="175" y="34" on="1"/>
        <pt x="175" y="648" on="1"/>
        <pt x="322" y="656" on="1"/>
        <pt x="426" y="660" on="0"/>
        <pt x="502" y="696" on="1"/>
        <pt x="542" y="715" on="0"/>
        <pt x="588" y="782" on="0"/>
        <pt x="588" y="828" on="1"/>
        <pt x="600" y="827" on="1"/>
        <pt x="600" y="747" on="0"/>
        <pt x="480" y="662" on="0"/>
        <pt x="384" y="650" on="1"/>
        <pt x="377" y="650" on="0"/>
        <pt x="361" y="651" on="1"/>
        <pt x="361" y="649" on="1"/>
        <pt x="375" y="647" on="0"/>
        <pt x="384" y="645" on="1"/>
      </contour>
      <contour>
        <pt x="149" y="605" on="1"/>
        <pt x="149" y="107" on="1"/>
        <pt x="149" y="47" on="0"/>
        <pt x="105" y="-12" on="0"/>
        <pt x="52" y="-12" on="1"/>
        <pt x="25" y="-12" on="0"/>
        <pt x="7" y="-6" on="1"/>
        <pt x="9" y="4" on="1"/>
        <pt x="31" y="-1" on="0"/>
        <pt x="49" y="-1" on="1"/>
        <pt x="99" y="-1" on="0"/>
        <pt x="135" y="51" on="0"/>
        <pt x="135" y="107" on="1"/>
        <pt x="135" y="605" on="1"/>
        <pt x="135" y="661" on="0"/>
        <pt x="99" y="713" on="0"/>
        <pt x="49" y="713" on="1"/>
        <pt x="31" y="713" on="0"/>
        <pt x="9" y="708" on="1"/>
        <pt x="7" y="718" on="1"/>
        <pt x="25" y="724" on="0"/>
        <pt x="52" y="724" on="1"/>
        <pt x="105" y="724" on="0"/>
        <pt x="149" y="665" on="0"/>
      </contour>
      <contour>
        <pt x="282" y="868" on="0"/>
        <pt x="292" y="868" on="0"/>
        <pt x="296" y="864" on="1"/>
        <pt x="414" y="740" on="1"/>
        <pt x="407" y="734" on="1"/>
        <pt x="287" y="846" on="1"/>
        <pt x="167" y="734" on="1"/>
        <pt x="160" y="740" on="1"/>
        <pt x="278" y="864" on="1"/>
      </contour>
    </TTGlyph>
    <TTGlyph name="Edieresis" xMin="7" yMin="-13" xMax="600" yMax="828">
      <contour>
        <pt x="417" y="636" on="0"/>
        <pt x="459" y="583" on="0"/>
        <pt x="459" y="524" on="0"/>
        <pt x="448" y="512" on="1"/>
        <pt x="440" y="518" on="1"/>
        <pt x="446" y="532" on="0"/>
        <pt x="446" y="551" on="1"/>
        <pt x="446" y="593" on="0"/>
        <pt x="379" y="644" on="0"/>
        <pt x="327" y="644" on="1"/>
        <pt x="321" y="644" on="0"/>
        <pt x="315" y="644" on="1"/>
        <pt x="189" y="637" on="1"/>
        <pt x="189" y="340" on="1"/>
        <pt x="313" y="340" on="1"/>
        <pt x="385" y="340" on="0"/>
        <pt x="385" y="381" on="1"/>
        <pt x="385" y="392" on="0"/>
        <pt x="380" y="402" on="1"/>
        <pt x="390" y="407" on="1"/>
        <pt x="398" y="397" on="0"/>
        <pt x="398" y="362" on="0"/>
        <pt x="371" y="336" on="0"/>
        <pt x="352" y="333" on="1"/>
        <pt x="391" y="320" on="0"/>
        <pt x="399" y="259" on="1"/>
        <pt x="387" y="256" on="1"/>
        <pt x="380" y="295" on="0"/>
        <pt x="348" y="328" on="0"/>
        <pt x="312" y="328" on="1"/>
        <pt x="189" y="328" on="1"/>
        <pt x="189" y="42" on="1"/>
        <pt x="273" y="-1" on="0"/>
        <pt x="412" y="-1" on="0"/>
        <pt x="467" y="43" on="0"/>
        <pt x="467" y="99" on="1"/>
        <pt x="467" y="117" on="0"/>
        <pt x="462" y="132" on="1"/>
        <pt x="473" y="137" on="1"/>
        <pt x="480" y="120" on="0"/>
        <pt x="480" y="99" on="1"/>
        <pt x="480" y="39" on="0"/>
        <pt x="418" y="-13" on="0"/>
        <pt x="354" y="-13" on="1"/>
        <pt x="261" y="-13" on="0"/>
        <pt x="175" y="34" on="1"/>
        <pt x="175" y="648" on="1"/>
        <pt x="322" y="656" on="1"/>
        <pt x="426" y="660" on="0"/>
        <pt x="502" y="696" on="1"/>
        <pt x="542" y="715" on="0"/>
        <pt x="588" y="782" on="0"/>
        <pt x="588" y="828" on="1"/>
        <pt x="600" y="827" on="1"/>
        <pt x="600" y="747" on="0"/>
        <pt x="480" y="662" on="0"/>
        <pt x="384" y="650" on="1"/>
        <pt x="377" y="650" on="0"/>
        <pt x="361" y="651" on="1"/>
        <pt x="361" y="649" on="1"/>
        <pt x="375" y="647" on="0"/>
        <pt x="384" y="645" on="1"/>
      </contour>
      <contour>
        <pt x="149" y="605" on="1"/>
        <pt x="149" y="107" on="1"/>
        <pt x="149" y="47" on="0"/>
        <pt x="105" y="-12" on="0"/>
        <pt x="52" y="-12" on="1"/>
        <pt x="25" y="-12" on="0"/>
        <pt x="7" y="-6" on="1"/>
        <pt x="9" y="4" on="1"/>
        <pt x="31" y="-1" on="0"/>
        <pt x="49" y="-1" on="1"/>
        <pt x="99" y="-1" on="0"/>
        <pt x="135" y="51" on="0"/>
        <pt x="135" y="107" on="1"/>
        <pt x="135" y="605" on="1"/>
        <pt x="135" y="661" on="0"/>
        <pt x="99" y="713" on="0"/>
        <pt x="49" y="713" on="1"/>
        <pt x="31" y="713" on="0"/>
        <pt x="9" y="708" on="1"/>
        <pt x="7" y="718" on="1"/>
        <pt x="25" y="724" on="0"/>
        <pt x="52" y="724" on="1"/>
        <pt x="105" y="724" on="0"/>
        <pt x="149" y="665" on="0"/>
      </contour>
      <contour>
        <pt x="232" y="800" on="1"/>
        <pt x="232" y="791" on="0"/>
        <pt x="220" y="777" on="0"/>
        <pt x="200" y="777" on="0"/>
        <pt x="188" y="791" on="0"/>
        <pt x="188" y="800" on="1"/>
        <pt x="188" y="822" on="0"/>
        <pt x="232" y="822" on="0"/>
      </contour>
      <contour>
        <pt x="388" y="800" on="1"/>
        <pt x="388" y="791" on="0"/>
        <pt x="376" y="777" on="0"/>
        <pt x="356" y="777" on="0"/>
        <pt x="344" y="791" on="0"/>
        <pt x="344" y="800" on="1"/>
        <pt x="344" y="822" on="0"/>
        <pt x="388" y="822" on="0"/>
      </contour>
    </TTGlyph>
    <TTGlyph name="Egrave" xMin="7" yMin="-13" xMax="600" yMax="868">
      <contour>
        <pt x="417" y="636" on="0"/>
        <pt x="459" y="583" on="0"/>
        <pt x="459" y="524" on="0"/>
        <pt x="448" y="512" on="1"/>
        <pt x="440" y="518" on="1"/>
        <pt x="446" y="532" on="0"/>
        <pt x="446" y="551" on="1"/>
        <pt x="446" y="593" on="0"/>
        <pt x="379" y="644" on="0"/>
        <pt x="327" y="644" on="1"/>
        <pt x="321" y="644" on="0"/>
        <pt x="315" y="644" on="1"/>
        <pt x="189" y="637" on="1"/>
        <pt x="189" y="340" on="1"/>
        <pt x="313" y="340" on="1"/>
        <pt x="385" y="340" on="0"/>
        <pt x="385" y="381" on="1"/>
        <pt x="385" y="392" on="0"/>
        <pt x="380" y="402" on="1"/>
        <pt x="390" y="407" on="1"/>
        <pt x="398" y="397" on="0"/>
        <pt x="398" y="362" on="0"/>
        <pt x="371" y="336" on="0"/>
        <pt x="352" y="333" on="1"/>
        <pt x="391" y="320" on="0"/>
        <pt x="399" y="259" on="1"/>
        <pt x="387" y="256" on="1"/>
        <pt x="380" y="295" on="0"/>
        <pt x="348" y="328" on="0"/>
        <pt x="312" y="328" on="1"/>
        <pt x="189" y="328" on="1"/>
        <pt x="189" y="42" on="1"/>
        <pt x="273" y="-1" on="0"/>
        <pt x="412" y="-1" on="0"/>
        <pt x="467" y="43" on="0"/>
        <pt x="467" y="99" on="1"/>
        <pt x="467" y="117" on="0"/>
        <pt x="462" y="132" on="1"/>
        <pt x="473" y="137" on="1"/>
        <pt x="480" y="120" on="0"/>
        <pt x="480" y="99" on="1"/>
        <pt x="480" y="39" on="0"/>
        <pt x="418" y="-13" on="0"/>
        <pt x="354" y="-13" on="1"/>
        <pt x="261" y="-13" on="0"/>
        <pt x="175" y="34" on="1"/>
        <pt x="175" y="648" on="1"/>
        <pt x="322" y="656" on="1"/>
        <pt x="426" y="660" on="0"/>
        <pt x="502" y="696" on="1"/>
        <pt x="542" y="715" on="0"/>
        <pt x="588" y="782" on="0"/>
        <pt x="588" y="828" on="1"/>
        <pt x="600" y="827" on="1"/>
        <pt x="600" y="747" on="0"/>
        <pt x="480" y="662" on="0"/>
        <pt x="384" y="650" on="1"/>
        <pt x="377" y="650" on="0"/>
        <pt x="361" y="651" on="1"/>
        <pt x="361" y="649" on="1"/>
        <pt x="375" y="647" on="0"/>
        <pt x="384" y="645" on="1"/>
      </contour>
      <contour>
        <pt x="149" y="605" on="1"/>
        <pt x="149" y="107" on="1"/>
        <pt x="149" y="47" on="0"/>
        <pt x="105" y="-12" on="0"/>
        <pt x="52" y="-12" on="1"/>
        <pt x="25" y="-12" on="0"/>
        <pt x="7" y="-6" on="1"/>
        <pt x="9" y="4" on="1"/>
        <pt x="31" y="-1" on="0"/>
        <pt x="49" y="-1" on="1"/>
        <pt x="99" y="-1" on="0"/>
        <pt x="135" y="51" on="0"/>
        <pt x="135" y="107" on="1"/>
        <pt x="135" y="605" on="1"/>
        <pt x="135" y="661" on="0"/>
        <pt x="99" y="713" on="0"/>
        <pt x="49" y="713" on="1"/>
        <pt x="31" y="713" on="0"/>
        <pt x="9" y="708" on="1"/>
        <pt x="7" y="718" on="1"/>
        <pt x="25" y="724" on="0"/>
        <pt x="52" y="724" on="1"/>
        <pt x="105" y="724" on="0"/>
        <pt x="149" y="665" on="0"/>
      </contour>
      <contour>
        <pt x="153" y="868" on="1"/>
        <pt x="156" y="868" on="0"/>
        <pt x="161" y="865" on="1"/>
        <pt x="332" y="742" on="1"/>
        <pt x="327" y="734" on="1"/>
        <pt x="142" y="854" on="1"/>
        <pt x="142" y="868" on="0"/>
      </contour>
    </TTGlyph>
    <TTGlyph name="Eth" xMin="-72" yMin="-13" xMax="663" yMax="794">
      <contour>
        <pt x="290" y="655" on="1"/>
        <pt x="404" y="663" on="0"/>
        <pt x="494" y="663" on="0"/>
        <pt x="572" y="629" on="0"/>
        <pt x="621" y="573" on="0"/>
        <pt x="636" y="530" on="1"/>
        <pt x="663" y="454" on="0"/>
        <pt x="663" y="222" on="0"/>
        <pt x="566" y="24" on="0"/>
        <pt x="469" y="-13" on="1"/>
        <pt x="376" y="-13" on="0"/>
        <pt x="290" y="34" on="1"/>
      </contour>
      <contour>
        <pt x="443" y="651" on="1"/>
        <pt x="418" y="651" on="0"/>
        <pt x="304" y="644" on="1"/>
        <pt x="304" y="344" on="1"/>
        <pt x="465" y="351" on="1"/>
        <pt x="466" y="340" on="1"/>
        <pt x="304" y="333" on="1"/>
        <pt x="304" y="42" on="1"/>
        <pt x="388" y="-1" on="0"/>
        <pt x="466" y="-1" on="1"/>
        <pt x="528" y="23" on="0"/>
        <pt x="571" y="80" on="1"/>
        <pt x="649" y="183" on="0"/>
        <pt x="649" y="341" on="1"/>
        <pt x="649" y="568" on="0"/>
        <pt x="545" y="627" on="1"/>
        <pt x="503" y="651" on="0"/>
      </contour>
      <contour>
        <pt x="264" y="107" on="1"/>
        <pt x="264" y="47" on="0"/>
        <pt x="220" y="-12" on="0"/>
        <pt x="167" y="-12" on="1"/>
        <pt x="140" y="-12" on="0"/>
        <pt x="122" y="-6" on="1"/>
        <pt x="124" y="4" on="1"/>
        <pt x="146" y="-1" on="0"/>
        <pt x="164" y="-1" on="1"/>
        <pt x="214" y="-1" on="0"/>
        <pt x="250" y="51" on="0"/>
        <pt x="250" y="107" on="1"/>
        <pt x="250" y="332" on="1"/>
        <pt x="144" y="328" on="1"/>
        <pt x="146" y="339" on="1"/>
        <pt x="250" y="342" on="1"/>
        <pt x="250" y="408" on="1"/>
        <pt x="243" y="407" on="0"/>
        <pt x="230" y="407" on="1"/>
        <pt x="170" y="407" on="0"/>
        <pt x="96" y="483" on="0"/>
        <pt x="96" y="609" on="0"/>
        <pt x="162" y="633" on="1"/>
        <pt x="174" y="637" on="0"/>
        <pt x="184" y="640" on="1"/>
        <pt x="184" y="642" on="1"/>
        <pt x="161" y="638" on="1"/>
        <pt x="65" y="640" on="0"/>
        <pt x="-64" y="713" on="0"/>
        <pt x="-72" y="792" on="1"/>
        <pt x="-60" y="794" on="1"/>
        <pt x="-44" y="650" on="0"/>
        <pt x="188" y="650" on="1"/>
        <pt x="221" y="650" on="0"/>
        <pt x="264" y="653" on="1"/>
      </contour>
      <contour>
        <pt x="230" y="419" on="1"/>
        <pt x="244" y="419" on="0"/>
        <pt x="250" y="420" on="1"/>
        <pt x="250" y="640" on="1"/>
        <pt x="194" y="636" on="0"/>
        <pt x="168" y="625" on="1"/>
        <pt x="110" y="602" on="0"/>
        <pt x="110" y="489" on="0"/>
        <pt x="176" y="419" on="0"/>
      </contour>
    </TTGlyph>
    <TTGlyph name="Euro" xMin="32" yMin="-15" xMax="418" yMax="538">
      <contour>
        <pt x="110" y="231" on="1"/>
        <pt x="110" y="226" on="1"/>
        <pt x="371" y="237" on="1"/>
        <pt x="375" y="226" on="1"/>
        <pt x="110" y="215" on="1"/>
        <pt x="114" y="142" on="0"/>
        <pt x="191" y="24" on="0"/>
        <pt x="256" y="-1" on="1"/>
        <pt x="298" y="16" on="0"/>
        <pt x="383" y="81" on="0"/>
        <pt x="409" y="116" on="1"/>
        <pt x="418" y="109" on="1"/>
        <pt x="390" y="72" on="0"/>
        <pt x="298" y="2" on="0"/>
        <pt x="254" y="-15" on="1"/>
        <pt x="184" y="10" on="0"/>
        <pt x="102" y="137" on="0"/>
        <pt x="97" y="215" on="1"/>
        <pt x="32" y="212" on="1"/>
        <pt x="34" y="223" on="1"/>
        <pt x="97" y="225" on="1"/>
        <pt x="97" y="231" on="1"/>
        <pt x="97" y="268" on="0"/>
        <pt x="102" y="295" on="1"/>
        <pt x="32" y="292" on="1"/>
        <pt x="34" y="303" on="1"/>
        <pt x="104" y="306" on="1"/>
        <pt x="130" y="450" on="0"/>
        <pt x="233" y="538" on="1"/>
        <pt x="332" y="538" on="0"/>
        <pt x="412" y="492" on="1"/>
        <pt x="407" y="482" on="1"/>
        <pt x="324" y="527" on="0"/>
        <pt x="237" y="527" on="1"/>
        <pt x="141" y="443" on="0"/>
        <pt x="117" y="306" on="1"/>
        <pt x="371" y="317" on="1"/>
        <pt x="375" y="306" on="1"/>
        <pt x="115" y="296" on="1"/>
        <pt x="110" y="270" on="0"/>
      </contour>
    </TTGlyph>
    <TTGlyph name="F" xMin="7" yMin="-12" xMax="600" yMax="828">
      <contour>
        <pt x="175" y="107" on="1"/>
        <pt x="175" y="648" on="1"/>
        <pt x="322" y="656" on="1"/>
        <pt x="426" y="660" on="0"/>
        <pt x="502" y="696" on="1"/>
        <pt x="542" y="715" on="0"/>
        <pt x="588" y="782" on="0"/>
        <pt x="588" y="828" on="1"/>
        <pt x="600" y="827" on="1"/>
        <pt x="600" y="747" on="0"/>
        <pt x="480" y="662" on="0"/>
        <pt x="384" y="650" on="1"/>
        <pt x="377" y="650" on="0"/>
        <pt x="361" y="651" on="1"/>
        <pt x="361" y="649" on="1"/>
        <pt x="375" y="647" on="0"/>
        <pt x="384" y="645" on="1"/>
        <pt x="417" y="636" on="0"/>
        <pt x="459" y="583" on="0"/>
        <pt x="459" y="524" on="0"/>
        <pt x="448" y="512" on="1"/>
        <pt x="440" y="518" on="1"/>
        <pt x="446" y="532" on="0"/>
        <pt x="446" y="551" on="1"/>
        <pt x="446" y="593" on="0"/>
        <pt x="379" y="644" on="0"/>
        <pt x="327" y="644" on="1"/>
        <pt x="321" y="644" on="0"/>
        <pt x="315" y="644" on="1"/>
        <pt x="189" y="637" on="1"/>
        <pt x="189" y="340" on="1"/>
        <pt x="313" y="340" on="1"/>
        <pt x="385" y="340" on="0"/>
        <pt x="385" y="381" on="1"/>
        <pt x="385" y="392" on="0"/>
        <pt x="380" y="402" on="1"/>
        <pt x="390" y="407" on="1"/>
        <pt x="398" y="397" on="0"/>
        <pt x="398" y="362" on="0"/>
        <pt x="371" y="336" on="0"/>
        <pt x="352" y="333" on="1"/>
        <pt x="391" y="320" on="0"/>
        <pt x="399" y="259" on="1"/>
        <pt x="387" y="256" on="1"/>
        <pt x="380" y="295" on="0"/>
        <pt x="348" y="328" on="0"/>
        <pt x="312" y="328" on="1"/>
        <pt x="189" y="328" on="1"/>
        <pt x="189" y="107" on="1"/>
        <pt x="189" y="51" on="0"/>
        <pt x="225" y="-1" on="0"/>
        <pt x="275" y="-1" on="1"/>
        <pt x="293" y="-1" on="0"/>
        <pt x="315" y="4" on="1"/>
        <pt x="317" y="-6" on="1"/>
        <pt x="299" y="-12" on="0"/>
        <pt x="272" y="-12" on="1"/>
        <pt x="219" y="-12" on="0"/>
        <pt x="175" y="47" on="0"/>
      </contour>
      <contour>
        <pt x="149" y="605" on="1"/>
        <pt x="149" y="107" on="1"/>
        <pt x="149" y="47" on="0"/>
        <pt x="105" y="-12" on="0"/>
        <pt x="52" y="-12" on="1"/>
        <pt x="25" y="-12" on="0"/>
        <pt x="7" y="-6" on="1"/>
        <pt x="9" y="4" on="1"/>
        <pt x="31" y="-1" on="0"/>
        <pt x="49" y="-1" on="1"/>
        <pt x="99" y="-1" on="0"/>
        <pt x="135" y="51" on="0"/>
        <pt x="135" y="107" on="1"/>
        <pt x="135" y="605" on="1"/>
        <pt x="135" y="661" on="0"/>
        <pt x="99" y="713" on="0"/>
        <pt x="49" y="713" on="1"/>
        <pt x="31" y="713" on="0"/>
        <pt x="9" y="708" on="1"/>
        <pt x="7" y="718" on="1"/>
        <pt x="25" y="724" on="0"/>
        <pt x="52" y="724" on="1"/>
        <pt x="105" y="724" on="0"/>
        <pt x="149" y="665" on="0"/>
      </contour>
    </TTGlyph>
    <TTGlyph name="G" xMin="30" yMin="-200" xMax="530" yMax="666">
      <contour>
        <pt x="30" y="290" on="1"/>
        <pt x="30" y="402" on="0"/>
        <pt x="150" y="622" on="0"/>
        <pt x="248" y="666" on="1"/>
        <pt x="253" y="666" on="1"/>
        <pt x="366" y="666" on="0"/>
        <pt x="398" y="641" on="1"/>
        <pt x="433" y="615" on="0"/>
        <pt x="433" y="522" on="0"/>
        <pt x="390" y="471" on="0"/>
        <pt x="321" y="471" on="0"/>
        <pt x="281" y="512" on="0"/>
        <pt x="281" y="545" on="1"/>
        <pt x="281" y="557" on="0"/>
        <pt x="286" y="569" on="1"/>
        <pt x="297" y="565" on="1"/>
        <pt x="294" y="554" on="0"/>
        <pt x="294" y="545" on="1"/>
        <pt x="294" y="517" on="0"/>
        <pt x="327" y="483" on="0"/>
        <pt x="385" y="483" on="0"/>
        <pt x="419" y="527" on="0"/>
        <pt x="419" y="586" on="0"/>
        <pt x="401" y="623" on="0"/>
        <pt x="376" y="642" on="0"/>
        <pt x="352" y="647" on="1"/>
        <pt x="318" y="654" on="0"/>
        <pt x="256" y="654" on="1"/>
        <pt x="251" y="654" on="1"/>
        <pt x="158" y="610" on="0"/>
        <pt x="44" y="400" on="0"/>
        <pt x="44" y="290" on="1"/>
        <pt x="44" y="17" on="0"/>
        <pt x="280" y="-1" on="1"/>
        <pt x="318" y="4" on="0"/>
        <pt x="348" y="18" on="1"/>
        <pt x="348" y="211" on="1"/>
        <pt x="348" y="267" on="0"/>
        <pt x="312" y="319" on="0"/>
        <pt x="262" y="319" on="1"/>
        <pt x="244" y="319" on="0"/>
        <pt x="222" y="314" on="1"/>
        <pt x="220" y="324" on="1"/>
        <pt x="238" y="330" on="0"/>
        <pt x="265" y="330" on="1"/>
        <pt x="318" y="330" on="0"/>
        <pt x="362" y="271" on="0"/>
        <pt x="362" y="211" on="1"/>
        <pt x="362" y="11" on="1"/>
        <pt x="320" y="-9" on="0"/>
        <pt x="280" y="-14" on="1"/>
        <pt x="30" y="6" on="0"/>
      </contour>
      <contour>
        <pt x="402" y="211" on="1"/>
        <pt x="402" y="35" on="1"/>
        <pt x="402" y="-48" on="0"/>
        <pt x="330" y="-171" on="0"/>
        <pt x="258" y="-200" on="1"/>
        <pt x="184" y="-200" on="0"/>
        <pt x="121" y="-179" on="1"/>
        <pt x="124" y="-167" on="1"/>
        <pt x="184" y="-188" on="0"/>
        <pt x="254" y="-188" on="1"/>
        <pt x="388" y="-134" on="0"/>
        <pt x="388" y="35" on="1"/>
        <pt x="388" y="211" on="1"/>
        <pt x="388" y="271" on="0"/>
        <pt x="432" y="330" on="0"/>
        <pt x="485" y="330" on="1"/>
        <pt x="512" y="330" on="0"/>
        <pt x="530" y="324" on="1"/>
        <pt x="528" y="314" on="1"/>
        <pt x="506" y="319" on="0"/>
        <pt x="488" y="319" on="1"/>
        <pt x="438" y="319" on="0"/>
        <pt x="402" y="267" on="0"/>
      </contour>
    </TTGlyph>
    <TTGlyph name="H" xMin="27" yMin="-12" xMax="694" yMax="663">
      <contour>
        <pt x="169" y="544" on="1"/>
        <pt x="169" y="340" on="1"/>
        <pt x="512" y="340" on="1"/>
        <pt x="512" y="544" on="1"/>
        <pt x="512" y="600" on="0"/>
        <pt x="476" y="652" on="0"/>
        <pt x="426" y="652" on="1"/>
        <pt x="408" y="652" on="0"/>
        <pt x="386" y="647" on="1"/>
        <pt x="384" y="657" on="1"/>
        <pt x="402" y="663" on="0"/>
        <pt x="429" y="663" on="1"/>
        <pt x="482" y="663" on="0"/>
        <pt x="526" y="604" on="0"/>
        <pt x="526" y="544" on="1"/>
        <pt x="526" y="107" on="1"/>
        <pt x="526" y="47" on="0"/>
        <pt x="482" y="-12" on="0"/>
        <pt x="429" y="-12" on="1"/>
        <pt x="402" y="-12" on="0"/>
        <pt x="384" y="-6" on="1"/>
        <pt x="386" y="4" on="1"/>
        <pt x="408" y="-1" on="0"/>
        <pt x="426" y="-1" on="1"/>
        <pt x="476" y="-1" on="0"/>
        <pt x="512" y="51" on="0"/>
        <pt x="512" y="107" on="1"/>
        <pt x="512" y="328" on="1"/>
        <pt x="169" y="328" on="1"/>
        <pt x="169" y="107" on="1"/>
        <pt x="169" y="49" on="0"/>
        <pt x="206" y="-1" on="0"/>
        <pt x="255" y="-1" on="1"/>
        <pt x="273" y="-1" on="0"/>
        <pt x="295" y="4" on="1"/>
        <pt x="297" y="-6" on="1"/>
        <pt x="279" y="-12" on="0"/>
        <pt x="252" y="-12" on="1"/>
        <pt x="174" y="-12" on="0"/>
        <pt x="162" y="54" on="1"/>
        <pt x="149" y="-12" on="0"/>
        <pt x="72" y="-12" on="1"/>
        <pt x="45" y="-12" on="0"/>
        <pt x="27" y="-6" on="1"/>
        <pt x="29" y="4" on="1"/>
        <pt x="51" y="-1" on="0"/>
        <pt x="69" y="-1" on="1"/>
        <pt x="119" y="-1" on="0"/>
        <pt x="155" y="51" on="0"/>
        <pt x="155" y="107" on="1"/>
        <pt x="155" y="544" on="1"/>
        <pt x="155" y="600" on="0"/>
        <pt x="119" y="652" on="0"/>
        <pt x="69" y="652" on="1"/>
        <pt x="51" y="652" on="0"/>
        <pt x="29" y="647" on="1"/>
        <pt x="27" y="657" on="1"/>
        <pt x="45" y="663" on="0"/>
        <pt x="72" y="663" on="1"/>
        <pt x="149" y="663" on="0"/>
        <pt x="162" y="597" on="1"/>
        <pt x="174" y="663" on="0"/>
        <pt x="252" y="663" on="1"/>
        <pt x="279" y="663" on="0"/>
        <pt x="297" y="657" on="1"/>
        <pt x="295" y="647" on="1"/>
        <pt x="273" y="652" on="0"/>
        <pt x="255" y="652" on="1"/>
        <pt x="206" y="652" on="0"/>
        <pt x="169" y="602" on="0"/>
      </contour>
      <contour>
        <pt x="566" y="544" on="1"/>
        <pt x="566" y="107" on="1"/>
        <pt x="566" y="51" on="0"/>
        <pt x="602" y="-1" on="0"/>
        <pt x="652" y="-1" on="1"/>
        <pt x="670" y="-1" on="0"/>
        <pt x="692" y="4" on="1"/>
        <pt x="694" y="-6" on="1"/>
        <pt x="676" y="-12" on="0"/>
        <pt x="649" y="-12" on="1"/>
        <pt x="596" y="-12" on="0"/>
        <pt x="552" y="47" on="0"/>
        <pt x="552" y="107" on="1"/>
        <pt x="552" y="544" on="1"/>
        <pt x="552" y="604" on="0"/>
        <pt x="596" y="663" on="0"/>
        <pt x="649" y="663" on="1"/>
        <pt x="676" y="663" on="0"/>
        <pt x="694" y="657" on="1"/>
        <pt x="692" y="647" on="1"/>
        <pt x="670" y="652" on="0"/>
        <pt x="652" y="652" on="1"/>
        <pt x="602" y="652" on="0"/>
        <pt x="566" y="600" on="0"/>
      </contour>
    </TTGlyph>
    <TTGlyph name="I" xMin="-140" yMin="-12" xMax="351" yMax="824">
      <contour>
        <pt x="169" y="107" on="1"/>
        <pt x="169" y="638" on="1"/>
        <pt x="138" y="640" on="1"/>
        <pt x="134" y="640" on="0"/>
        <pt x="130" y="640" on="1"/>
        <pt x="82" y="640" on="0"/>
        <pt x="14" y="594" on="0"/>
        <pt x="14" y="547" on="1"/>
        <pt x="14" y="528" on="0"/>
        <pt x="20" y="514" on="1"/>
        <pt x="12" y="508" on="1"/>
        <pt x="1" y="520" on="0"/>
        <pt x="1" y="579" on="0"/>
        <pt x="43" y="633" on="0"/>
        <pt x="76" y="642" on="1"/>
        <pt x="77" y="642" on="0"/>
        <pt x="99" y="645" on="1"/>
        <pt x="99" y="647" on="1"/>
        <pt x="76" y="646" on="1"/>
        <pt x="-20" y="658" on="0"/>
        <pt x="-140" y="743" on="0"/>
        <pt x="-140" y="823" on="1"/>
        <pt x="-128" y="824" on="1"/>
        <pt x="-128" y="778" on="0"/>
        <pt x="-82" y="711" on="0"/>
        <pt x="-42" y="692" on="1"/>
        <pt x="32" y="658" on="0"/>
        <pt x="138" y="652" on="1"/>
        <pt x="183" y="649" on="1"/>
        <pt x="183" y="107" on="1"/>
        <pt x="183" y="47" on="0"/>
        <pt x="139" y="-12" on="0"/>
        <pt x="86" y="-12" on="1"/>
        <pt x="59" y="-12" on="0"/>
        <pt x="41" y="-6" on="1"/>
        <pt x="43" y="4" on="1"/>
        <pt x="65" y="-1" on="0"/>
        <pt x="83" y="-1" on="1"/>
        <pt x="133" y="-1" on="0"/>
        <pt x="169" y="51" on="0"/>
      </contour>
      <contour>
        <pt x="209" y="107" on="1"/>
        <pt x="209" y="605" on="1"/>
        <pt x="209" y="665" on="0"/>
        <pt x="253" y="724" on="0"/>
        <pt x="306" y="724" on="1"/>
        <pt x="333" y="724" on="0"/>
        <pt x="351" y="718" on="1"/>
        <pt x="349" y="708" on="1"/>
        <pt x="327" y="713" on="0"/>
        <pt x="309" y="713" on="1"/>
        <pt x="259" y="713" on="0"/>
        <pt x="223" y="661" on="0"/>
        <pt x="223" y="605" on="1"/>
        <pt x="223" y="107" on="1"/>
        <pt x="223" y="51" on="0"/>
        <pt x="259" y="-1" on="0"/>
        <pt x="309" y="-1" on="1"/>
        <pt x="327" y="-1" on="0"/>
        <pt x="349" y="4" on="1"/>
        <pt x="351" y="-6" on="1"/>
        <pt x="333" y="-12" on="0"/>
        <pt x="306" y="-12" on="1"/>
        <pt x="253" y="-12" on="0"/>
        <pt x="209" y="47" on="0"/>
      </contour>
    </TTGlyph>
    <TTGlyph name="IJ" xMin="-140" yMin="-184" xMax="756" yMax="826">
      <contour>
        <pt x="169" y="107" on="1"/>
        <pt x="169" y="638" on="1"/>
        <pt x="138" y="640" on="1"/>
        <pt x="134" y="640" on="0"/>
        <pt x="130" y="640" on="1"/>
        <pt x="82" y="640" on="0"/>
        <pt x="14" y="594" on="0"/>
        <pt x="14" y="547" on="1"/>
        <pt x="14" y="528" on="0"/>
        <pt x="20" y="514" on="1"/>
        <pt x="12" y="508" on="1"/>
        <pt x="1" y="520" on="0"/>
        <pt x="1" y="579" on="0"/>
        <pt x="43" y="633" on="0"/>
        <pt x="76" y="642" on="1"/>
        <pt x="77" y="642" on="0"/>
        <pt x="99" y="645" on="1"/>
        <pt x="99" y="647" on="1"/>
        <pt x="76" y="646" on="1"/>
        <pt x="-20" y="658" on="0"/>
        <pt x="-140" y="743" on="0"/>
        <pt x="-140" y="823" on="1"/>
        <pt x="-128" y="824" on="1"/>
        <pt x="-128" y="778" on="0"/>
        <pt x="-82" y="711" on="0"/>
        <pt x="-42" y="692" on="1"/>
        <pt x="32" y="658" on="0"/>
        <pt x="138" y="652" on="1"/>
        <pt x="183" y="649" on="1"/>
        <pt x="183" y="107" on="1"/>
        <pt x="183" y="47" on="0"/>
        <pt x="139" y="-12" on="0"/>
        <pt x="86" y="-12" on="1"/>
        <pt x="59" y="-12" on="0"/>
        <pt x="41" y="-6" on="1"/>
        <pt x="43" y="4" on="1"/>
        <pt x="65" y="-1" on="0"/>
        <pt x="83" y="-1" on="1"/>
        <pt x="133" y="-1" on="0"/>
        <pt x="169" y="51" on="0"/>
      </contour>
      <contour>
        <pt x="209" y="107" on="1"/>
        <pt x="209" y="649" on="1"/>
        <pt x="223" y="651" on="1"/>
        <pt x="223" y="107" on="1"/>
        <pt x="223" y="51" on="0"/>
        <pt x="259" y="-1" on="0"/>
        <pt x="309" y="-1" on="1"/>
        <pt x="327" y="-1" on="0"/>
        <pt x="349" y="4" on="1"/>
        <pt x="351" y="-6" on="1"/>
        <pt x="333" y="-12" on="0"/>
        <pt x="306" y="-12" on="1"/>
        <pt x="253" y="-12" on="0"/>
        <pt x="209" y="47" on="0"/>
      </contour>
      <contour>
        <pt x="498" y="480" on="1"/>
        <pt x="554" y="480" on="0"/>
        <pt x="572" y="436" on="1"/>
        <pt x="578" y="414" on="1"/>
        <pt x="580" y="415" on="1"/>
        <pt x="575" y="437" on="1"/>
        <pt x="574" y="638" on="1"/>
        <pt x="496" y="642" on="1"/>
        <pt x="492" y="642" on="0"/>
        <pt x="488" y="642" on="1"/>
        <pt x="440" y="642" on="0"/>
        <pt x="372" y="596" on="0"/>
        <pt x="372" y="549" on="1"/>
        <pt x="372" y="530" on="0"/>
        <pt x="378" y="516" on="1"/>
        <pt x="370" y="510" on="1"/>
        <pt x="359" y="522" on="0"/>
        <pt x="359" y="581" on="0"/>
        <pt x="401" y="635" on="0"/>
        <pt x="434" y="644" on="1"/>
        <pt x="435" y="644" on="0"/>
        <pt x="457" y="647" on="1"/>
        <pt x="457" y="649" on="1"/>
        <pt x="434" y="648" on="1"/>
        <pt x="338" y="660" on="0"/>
        <pt x="218" y="745" on="0"/>
        <pt x="218" y="825" on="1"/>
        <pt x="230" y="826" on="1"/>
        <pt x="230" y="780" on="0"/>
        <pt x="276" y="713" on="0"/>
        <pt x="316" y="694" on="1"/>
        <pt x="390" y="660" on="0"/>
        <pt x="496" y="654" on="1"/>
        <pt x="588" y="649" on="1"/>
        <pt x="588" y="185" on="1"/>
        <pt x="588" y="46" on="0"/>
        <pt x="496" y="-126" on="0"/>
        <pt x="380" y="-184" on="1"/>
        <pt x="374" y="-174" on="1"/>
        <pt x="485" y="-119" on="0"/>
        <pt x="574" y="50" on="0"/>
        <pt x="574" y="185" on="1"/>
        <pt x="574" y="377" on="1"/>
        <pt x="574" y="469" on="0"/>
        <pt x="495" y="469" on="1"/>
        <pt x="471" y="469" on="0"/>
        <pt x="455" y="460" on="1"/>
        <pt x="450" y="468" on="1"/>
        <pt x="470" y="480" on="0"/>
      </contour>
      <contour>
        <pt x="614" y="107" on="1"/>
        <pt x="614" y="605" on="1"/>
        <pt x="614" y="665" on="0"/>
        <pt x="658" y="724" on="0"/>
        <pt x="711" y="724" on="1"/>
        <pt x="738" y="724" on="0"/>
        <pt x="756" y="718" on="1"/>
        <pt x="754" y="708" on="1"/>
        <pt x="732" y="713" on="0"/>
        <pt x="714" y="713" on="1"/>
        <pt x="664" y="713" on="0"/>
        <pt x="628" y="661" on="0"/>
        <pt x="628" y="605" on="1"/>
        <pt x="628" y="107" on="1"/>
        <pt x="628" y="51" on="0"/>
        <pt x="664" y="-1" on="0"/>
        <pt x="714" y="-1" on="1"/>
        <pt x="732" y="-1" on="0"/>
        <pt x="754" y="4" on="1"/>
        <pt x="756" y="-6" on="1"/>
        <pt x="738" y="-12" on="0"/>
        <pt x="711" y="-12" on="1"/>
        <pt x="658" y="-12" on="0"/>
        <pt x="614" y="47" on="0"/>
      </contour>
    </TTGlyph>
    <TTGlyph name="Iacute" xMin="-140" yMin="-12" xMax="351" yMax="853">
      <contour>
        <pt x="169" y="107" on="1"/>
        <pt x="169" y="638" on="1"/>
        <pt x="138" y="640" on="1"/>
        <pt x="134" y="640" on="0"/>
        <pt x="130" y="640" on="1"/>
        <pt x="82" y="640" on="0"/>
        <pt x="14" y="594" on="0"/>
        <pt x="14" y="547" on="1"/>
        <pt x="14" y="528" on="0"/>
        <pt x="20" y="514" on="1"/>
        <pt x="12" y="508" on="1"/>
        <pt x="1" y="520" on="0"/>
        <pt x="1" y="579" on="0"/>
        <pt x="43" y="633" on="0"/>
        <pt x="76" y="642" on="1"/>
        <pt x="77" y="642" on="0"/>
        <pt x="99" y="645" on="1"/>
        <pt x="99" y="647" on="1"/>
        <pt x="76" y="646" on="1"/>
        <pt x="-20" y="658" on="0"/>
        <pt x="-140" y="743" on="0"/>
        <pt x="-140" y="823" on="1"/>
        <pt x="-128" y="824" on="1"/>
        <pt x="-128" y="778" on="0"/>
        <pt x="-82" y="711" on="0"/>
        <pt x="-42" y="692" on="1"/>
        <pt x="32" y="658" on="0"/>
        <pt x="138" y="652" on="1"/>
        <pt x="183" y="649" on="1"/>
        <pt x="183" y="107" on="1"/>
        <pt x="183" y="47" on="0"/>
        <pt x="139" y="-12" on="0"/>
        <pt x="86" y="-12" on="1"/>
        <pt x="59" y="-12" on="0"/>
        <pt x="41" y="-6" on="1"/>
        <pt x="43" y="4" on="1"/>
        <pt x="65" y="-1" on="0"/>
        <pt x="83" y="-1" on="1"/>
        <pt x="133" y="-1" on="0"/>
        <pt x="169" y="51" on="0"/>
      </contour>
      <contour>
        <pt x="209" y="107" on="1"/>
        <pt x="209" y="605" on="1"/>
        <pt x="209" y="665" on="0"/>
        <pt x="253" y="724" on="0"/>
        <pt x="306" y="724" on="1"/>
        <pt x="333" y="724" on="0"/>
        <pt x="351" y="718" on="1"/>
        <pt x="349" y="708" on="1"/>
        <pt x="327" y="713" on="0"/>
        <pt x="309" y="713" on="1"/>
        <pt x="259" y="713" on="0"/>
        <pt x="223" y="661" on="0"/>
        <pt x="223" y="605" on="1"/>
        <pt x="223" y="107" on="1"/>
        <pt x="223" y="51" on="0"/>
        <pt x="259" y="-1" on="0"/>
        <pt x="309" y="-1" on="1"/>
        <pt x="327" y="-1" on="0"/>
        <pt x="349" y="4" on="1"/>
        <pt x="351" y="-6" on="1"/>
        <pt x="333" y="-12" on="0"/>
        <pt x="306" y="-12" on="1"/>
        <pt x="253" y="-12" on="0"/>
        <pt x="209" y="47" on="0"/>
      </contour>
      <contour>
        <pt x="310" y="853" on="1"/>
        <pt x="321" y="853" on="0"/>
        <pt x="321" y="839" on="1"/>
        <pt x="136" y="719" on="1"/>
        <pt x="131" y="727" on="1"/>
        <pt x="302" y="850" on="1"/>
        <pt x="306" y="853" on="0"/>
      </contour>
    </TTGlyph>
    <TTGlyph name="Icircumflex" xMin="-140" yMin="-12" xMax="351" yMax="868">
      <contour>
        <pt x="169" y="107" on="1"/>
        <pt x="169" y="638" on="1"/>
        <pt x="138" y="640" on="1"/>
        <pt x="134" y="640" on="0"/>
        <pt x="130" y="640" on="1"/>
        <pt x="82" y="640" on="0"/>
        <pt x="14" y="594" on="0"/>
        <pt x="14" y="547" on="1"/>
        <pt x="14" y="528" on="0"/>
        <pt x="20" y="514" on="1"/>
        <pt x="12" y="508" on="1"/>
        <pt x="1" y="520" on="0"/>
        <pt x="1" y="579" on="0"/>
        <pt x="43" y="633" on="0"/>
        <pt x="76" y="642" on="1"/>
        <pt x="77" y="642" on="0"/>
        <pt x="99" y="645" on="1"/>
        <pt x="99" y="647" on="1"/>
        <pt x="76" y="646" on="1"/>
        <pt x="-20" y="658" on="0"/>
        <pt x="-140" y="743" on="0"/>
        <pt x="-140" y="823" on="1"/>
        <pt x="-128" y="824" on="1"/>
        <pt x="-128" y="778" on="0"/>
        <pt x="-82" y="711" on="0"/>
        <pt x="-42" y="692" on="1"/>
        <pt x="32" y="658" on="0"/>
        <pt x="138" y="652" on="1"/>
        <pt x="183" y="649" on="1"/>
        <pt x="183" y="107" on="1"/>
        <pt x="183" y="47" on="0"/>
        <pt x="139" y="-12" on="0"/>
        <pt x="86" y="-12" on="1"/>
        <pt x="59" y="-12" on="0"/>
        <pt x="41" y="-6" on="1"/>
        <pt x="43" y="4" on="1"/>
        <pt x="65" y="-1" on="0"/>
        <pt x="83" y="-1" on="1"/>
        <pt x="133" y="-1" on="0"/>
        <pt x="169" y="51" on="0"/>
      </contour>
      <contour>
        <pt x="209" y="107" on="1"/>
        <pt x="209" y="605" on="1"/>
        <pt x="209" y="665" on="0"/>
        <pt x="253" y="724" on="0"/>
        <pt x="306" y="724" on="1"/>
        <pt x="333" y="724" on="0"/>
        <pt x="351" y="718" on="1"/>
        <pt x="349" y="708" on="1"/>
        <pt x="327" y="713" on="0"/>
        <pt x="309" y="713" on="1"/>
        <pt x="259" y="713" on="0"/>
        <pt x="223" y="661" on="0"/>
        <pt x="223" y="605" on="1"/>
        <pt x="223" y="107" on="1"/>
        <pt x="223" y="51" on="0"/>
        <pt x="259" y="-1" on="0"/>
        <pt x="309" y="-1" on="1"/>
        <pt x="327" y="-1" on="0"/>
        <pt x="349" y="4" on="1"/>
        <pt x="351" y="-6" on="1"/>
        <pt x="333" y="-12" on="0"/>
        <pt x="306" y="-12" on="1"/>
        <pt x="253" y="-12" on="0"/>
        <pt x="209" y="47" on="0"/>
      </contour>
      <contour>
        <pt x="171" y="868" on="0"/>
        <pt x="181" y="868" on="0"/>
        <pt x="185" y="864" on="1"/>
        <pt x="303" y="740" on="1"/>
        <pt x="296" y="734" on="1"/>
        <pt x="176" y="846" on="1"/>
        <pt x="56" y="734" on="1"/>
        <pt x="49" y="740" on="1"/>
        <pt x="167" y="864" on="1"/>
      </contour>
    </TTGlyph>
    <TTGlyph name="Idieresis" xMin="-140" yMin="-12" xMax="351" yMax="824">
      <contour>
        <pt x="169" y="107" on="1"/>
        <pt x="169" y="638" on="1"/>
        <pt x="138" y="640" on="1"/>
        <pt x="134" y="640" on="0"/>
        <pt x="130" y="640" on="1"/>
        <pt x="82" y="640" on="0"/>
        <pt x="14" y="594" on="0"/>
        <pt x="14" y="547" on="1"/>
        <pt x="14" y="528" on="0"/>
        <pt x="20" y="514" on="1"/>
        <pt x="12" y="508" on="1"/>
        <pt x="1" y="520" on="0"/>
        <pt x="1" y="579" on="0"/>
        <pt x="43" y="633" on="0"/>
        <pt x="76" y="642" on="1"/>
        <pt x="77" y="642" on="0"/>
        <pt x="99" y="645" on="1"/>
        <pt x="99" y="647" on="1"/>
        <pt x="76" y="646" on="1"/>
        <pt x="-20" y="658" on="0"/>
        <pt x="-140" y="743" on="0"/>
        <pt x="-140" y="823" on="1"/>
        <pt x="-128" y="824" on="1"/>
        <pt x="-128" y="778" on="0"/>
        <pt x="-82" y="711" on="0"/>
        <pt x="-42" y="692" on="1"/>
        <pt x="32" y="658" on="0"/>
        <pt x="138" y="652" on="1"/>
        <pt x="183" y="649" on="1"/>
        <pt x="183" y="107" on="1"/>
        <pt x="183" y="47" on="0"/>
        <pt x="139" y="-12" on="0"/>
        <pt x="86" y="-12" on="1"/>
        <pt x="59" y="-12" on="0"/>
        <pt x="41" y="-6" on="1"/>
        <pt x="43" y="4" on="1"/>
        <pt x="65" y="-1" on="0"/>
        <pt x="83" y="-1" on="1"/>
        <pt x="133" y="-1" on="0"/>
        <pt x="169" y="51" on="0"/>
      </contour>
      <contour>
        <pt x="209" y="107" on="1"/>
        <pt x="209" y="605" on="1"/>
        <pt x="209" y="665" on="0"/>
        <pt x="253" y="724" on="0"/>
        <pt x="306" y="724" on="1"/>
        <pt x="333" y="724" on="0"/>
        <pt x="351" y="718" on="1"/>
        <pt x="349" y="708" on="1"/>
        <pt x="327" y="713" on="0"/>
        <pt x="309" y="713" on="1"/>
        <pt x="259" y="713" on="0"/>
        <pt x="223" y="661" on="0"/>
        <pt x="223" y="605" on="1"/>
        <pt x="223" y="107" on="1"/>
        <pt x="223" y="51" on="0"/>
        <pt x="259" y="-1" on="0"/>
        <pt x="309" y="-1" on="1"/>
        <pt x="327" y="-1" on="0"/>
        <pt x="349" y="4" on="1"/>
        <pt x="351" y="-6" on="1"/>
        <pt x="333" y="-12" on="0"/>
        <pt x="306" y="-12" on="1"/>
        <pt x="253" y="-12" on="0"/>
        <pt x="209" y="47" on="0"/>
      </contour>
      <contour>
        <pt x="121" y="800" on="1"/>
        <pt x="121" y="791" on="0"/>
        <pt x="109" y="777" on="0"/>
        <pt x="89" y="777" on="0"/>
        <pt x="77" y="791" on="0"/>
        <pt x="77" y="800" on="1"/>
        <pt x="77" y="822" on="0"/>
        <pt x="121" y="822" on="0"/>
      </contour>
      <contour>
        <pt x="277" y="800" on="1"/>
        <pt x="277" y="791" on="0"/>
        <pt x="265" y="777" on="0"/>
        <pt x="245" y="777" on="0"/>
        <pt x="233" y="791" on="0"/>
        <pt x="233" y="800" on="1"/>
        <pt x="233" y="822" on="0"/>
        <pt x="277" y="822" on="0"/>
      </contour>
    </TTGlyph>
    <TTGlyph name="Igrave" xMin="-140" yMin="-12" xMax="351" yMax="868">
      <contour>
        <pt x="169" y="107" on="1"/>
        <pt x="169" y="638" on="1"/>
        <pt x="138" y="640" on="1"/>
        <pt x="134" y="640" on="0"/>
        <pt x="130" y="640" on="1"/>
        <pt x="82" y="640" on="0"/>
        <pt x="14" y="594" on="0"/>
        <pt x="14" y="547" on="1"/>
        <pt x="14" y="528" on="0"/>
        <pt x="20" y="514" on="1"/>
        <pt x="12" y="508" on="1"/>
        <pt x="1" y="520" on="0"/>
        <pt x="1" y="579" on="0"/>
        <pt x="43" y="633" on="0"/>
        <pt x="76" y="642" on="1"/>
        <pt x="77" y="642" on="0"/>
        <pt x="99" y="645" on="1"/>
        <pt x="99" y="647" on="1"/>
        <pt x="76" y="646" on="1"/>
        <pt x="-20" y="658" on="0"/>
        <pt x="-140" y="743" on="0"/>
        <pt x="-140" y="823" on="1"/>
        <pt x="-128" y="824" on="1"/>
        <pt x="-128" y="778" on="0"/>
        <pt x="-82" y="711" on="0"/>
        <pt x="-42" y="692" on="1"/>
        <pt x="32" y="658" on="0"/>
        <pt x="138" y="652" on="1"/>
        <pt x="183" y="649" on="1"/>
        <pt x="183" y="107" on="1"/>
        <pt x="183" y="47" on="0"/>
        <pt x="139" y="-12" on="0"/>
        <pt x="86" y="-12" on="1"/>
        <pt x="59" y="-12" on="0"/>
        <pt x="41" y="-6" on="1"/>
        <pt x="43" y="4" on="1"/>
        <pt x="65" y="-1" on="0"/>
        <pt x="83" y="-1" on="1"/>
        <pt x="133" y="-1" on="0"/>
        <pt x="169" y="51" on="0"/>
      </contour>
      <contour>
        <pt x="209" y="107" on="1"/>
        <pt x="209" y="605" on="1"/>
        <pt x="209" y="665" on="0"/>
        <pt x="253" y="724" on="0"/>
        <pt x="306" y="724" on="1"/>
        <pt x="333" y="724" on="0"/>
        <pt x="351" y="718" on="1"/>
        <pt x="349" y="708" on="1"/>
        <pt x="327" y="713" on="0"/>
        <pt x="309" y="713" on="1"/>
        <pt x="259" y="713" on="0"/>
        <pt x="223" y="661" on="0"/>
        <pt x="223" y="605" on="1"/>
        <pt x="223" y="107" on="1"/>
        <pt x="223" y="51" on="0"/>
        <pt x="259" y="-1" on="0"/>
        <pt x="309" y="-1" on="1"/>
        <pt x="327" y="-1" on="0"/>
        <pt x="349" y="4" on="1"/>
        <pt x="351" y="-6" on="1"/>
        <pt x="333" y="-12" on="0"/>
        <pt x="306" y="-12" on="1"/>
        <pt x="253" y="-12" on="0"/>
        <pt x="209" y="47" on="0"/>
      </contour>
      <contour>
        <pt x="42" y="868" on="1"/>
        <pt x="45" y="868" on="0"/>
        <pt x="50" y="865" on="1"/>
        <pt x="221" y="742" on="1"/>
        <pt x="216" y="734" on="1"/>
        <pt x="31" y="854" on="1"/>
        <pt x="31" y="868" on="0"/>
      </contour>
    </TTGlyph>
    <TTGlyph name="Itilde" xMin="-140" yMin="-12" xMax="351" yMax="828">
      <contour>
        <pt x="169" y="107" on="1"/>
        <pt x="169" y="638" on="1"/>
        <pt x="138" y="640" on="1"/>
        <pt x="134" y="640" on="0"/>
        <pt x="130" y="640" on="1"/>
        <pt x="82" y="640" on="0"/>
        <pt x="14" y="594" on="0"/>
        <pt x="14" y="547" on="1"/>
        <pt x="14" y="528" on="0"/>
        <pt x="20" y="514" on="1"/>
        <pt x="12" y="508" on="1"/>
        <pt x="1" y="520" on="0"/>
        <pt x="1" y="579" on="0"/>
        <pt x="43" y="633" on="0"/>
        <pt x="76" y="642" on="1"/>
        <pt x="77" y="642" on="0"/>
        <pt x="99" y="645" on="1"/>
        <pt x="99" y="647" on="1"/>
        <pt x="76" y="646" on="1"/>
        <pt x="-20" y="658" on="0"/>
        <pt x="-140" y="743" on="0"/>
        <pt x="-140" y="823" on="1"/>
        <pt x="-128" y="824" on="1"/>
        <pt x="-128" y="778" on="0"/>
        <pt x="-82" y="711" on="0"/>
        <pt x="-42" y="692" on="1"/>
        <pt x="32" y="658" on="0"/>
        <pt x="138" y="652" on="1"/>
        <pt x="183" y="649" on="1"/>
        <pt x="183" y="107" on="1"/>
        <pt x="183" y="47" on="0"/>
        <pt x="139" y="-12" on="0"/>
        <pt x="86" y="-12" on="1"/>
        <pt x="59" y="-12" on="0"/>
        <pt x="41" y="-6" on="1"/>
        <pt x="43" y="4" on="1"/>
        <pt x="65" y="-1" on="0"/>
        <pt x="83" y="-1" on="1"/>
        <pt x="133" y="-1" on="0"/>
        <pt x="169" y="51" on="0"/>
      </contour>
      <contour>
        <pt x="209" y="107" on="1"/>
        <pt x="209" y="605" on="1"/>
        <pt x="209" y="665" on="0"/>
        <pt x="253" y="724" on="0"/>
        <pt x="306" y="724" on="1"/>
        <pt x="333" y="724" on="0"/>
        <pt x="351" y="718" on="1"/>
        <pt x="349" y="708" on="1"/>
        <pt x="327" y="713" on="0"/>
        <pt x="309" y="713" on="1"/>
        <pt x="259" y="713" on="0"/>
        <pt x="223" y="661" on="0"/>
        <pt x="223" y="605" on="1"/>
        <pt x="223" y="107" on="1"/>
        <pt x="223" y="51" on="0"/>
        <pt x="259" y="-1" on="0"/>
        <pt x="309" y="-1" on="1"/>
        <pt x="327" y="-1" on="0"/>
        <pt x="349" y="4" on="1"/>
        <pt x="351" y="-6" on="1"/>
        <pt x="333" y="-12" on="0"/>
        <pt x="306" y="-12" on="1"/>
        <pt x="253" y="-12" on="0"/>
        <pt x="209" y="47" on="0"/>
      </contour>
      <contour>
        <pt x="49" y="776" on="1"/>
        <pt x="40" y="782" on="1"/>
        <pt x="68" y="817" on="0"/>
        <pt x="97" y="828" on="1"/>
        <pt x="125" y="828" on="0"/>
        <pt x="227" y="783" on="0"/>
        <pt x="254" y="782" on="1"/>
        <pt x="283" y="796" on="0"/>
        <pt x="304" y="822" on="1"/>
        <pt x="313" y="816" on="1"/>
        <pt x="285" y="781" on="0"/>
        <pt x="256" y="770" on="1"/>
        <pt x="228" y="770" on="0"/>
        <pt x="126" y="815" on="0"/>
        <pt x="99" y="816" on="1"/>
        <pt x="70" y="802" on="0"/>
      </contour>
    </TTGlyph>
    <TTGlyph name="J" xMin="-140" yMin="-184" xMax="398" yMax="826">
      <contour>
        <pt x="140" y="480" on="1"/>
        <pt x="196" y="480" on="0"/>
        <pt x="214" y="436" on="1"/>
        <pt x="220" y="414" on="1"/>
        <pt x="222" y="415" on="1"/>
        <pt x="217" y="437" on="1"/>
        <pt x="216" y="638" on="1"/>
        <pt x="138" y="642" on="1"/>
        <pt x="134" y="642" on="0"/>
        <pt x="130" y="642" on="1"/>
        <pt x="82" y="642" on="0"/>
        <pt x="14" y="596" on="0"/>
        <pt x="14" y="549" on="1"/>
        <pt x="14" y="530" on="0"/>
        <pt x="20" y="516" on="1"/>
        <pt x="12" y="510" on="1"/>
        <pt x="1" y="522" on="0"/>
        <pt x="1" y="581" on="0"/>
        <pt x="43" y="635" on="0"/>
        <pt x="76" y="644" on="1"/>
        <pt x="77" y="644" on="0"/>
        <pt x="99" y="647" on="1"/>
        <pt x="99" y="649" on="1"/>
        <pt x="76" y="648" on="1"/>
        <pt x="-20" y="660" on="0"/>
        <pt x="-140" y="745" on="0"/>
        <pt x="-140" y="825" on="1"/>
        <pt x="-128" y="826" on="1"/>
        <pt x="-128" y="780" on="0"/>
        <pt x="-82" y="713" on="0"/>
        <pt x="-42" y="694" on="1"/>
        <pt x="32" y="660" on="0"/>
        <pt x="138" y="654" on="1"/>
        <pt x="230" y="649" on="1"/>
        <pt x="230" y="185" on="1"/>
        <pt x="230" y="46" on="0"/>
        <pt x="138" y="-126" on="0"/>
        <pt x="22" y="-184" on="1"/>
        <pt x="16" y="-174" on="1"/>
        <pt x="127" y="-119" on="0"/>
        <pt x="216" y="50" on="0"/>
        <pt x="216" y="185" on="1"/>
        <pt x="216" y="377" on="1"/>
        <pt x="216" y="469" on="0"/>
        <pt x="137" y="469" on="1"/>
        <pt x="114" y="469" on="0"/>
        <pt x="97" y="460" on="1"/>
        <pt x="92" y="468" on="1"/>
        <pt x="112" y="480" on="0"/>
      </contour>
      <contour>
        <pt x="256" y="107" on="1"/>
        <pt x="256" y="605" on="1"/>
        <pt x="256" y="665" on="0"/>
        <pt x="300" y="724" on="0"/>
        <pt x="353" y="724" on="1"/>
        <pt x="380" y="724" on="0"/>
        <pt x="398" y="718" on="1"/>
        <pt x="396" y="708" on="1"/>
        <pt x="374" y="713" on="0"/>
        <pt x="356" y="713" on="1"/>
        <pt x="306" y="713" on="0"/>
        <pt x="270" y="661" on="0"/>
        <pt x="270" y="605" on="1"/>
        <pt x="270" y="107" on="1"/>
        <pt x="270" y="51" on="0"/>
        <pt x="306" y="-1" on="0"/>
        <pt x="356" y="-1" on="1"/>
        <pt x="374" y="-1" on="0"/>
        <pt x="396" y="4" on="1"/>
        <pt x="398" y="-6" on="1"/>
        <pt x="380" y="-12" on="0"/>
        <pt x="353" y="-12" on="1"/>
        <pt x="300" y="-12" on="0"/>
        <pt x="256" y="47" on="0"/>
      </contour>
    </TTGlyph>
    <TTGlyph name="Jcircumflex" xMin="-140" yMin="-184" xMax="398" yMax="868">
      <contour>
        <pt x="140" y="480" on="1"/>
        <pt x="196" y="480" on="0"/>
        <pt x="214" y="436" on="1"/>
        <pt x="220" y="414" on="1"/>
        <pt x="222" y="415" on="1"/>
        <pt x="217" y="437" on="1"/>
        <pt x="216" y="638" on="1"/>
        <pt x="138" y="642" on="1"/>
        <pt x="134" y="642" on="0"/>
        <pt x="130" y="642" on="1"/>
        <pt x="82" y="642" on="0"/>
        <pt x="14" y="596" on="0"/>
        <pt x="14" y="549" on="1"/>
        <pt x="14" y="530" on="0"/>
        <pt x="20" y="516" on="1"/>
        <pt x="12" y="510" on="1"/>
        <pt x="1" y="522" on="0"/>
        <pt x="1" y="581" on="0"/>
        <pt x="43" y="635" on="0"/>
        <pt x="76" y="644" on="1"/>
        <pt x="77" y="644" on="0"/>
        <pt x="99" y="647" on="1"/>
        <pt x="99" y="649" on="1"/>
        <pt x="76" y="648" on="1"/>
        <pt x="-20" y="660" on="0"/>
        <pt x="-140" y="745" on="0"/>
        <pt x="-140" y="825" on="1"/>
        <pt x="-128" y="826" on="1"/>
        <pt x="-128" y="780" on="0"/>
        <pt x="-82" y="713" on="0"/>
        <pt x="-42" y="694" on="1"/>
        <pt x="32" y="660" on="0"/>
        <pt x="138" y="654" on="1"/>
        <pt x="230" y="649" on="1"/>
        <pt x="230" y="185" on="1"/>
        <pt x="230" y="46" on="0"/>
        <pt x="138" y="-126" on="0"/>
        <pt x="22" y="-184" on="1"/>
        <pt x="16" y="-174" on="1"/>
        <pt x="127" y="-119" on="0"/>
        <pt x="216" y="50" on="0"/>
        <pt x="216" y="185" on="1"/>
        <pt x="216" y="377" on="1"/>
        <pt x="216" y="469" on="0"/>
        <pt x="137" y="469" on="1"/>
        <pt x="114" y="469" on="0"/>
        <pt x="97" y="460" on="1"/>
        <pt x="92" y="468" on="1"/>
        <pt x="112" y="480" on="0"/>
      </contour>
      <contour>
        <pt x="256" y="107" on="1"/>
        <pt x="256" y="605" on="1"/>
        <pt x="256" y="665" on="0"/>
        <pt x="300" y="724" on="0"/>
        <pt x="353" y="724" on="1"/>
        <pt x="380" y="724" on="0"/>
        <pt x="398" y="718" on="1"/>
        <pt x="396" y="708" on="1"/>
        <pt x="374" y="713" on="0"/>
        <pt x="356" y="713" on="1"/>
        <pt x="306" y="713" on="0"/>
        <pt x="270" y="661" on="0"/>
        <pt x="270" y="605" on="1"/>
        <pt x="270" y="107" on="1"/>
        <pt x="270" y="51" on="0"/>
        <pt x="306" y="-1" on="0"/>
        <pt x="356" y="-1" on="1"/>
        <pt x="374" y="-1" on="0"/>
        <pt x="396" y="4" on="1"/>
        <pt x="398" y="-6" on="1"/>
        <pt x="380" y="-12" on="0"/>
        <pt x="353" y="-12" on="1"/>
        <pt x="300" y="-12" on="0"/>
        <pt x="256" y="47" on="0"/>
      </contour>
      <contour>
        <pt x="219" y="868" on="0"/>
        <pt x="229" y="868" on="0"/>
        <pt x="233" y="864" on="1"/>
        <pt x="351" y="740" on="1"/>
        <pt x="344" y="734" on="1"/>
        <pt x="224" y="846" on="1"/>
        <pt x="104" y="734" on="1"/>
        <pt x="97" y="740" on="1"/>
        <pt x="215" y="864" on="1"/>
      </contour>
    </TTGlyph>
    <TTGlyph name="K" xMin="7" yMin="-166" xMax="760" yMax="664">
      <contour>
        <pt x="645" y="649" on="1"/>
        <pt x="627" y="652" on="0"/>
        <pt x="594" y="652" on="0"/>
        <pt x="559" y="641" on="0"/>
        <pt x="533" y="628" on="0"/>
        <pt x="504" y="596" on="0"/>
        <pt x="487" y="576" on="0"/>
        <pt x="461" y="529" on="0"/>
        <pt x="450" y="508" on="0"/>
        <pt x="436" y="480" on="1"/>
        <pt x="365" y="335" on="0"/>
        <pt x="335" y="302" on="1"/>
        <pt x="350" y="280" on="0"/>
        <pt x="371" y="240" on="1"/>
        <pt x="438" y="108" on="1"/>
        <pt x="479" y="29" on="0"/>
        <pt x="530" y="-53" on="0"/>
        <pt x="605" y="-127" on="0"/>
        <pt x="695" y="-155" on="0"/>
        <pt x="760" y="-155" on="1"/>
        <pt x="760" y="-166" on="1"/>
        <pt x="694" y="-166" on="0"/>
        <pt x="603" y="-140" on="0"/>
        <pt x="525" y="-69" on="0"/>
        <pt x="467" y="21" on="0"/>
        <pt x="426" y="102" on="1"/>
        <pt x="359" y="234" on="1"/>
        <pt x="334" y="280" on="0"/>
        <pt x="326" y="293" on="1"/>
        <pt x="298" y="267" on="0"/>
        <pt x="242" y="267" on="0"/>
        <pt x="206" y="297" on="0"/>
        <pt x="206" y="338" on="0"/>
        <pt x="233" y="362" on="0"/>
        <pt x="252" y="362" on="1"/>
        <pt x="293" y="362" on="0"/>
        <pt x="329" y="312" on="1"/>
        <pt x="345" y="330" on="0"/>
        <pt x="372" y="381" on="0"/>
        <pt x="400" y="438" on="0"/>
        <pt x="411" y="458" on="0"/>
        <pt x="438" y="514" on="0"/>
        <pt x="451" y="538" on="0"/>
        <pt x="478" y="585" on="0"/>
        <pt x="496" y="607" on="0"/>
        <pt x="527" y="639" on="0"/>
        <pt x="541" y="646" on="1"/>
        <pt x="577" y="664" on="0"/>
        <pt x="631" y="664" on="0"/>
        <pt x="647" y="660" on="1"/>
      </contour>
      <contour>
        <pt x="220" y="303" on="0"/>
        <pt x="248" y="279" on="0"/>
        <pt x="294" y="279" on="0"/>
        <pt x="320" y="303" on="1"/>
        <pt x="287" y="350" on="0"/>
        <pt x="252" y="350" on="1"/>
        <pt x="238" y="350" on="0"/>
        <pt x="220" y="333" on="0"/>
      </contour>
      <contour>
        <pt x="135" y="107" on="1"/>
        <pt x="135" y="544" on="1"/>
        <pt x="135" y="600" on="0"/>
        <pt x="99" y="652" on="0"/>
        <pt x="49" y="652" on="1"/>
        <pt x="31" y="652" on="0"/>
        <pt x="9" y="647" on="1"/>
        <pt x="7" y="657" on="1"/>
        <pt x="25" y="663" on="0"/>
        <pt x="52" y="663" on="1"/>
        <pt x="105" y="663" on="0"/>
        <pt x="149" y="604" on="0"/>
        <pt x="149" y="544" on="1"/>
        <pt x="149" y="107" on="1"/>
        <pt x="149" y="47" on="0"/>
        <pt x="105" y="-12" on="0"/>
        <pt x="52" y="-12" on="1"/>
        <pt x="25" y="-12" on="0"/>
        <pt x="7" y="-6" on="1"/>
        <pt x="9" y="4" on="1"/>
        <pt x="31" y="-1" on="0"/>
        <pt x="49" y="-1" on="1"/>
        <pt x="99" y="-1" on="0"/>
        <pt x="135" y="51" on="0"/>
      </contour>
      <contour>
        <pt x="189" y="544" on="1"/>
        <pt x="189" y="107" on="1"/>
        <pt x="189" y="51" on="0"/>
        <pt x="225" y="-1" on="0"/>
        <pt x="275" y="-1" on="1"/>
        <pt x="293" y="-1" on="0"/>
        <pt x="315" y="4" on="1"/>
        <pt x="317" y="-6" on="1"/>
        <pt x="299" y="-12" on="0"/>
        <pt x="272" y="-12" on="1"/>
        <pt x="219" y="-12" on="0"/>
        <pt x="175" y="47" on="0"/>
        <pt x="175" y="107" on="1"/>
        <pt x="175" y="544" on="1"/>
        <pt x="175" y="604" on="0"/>
        <pt x="219" y="663" on="0"/>
        <pt x="272" y="663" on="1"/>
        <pt x="299" y="663" on="0"/>
        <pt x="317" y="657" on="1"/>
        <pt x="315" y="647" on="1"/>
        <pt x="293" y="652" on="0"/>
        <pt x="275" y="652" on="1"/>
        <pt x="225" y="652" on="0"/>
        <pt x="189" y="600" on="0"/>
      </contour>
    </TTGlyph>
    <TTGlyph name="L" xMin="-140" yMin="-13" xMax="514" yMax="824">
      <contour>
        <pt x="169" y="107" on="1"/>
        <pt x="169" y="638" on="1"/>
        <pt x="138" y="640" on="1"/>
        <pt x="134" y="640" on="0"/>
        <pt x="130" y="640" on="1"/>
        <pt x="82" y="640" on="0"/>
        <pt x="14" y="594" on="0"/>
        <pt x="14" y="547" on="1"/>
        <pt x="14" y="528" on="0"/>
        <pt x="20" y="514" on="1"/>
        <pt x="12" y="508" on="1"/>
        <pt x="1" y="520" on="0"/>
        <pt x="1" y="579" on="0"/>
        <pt x="43" y="633" on="0"/>
        <pt x="76" y="642" on="1"/>
        <pt x="77" y="642" on="0"/>
        <pt x="99" y="645" on="1"/>
        <pt x="99" y="647" on="1"/>
        <pt x="76" y="646" on="1"/>
        <pt x="-20" y="658" on="0"/>
        <pt x="-140" y="743" on="0"/>
        <pt x="-140" y="823" on="1"/>
        <pt x="-128" y="824" on="1"/>
        <pt x="-128" y="778" on="0"/>
        <pt x="-82" y="711" on="0"/>
        <pt x="-42" y="692" on="1"/>
        <pt x="32" y="658" on="0"/>
        <pt x="138" y="652" on="1"/>
        <pt x="183" y="649" on="1"/>
        <pt x="183" y="107" on="1"/>
        <pt x="183" y="47" on="0"/>
        <pt x="139" y="-12" on="0"/>
        <pt x="86" y="-12" on="1"/>
        <pt x="59" y="-12" on="0"/>
        <pt x="41" y="-6" on="1"/>
        <pt x="43" y="4" on="1"/>
        <pt x="65" y="-1" on="0"/>
        <pt x="83" y="-1" on="1"/>
        <pt x="133" y="-1" on="0"/>
        <pt x="169" y="51" on="0"/>
      </contour>
      <contour>
        <pt x="223" y="605" on="1"/>
        <pt x="223" y="42" on="1"/>
        <pt x="307" y="-1" on="0"/>
        <pt x="446" y="-1" on="0"/>
        <pt x="501" y="43" on="0"/>
        <pt x="501" y="99" on="1"/>
        <pt x="501" y="117" on="0"/>
        <pt x="496" y="132" on="1"/>
        <pt x="507" y="137" on="1"/>
        <pt x="514" y="120" on="0"/>
        <pt x="514" y="99" on="1"/>
        <pt x="514" y="39" on="0"/>
        <pt x="452" y="-13" on="0"/>
        <pt x="388" y="-13" on="1"/>
        <pt x="295" y="-13" on="0"/>
        <pt x="209" y="34" on="1"/>
        <pt x="209" y="605" on="1"/>
        <pt x="209" y="665" on="0"/>
        <pt x="253" y="724" on="0"/>
        <pt x="306" y="724" on="1"/>
        <pt x="333" y="724" on="0"/>
        <pt x="351" y="718" on="1"/>
        <pt x="349" y="708" on="1"/>
        <pt x="327" y="713" on="0"/>
        <pt x="309" y="713" on="1"/>
        <pt x="259" y="713" on="0"/>
        <pt x="223" y="661" on="0"/>
      </contour>
    </TTGlyph>
    <TTGlyph name="Ldotaccent" xMin="-140" yMin="-13" xMax="514" yMax="824">
      <contour>
        <pt x="169" y="107" on="1"/>
        <pt x="169" y="638" on="1"/>
        <pt x="138" y="640" on="1"/>
        <pt x="134" y="640" on="0"/>
        <pt x="130" y="640" on="1"/>
        <pt x="82" y="640" on="0"/>
        <pt x="14" y="594" on="0"/>
        <pt x="14" y="547" on="1"/>
        <pt x="14" y="528" on="0"/>
        <pt x="20" y="514" on="1"/>
        <pt x="12" y="508" on="1"/>
        <pt x="1" y="520" on="0"/>
        <pt x="1" y="579" on="0"/>
        <pt x="43" y="633" on="0"/>
        <pt x="76" y="642" on="1"/>
        <pt x="77" y="642" on="0"/>
        <pt x="99" y="645" on="1"/>
        <pt x="99" y="647" on="1"/>
        <pt x="76" y="646" on="1"/>
        <pt x="-20" y="658" on="0"/>
        <pt x="-140" y="743" on="0"/>
        <pt x="-140" y="823" on="1"/>
        <pt x="-128" y="824" on="1"/>
        <pt x="-128" y="778" on="0"/>
        <pt x="-82" y="711" on="0"/>
        <pt x="-42" y="692" on="1"/>
        <pt x="32" y="658" on="0"/>
        <pt x="138" y="652" on="1"/>
        <pt x="183" y="649" on="1"/>
        <pt x="183" y="107" on="1"/>
        <pt x="183" y="47" on="0"/>
        <pt x="139" y="-12" on="0"/>
        <pt x="86" y="-12" on="1"/>
        <pt x="59" y="-12" on="0"/>
        <pt x="41" y="-6" on="1"/>
        <pt x="43" y="4" on="1"/>
        <pt x="65" y="-1" on="0"/>
        <pt x="83" y="-1" on="1"/>
        <pt x="133" y="-1" on="0"/>
        <pt x="169" y="51" on="0"/>
      </contour>
      <contour>
        <pt x="223" y="605" on="1"/>
        <pt x="223" y="42" on="1"/>
        <pt x="307" y="-1" on="0"/>
        <pt x="446" y="-1" on="0"/>
        <pt x="501" y="43" on="0"/>
        <pt x="501" y="99" on="1"/>
        <pt x="501" y="117" on="0"/>
        <pt x="496" y="132" on="1"/>
        <pt x="507" y="137" on="1"/>
        <pt x="514" y="120" on="0"/>
        <pt x="514" y="99" on="1"/>
        <pt x="514" y="39" on="0"/>
        <pt x="452" y="-13" on="0"/>
        <pt x="388" y="-13" on="1"/>
        <pt x="295" y="-13" on="0"/>
        <pt x="209" y="34" on="1"/>
        <pt x="209" y="605" on="1"/>
        <pt x="209" y="665" on="0"/>
        <pt x="253" y="724" on="0"/>
        <pt x="306" y="724" on="1"/>
        <pt x="333" y="724" on="0"/>
        <pt x="351" y="718" on="1"/>
        <pt x="349" y="708" on="1"/>
        <pt x="327" y="713" on="0"/>
        <pt x="309" y="713" on="1"/>
        <pt x="259" y="713" on="0"/>
        <pt x="223" y="661" on="0"/>
      </contour>
      <contour>
        <pt x="384" y="368" on="1"/>
        <pt x="384" y="359" on="0"/>
        <pt x="372" y="345" on="0"/>
        <pt x="352" y="345" on="0"/>
        <pt x="340" y="359" on="0"/>
        <pt x="340" y="368" on="1"/>
        <pt x="340" y="390" on="0"/>
        <pt x="384" y="390" on="0"/>
      </contour>
    </TTGlyph>
    <TTGlyph name="Lslash" xMin="-140" yMin="-13" xMax="514" yMax="824">
      <contour>
        <pt x="169" y="107" on="1"/>
        <pt x="169" y="349" on="1"/>
        <pt x="65" y="297" on="1"/>
        <pt x="63" y="308" on="1"/>
        <pt x="169" y="362" on="1"/>
        <pt x="169" y="638" on="1"/>
        <pt x="138" y="640" on="1"/>
        <pt x="134" y="640" on="0"/>
        <pt x="130" y="640" on="1"/>
        <pt x="82" y="640" on="0"/>
        <pt x="14" y="594" on="0"/>
        <pt x="14" y="547" on="1"/>
        <pt x="14" y="528" on="0"/>
        <pt x="20" y="514" on="1"/>
        <pt x="12" y="508" on="1"/>
        <pt x="1" y="520" on="0"/>
        <pt x="1" y="579" on="0"/>
        <pt x="43" y="633" on="0"/>
        <pt x="76" y="642" on="1"/>
        <pt x="77" y="642" on="0"/>
        <pt x="99" y="645" on="1"/>
        <pt x="99" y="647" on="1"/>
        <pt x="76" y="646" on="1"/>
        <pt x="-20" y="658" on="0"/>
        <pt x="-140" y="743" on="0"/>
        <pt x="-140" y="823" on="1"/>
        <pt x="-128" y="824" on="1"/>
        <pt x="-128" y="778" on="0"/>
        <pt x="-82" y="711" on="0"/>
        <pt x="-42" y="692" on="1"/>
        <pt x="32" y="658" on="0"/>
        <pt x="138" y="652" on="1"/>
        <pt x="183" y="649" on="1"/>
        <pt x="183" y="107" on="1"/>
        <pt x="183" y="47" on="0"/>
        <pt x="139" y="-12" on="0"/>
        <pt x="86" y="-12" on="1"/>
        <pt x="59" y="-12" on="0"/>
        <pt x="41" y="-6" on="1"/>
        <pt x="43" y="4" on="1"/>
        <pt x="65" y="-1" on="0"/>
        <pt x="83" y="-1" on="1"/>
        <pt x="133" y="-1" on="0"/>
        <pt x="169" y="51" on="0"/>
      </contour>
      <contour>
        <pt x="223" y="605" on="1"/>
        <pt x="223" y="389" on="1"/>
        <pt x="378" y="470" on="1"/>
        <pt x="385" y="461" on="1"/>
        <pt x="223" y="377" on="1"/>
        <pt x="223" y="42" on="1"/>
        <pt x="307" y="-1" on="0"/>
        <pt x="446" y="-1" on="0"/>
        <pt x="501" y="43" on="0"/>
        <pt x="501" y="99" on="1"/>
        <pt x="501" y="117" on="0"/>
        <pt x="496" y="132" on="1"/>
        <pt x="507" y="137" on="1"/>
        <pt x="514" y="120" on="0"/>
        <pt x="514" y="99" on="1"/>
        <pt x="514" y="39" on="0"/>
        <pt x="452" y="-13" on="0"/>
        <pt x="388" y="-13" on="1"/>
        <pt x="295" y="-13" on="0"/>
        <pt x="209" y="34" on="1"/>
        <pt x="209" y="605" on="1"/>
        <pt x="209" y="665" on="0"/>
        <pt x="253" y="724" on="0"/>
        <pt x="306" y="724" on="1"/>
        <pt x="333" y="724" on="0"/>
        <pt x="351" y="718" on="1"/>
        <pt x="349" y="708" on="1"/>
        <pt x="327" y="713" on="0"/>
        <pt x="309" y="713" on="1"/>
        <pt x="259" y="713" on="0"/>
        <pt x="223" y="661" on="0"/>
      </contour>
    </TTGlyph>
    <TTGlyph name="M" xMin="33" yMin="-160" xMax="950" yMax="829">
      <contour>
        <pt x="66" y="179" on="1"/>
        <pt x="47" y="148" on="0"/>
        <pt x="47" y="59" on="0"/>
        <pt x="103" y="-1" on="0"/>
        <pt x="177" y="-1" on="0"/>
        <pt x="221" y="26" on="0"/>
        <pt x="236" y="53" on="1"/>
        <pt x="258" y="95" on="0"/>
        <pt x="273" y="168" on="1"/>
        <pt x="291" y="254" on="1"/>
        <pt x="114" y="254" on="0"/>
      </contour>
      <contour>
        <pt x="782" y="107" on="1"/>
        <pt x="782" y="47" on="0"/>
        <pt x="738" y="-12" on="0"/>
        <pt x="685" y="-12" on="1"/>
        <pt x="658" y="-12" on="0"/>
        <pt x="640" y="-6" on="1"/>
        <pt x="642" y="4" on="1"/>
        <pt x="664" y="-1" on="0"/>
        <pt x="682" y="-1" on="1"/>
        <pt x="732" y="-1" on="0"/>
        <pt x="768" y="51" on="0"/>
        <pt x="768" y="107" on="1"/>
        <pt x="768" y="603" on="1"/>
        <pt x="768" y="608" on="0"/>
        <pt x="771" y="626" on="1"/>
        <pt x="769" y="626" on="1"/>
        <pt x="768" y="624" on="0"/>
        <pt x="764" y="605" on="0"/>
        <pt x="762" y="600" on="1"/>
        <pt x="699" y="441" on="1"/>
        <pt x="526" y="26" on="1"/>
        <pt x="509" y="23" on="1"/>
        <pt x="512" y="36" on="0"/>
        <pt x="512" y="56" on="1"/>
        <pt x="512" y="148" on="0"/>
        <pt x="454" y="329" on="1"/>
        <pt x="423" y="426" on="1"/>
        <pt x="386" y="543" on="0"/>
        <pt x="376" y="592" on="1"/>
        <pt x="270" y="85" on="1"/>
        <pt x="246" y="-22" on="0"/>
        <pt x="206" y="-86" on="1"/>
        <pt x="158" y="-160" on="0"/>
        <pt x="62" y="-160" on="1"/>
        <pt x="62" y="-148" on="1"/>
        <pt x="137" y="-148" on="0"/>
        <pt x="221" y="-47" on="0"/>
        <pt x="246" y="41" on="1"/>
        <pt x="256" y="62" on="1"/>
        <pt x="254" y="63" on="1"/>
        <pt x="220" y="-13" on="0"/>
        <pt x="146" y="-13" on="1"/>
        <pt x="97" y="-13" on="0"/>
        <pt x="33" y="53" on="0"/>
        <pt x="33" y="103" on="1"/>
        <pt x="33" y="266" on="0"/>
        <pt x="294" y="266" on="1"/>
        <pt x="373" y="643" on="1"/>
        <pt x="335" y="645" on="1"/>
        <pt x="329" y="645" on="0"/>
        <pt x="323" y="645" on="1"/>
        <pt x="271" y="645" on="0"/>
        <pt x="204" y="594" on="0"/>
        <pt x="204" y="552" on="1"/>
        <pt x="204" y="532" on="0"/>
        <pt x="210" y="519" on="1"/>
        <pt x="202" y="513" on="1"/>
        <pt x="191" y="525" on="0"/>
        <pt x="191" y="584" on="0"/>
        <pt x="233" y="637" on="0"/>
        <pt x="266" y="646" on="1"/>
        <pt x="275" y="648" on="0"/>
        <pt x="289" y="650" on="1"/>
        <pt x="289" y="652" on="1"/>
        <pt x="266" y="651" on="1"/>
        <pt x="170" y="663" on="0"/>
        <pt x="50" y="748" on="0"/>
        <pt x="50" y="828" on="1"/>
        <pt x="62" y="829" on="1"/>
        <pt x="62" y="783" on="0"/>
        <pt x="108" y="716" on="0"/>
        <pt x="148" y="697" on="1"/>
        <pt x="224" y="661" on="0"/>
        <pt x="328" y="657" on="1"/>
        <pt x="386" y="654" on="1"/>
        <pt x="386" y="634" on="1"/>
        <pt x="386" y="592" on="0"/>
        <pt x="437" y="430" on="1"/>
        <pt x="468" y="333" on="1"/>
        <pt x="525" y="155" on="0"/>
        <pt x="525" y="59" on="1"/>
        <pt x="525" y="55" on="1"/>
        <pt x="536" y="81" on="1"/>
        <pt x="542" y="95" on="0"/>
        <pt x="542" y="126" on="1"/>
        <pt x="542" y="206" on="0"/>
        <pt x="481" y="397" on="1"/>
        <pt x="450" y="494" on="1"/>
        <pt x="403" y="634" on="0"/>
        <pt x="407" y="653" on="1"/>
        <pt x="420" y="653" on="1"/>
        <pt x="420" y="637" on="0"/>
        <pt x="464" y="498" on="1"/>
        <pt x="495" y="401" on="1"/>
        <pt x="554" y="216" on="0"/>
        <pt x="554" y="130" on="1"/>
        <pt x="554" y="126" on="1"/>
        <pt x="687" y="445" on="1"/>
        <pt x="756" y="615" on="0"/>
        <pt x="770" y="662" on="1"/>
        <pt x="782" y="661" on="1"/>
      </contour>
      <contour>
        <pt x="808" y="107" on="1"/>
        <pt x="808" y="637" on="1"/>
        <pt x="808" y="697" on="0"/>
        <pt x="852" y="756" on="0"/>
        <pt x="905" y="756" on="1"/>
        <pt x="932" y="756" on="0"/>
        <pt x="950" y="750" on="1"/>
        <pt x="948" y="740" on="1"/>
        <pt x="926" y="745" on="0"/>
        <pt x="908" y="745" on="1"/>
        <pt x="858" y="745" on="0"/>
        <pt x="822" y="693" on="0"/>
        <pt x="822" y="637" on="1"/>
        <pt x="822" y="107" on="1"/>
        <pt x="822" y="51" on="0"/>
        <pt x="858" y="-1" on="0"/>
        <pt x="908" y="-1" on="1"/>
        <pt x="926" y="-1" on="0"/>
        <pt x="948" y="4" on="1"/>
        <pt x="950" y="-6" on="1"/>
        <pt x="932" y="-12" on="0"/>
        <pt x="905" y="-12" on="1"/>
        <pt x="852" y="-12" on="0"/>
        <pt x="808" y="47" on="0"/>
      </contour>
    </TTGlyph>
    <TTGlyph name="N" xMin="27" yMin="-11" xMax="694" yMax="664">
      <contour>
        <pt x="169" y="601" on="1"/>
        <pt x="127" y="653" on="0"/>
        <pt x="76" y="653" on="1"/>
        <pt x="51" y="653" on="0"/>
        <pt x="29" y="648" on="1"/>
        <pt x="27" y="658" on="1"/>
        <pt x="45" y="664" on="0"/>
        <pt x="72" y="664" on="1"/>
        <pt x="133" y="664" on="0"/>
        <pt x="178" y="610" on="1"/>
        <pt x="465" y="257" on="1"/>
        <pt x="531" y="175" on="0"/>
        <pt x="552" y="109" on="1"/>
        <pt x="552" y="545" on="1"/>
        <pt x="552" y="603" on="0"/>
        <pt x="515" y="653" on="0"/>
        <pt x="466" y="653" on="1"/>
        <pt x="448" y="653" on="0"/>
        <pt x="426" y="648" on="1"/>
        <pt x="424" y="658" on="1"/>
        <pt x="442" y="664" on="0"/>
        <pt x="469" y="664" on="1"/>
        <pt x="547" y="664" on="0"/>
        <pt x="559" y="598" on="1"/>
        <pt x="572" y="664" on="0"/>
        <pt x="649" y="664" on="1"/>
        <pt x="676" y="664" on="0"/>
        <pt x="694" y="658" on="1"/>
        <pt x="692" y="648" on="1"/>
        <pt x="670" y="653" on="0"/>
        <pt x="652" y="653" on="1"/>
        <pt x="602" y="653" on="0"/>
        <pt x="566" y="601" on="0"/>
        <pt x="566" y="545" on="1"/>
        <pt x="566" y="1" on="1"/>
        <pt x="549" y="-2" on="1"/>
        <pt x="514" y="102" on="0"/>
        <pt x="446" y="186" on="1"/>
        <pt x="174" y="523" on="1"/>
        <pt x="166" y="543" on="1"/>
        <pt x="164" y="543" on="1"/>
        <pt x="169" y="528" on="0"/>
        <pt x="169" y="520" on="1"/>
        <pt x="169" y="108" on="1"/>
        <pt x="169" y="50" on="0"/>
        <pt x="206" y="0" on="0"/>
        <pt x="255" y="0" on="1"/>
        <pt x="273" y="0" on="0"/>
        <pt x="295" y="5" on="1"/>
        <pt x="297" y="-5" on="1"/>
        <pt x="279" y="-11" on="0"/>
        <pt x="252" y="-11" on="1"/>
        <pt x="174" y="-11" on="0"/>
        <pt x="162" y="55" on="1"/>
        <pt x="149" y="-11" on="0"/>
        <pt x="72" y="-11" on="1"/>
        <pt x="45" y="-11" on="0"/>
        <pt x="27" y="-5" on="1"/>
        <pt x="29" y="5" on="1"/>
        <pt x="51" y="0" on="0"/>
        <pt x="69" y="0" on="1"/>
        <pt x="119" y="0" on="0"/>
        <pt x="155" y="52" on="0"/>
        <pt x="155" y="108" on="1"/>
        <pt x="155" y="564" on="1"/>
        <pt x="158" y="565" on="1"/>
        <pt x="455" y="196" on="1"/>
        <pt x="522" y="114" on="0"/>
        <pt x="552" y="25" on="1"/>
        <pt x="552" y="62" on="1"/>
        <pt x="545" y="137" on="0"/>
        <pt x="455" y="248" on="1"/>
      </contour>
    </TTGlyph>
    <TTGlyph name="Nacute" xMin="27" yMin="-11" xMax="694" yMax="853">
      <contour>
        <pt x="169" y="601" on="1"/>
        <pt x="127" y="653" on="0"/>
        <pt x="76" y="653" on="1"/>
        <pt x="51" y="653" on="0"/>
        <pt x="29" y="648" on="1"/>
        <pt x="27" y="658" on="1"/>
        <pt x="45" y="664" on="0"/>
        <pt x="72" y="664" on="1"/>
        <pt x="133" y="664" on="0"/>
        <pt x="178" y="610" on="1"/>
        <pt x="465" y="257" on="1"/>
        <pt x="531" y="175" on="0"/>
        <pt x="552" y="109" on="1"/>
        <pt x="552" y="545" on="1"/>
        <pt x="552" y="603" on="0"/>
        <pt x="515" y="653" on="0"/>
        <pt x="466" y="653" on="1"/>
        <pt x="448" y="653" on="0"/>
        <pt x="426" y="648" on="1"/>
        <pt x="424" y="658" on="1"/>
        <pt x="442" y="664" on="0"/>
        <pt x="469" y="664" on="1"/>
        <pt x="547" y="664" on="0"/>
        <pt x="559" y="598" on="1"/>
        <pt x="572" y="664" on="0"/>
        <pt x="649" y="664" on="1"/>
        <pt x="676" y="664" on="0"/>
        <pt x="694" y="658" on="1"/>
        <pt x="692" y="648" on="1"/>
        <pt x="670" y="653" on="0"/>
        <pt x="652" y="653" on="1"/>
        <pt x="602" y="653" on="0"/>
        <pt x="566" y="601" on="0"/>
        <pt x="566" y="545" on="1"/>
        <pt x="566" y="1" on="1"/>
        <pt x="549" y="-2" on="1"/>
        <pt x="514" y="102" on="0"/>
        <pt x="446" y="186" on="1"/>
        <pt x="174" y="523" on="1"/>
        <pt x="166" y="543" on="1"/>
        <pt x="164" y="543" on="1"/>
        <pt x="169" y="528" on="0"/>
        <pt x="169" y="520" on="1"/>
        <pt x="169" y="108" on="1"/>
        <pt x="169" y="50" on="0"/>
        <pt x="206" y="0" on="0"/>
        <pt x="255" y="0" on="1"/>
        <pt x="273" y="0" on="0"/>
        <pt x="295" y="5" on="1"/>
        <pt x="297" y="-5" on="1"/>
        <pt x="279" y="-11" on="0"/>
        <pt x="252" y="-11" on="1"/>
        <pt x="174" y="-11" on="0"/>
        <pt x="162" y="55" on="1"/>
        <pt x="149" y="-11" on="0"/>
        <pt x="72" y="-11" on="1"/>
        <pt x="45" y="-11" on="0"/>
        <pt x="27" y="-5" on="1"/>
        <pt x="29" y="5" on="1"/>
        <pt x="51" y="0" on="0"/>
        <pt x="69" y="0" on="1"/>
        <pt x="119" y="0" on="0"/>
        <pt x="155" y="52" on="0"/>
        <pt x="155" y="108" on="1"/>
        <pt x="155" y="564" on="1"/>
        <pt x="158" y="565" on="1"/>
        <pt x="455" y="196" on="1"/>
        <pt x="522" y="114" on="0"/>
        <pt x="552" y="25" on="1"/>
        <pt x="552" y="62" on="1"/>
        <pt x="545" y="137" on="0"/>
        <pt x="455" y="248" on="1"/>
      </contour>
      <contour>
        <pt x="495" y="853" on="1"/>
        <pt x="506" y="853" on="0"/>
        <pt x="506" y="839" on="1"/>
        <pt x="321" y="719" on="1"/>
        <pt x="316" y="727" on="1"/>
        <pt x="487" y="850" on="1"/>
        <pt x="491" y="853" on="0"/>
      </contour>
    </TTGlyph>
    <TTGlyph name="Ntilde" xMin="27" yMin="-11" xMax="694" yMax="828">
      <contour>
        <pt x="169" y="601" on="1"/>
        <pt x="127" y="653" on="0"/>
        <pt x="76" y="653" on="1"/>
        <pt x="51" y="653" on="0"/>
        <pt x="29" y="648" on="1"/>
        <pt x="27" y="658" on="1"/>
        <pt x="45" y="664" on="0"/>
        <pt x="72" y="664" on="1"/>
        <pt x="133" y="664" on="0"/>
        <pt x="178" y="610" on="1"/>
        <pt x="465" y="257" on="1"/>
        <pt x="531" y="175" on="0"/>
        <pt x="552" y="109" on="1"/>
        <pt x="552" y="545" on="1"/>
        <pt x="552" y="603" on="0"/>
        <pt x="515" y="653" on="0"/>
        <pt x="466" y="653" on="1"/>
        <pt x="448" y="653" on="0"/>
        <pt x="426" y="648" on="1"/>
        <pt x="424" y="658" on="1"/>
        <pt x="442" y="664" on="0"/>
        <pt x="469" y="664" on="1"/>
        <pt x="547" y="664" on="0"/>
        <pt x="559" y="598" on="1"/>
        <pt x="572" y="664" on="0"/>
        <pt x="649" y="664" on="1"/>
        <pt x="676" y="664" on="0"/>
        <pt x="694" y="658" on="1"/>
        <pt x="692" y="648" on="1"/>
        <pt x="670" y="653" on="0"/>
        <pt x="652" y="653" on="1"/>
        <pt x="602" y="653" on="0"/>
        <pt x="566" y="601" on="0"/>
        <pt x="566" y="545" on="1"/>
        <pt x="566" y="1" on="1"/>
        <pt x="549" y="-2" on="1"/>
        <pt x="514" y="102" on="0"/>
        <pt x="446" y="186" on="1"/>
        <pt x="174" y="523" on="1"/>
        <pt x="166" y="543" on="1"/>
        <pt x="164" y="543" on="1"/>
        <pt x="169" y="528" on="0"/>
        <pt x="169" y="520" on="1"/>
        <pt x="169" y="108" on="1"/>
        <pt x="169" y="50" on="0"/>
        <pt x="206" y="0" on="0"/>
        <pt x="255" y="0" on="1"/>
        <pt x="273" y="0" on="0"/>
        <pt x="295" y="5" on="1"/>
        <pt x="297" y="-5" on="1"/>
        <pt x="279" y="-11" on="0"/>
        <pt x="252" y="-11" on="1"/>
        <pt x="174" y="-11" on="0"/>
        <pt x="162" y="55" on="1"/>
        <pt x="149" y="-11" on="0"/>
        <pt x="72" y="-11" on="1"/>
        <pt x="45" y="-11" on="0"/>
        <pt x="27" y="-5" on="1"/>
        <pt x="29" y="5" on="1"/>
        <pt x="51" y="0" on="0"/>
        <pt x="69" y="0" on="1"/>
        <pt x="119" y="0" on="0"/>
        <pt x="155" y="52" on="0"/>
        <pt x="155" y="108" on="1"/>
        <pt x="155" y="564" on="1"/>
        <pt x="158" y="565" on="1"/>
        <pt x="455" y="196" on="1"/>
        <pt x="522" y="114" on="0"/>
        <pt x="552" y="25" on="1"/>
        <pt x="552" y="62" on="1"/>
        <pt x="545" y="137" on="0"/>
        <pt x="455" y="248" on="1"/>
      </contour>
      <contour>
        <pt x="234" y="776" on="1"/>
        <pt x="225" y="782" on="1"/>
        <pt x="253" y="817" on="0"/>
        <pt x="282" y="828" on="1"/>
        <pt x="310" y="828" on="0"/>
        <pt x="412" y="783" on="0"/>
        <pt x="439" y="782" on="1"/>
        <pt x="468" y="796" on="0"/>
        <pt x="489" y="822" on="1"/>
        <pt x="498" y="816" on="1"/>
        <pt x="470" y="781" on="0"/>
        <pt x="441" y="770" on="1"/>
        <pt x="413" y="770" on="0"/>
        <pt x="311" y="815" on="0"/>
        <pt x="284" y="816" on="1"/>
        <pt x="255" y="802" on="0"/>
      </contour>
    </TTGlyph>
    <TTGlyph name="O" xMin="71" yMin="-15" xMax="544" yMax="666">
      <contour>
        <pt x="71" y="327" on="1"/>
        <pt x="71" y="505" on="0"/>
        <pt x="185" y="644" on="1"/>
        <pt x="195" y="637" on="1"/>
        <pt x="85" y="504" on="0"/>
        <pt x="85" y="327" on="1"/>
        <pt x="85" y="82" on="0"/>
        <pt x="230" y="18" on="1"/>
        <pt x="230" y="410" on="1"/>
        <pt x="185" y="458" on="0"/>
        <pt x="185" y="590" on="0"/>
        <pt x="264" y="666" on="0"/>
        <pt x="385" y="666" on="0"/>
        <pt x="473" y="613" on="0"/>
        <pt x="498" y="566" on="1"/>
        <pt x="544" y="475" on="0"/>
        <pt x="544" y="341" on="1"/>
        <pt x="544" y="136" on="0"/>
        <pt x="432" y="-5" on="1"/>
        <pt x="383" y="-15" on="0"/>
        <pt x="302" y="-15" on="0"/>
        <pt x="270" y="-8" on="1"/>
        <pt x="270" y="379" on="1"/>
        <pt x="257" y="385" on="0"/>
        <pt x="244" y="397" on="1"/>
        <pt x="244" y="-1" on="1"/>
        <pt x="71" y="56" on="0"/>
      </contour>
      <contour>
        <pt x="338" y="362" on="1"/>
        <pt x="311" y="362" on="0"/>
        <pt x="284" y="372" on="1"/>
        <pt x="284" y="1" on="1"/>
        <pt x="320" y="-3" on="0"/>
        <pt x="384" y="-3" on="0"/>
        <pt x="424" y="5" on="1"/>
        <pt x="474" y="71" on="0"/>
        <pt x="530" y="247" on="0"/>
        <pt x="530" y="404" on="0"/>
        <pt x="509" y="510" on="0"/>
        <pt x="464" y="602" on="0"/>
        <pt x="382" y="654" on="0"/>
        <pt x="269" y="654" on="0"/>
        <pt x="199" y="586" on="0"/>
        <pt x="199" y="466" on="0"/>
        <pt x="278" y="374" on="0"/>
        <pt x="338" y="374" on="1"/>
        <pt x="380" y="374" on="0"/>
        <pt x="431" y="424" on="0"/>
        <pt x="431" y="466" on="1"/>
        <pt x="445" y="466" on="1"/>
        <pt x="445" y="420" on="0"/>
        <pt x="385" y="362" on="0"/>
      </contour>
    </TTGlyph>
    <TTGlyph name="OE" xMin="71" yMin="-15" xMax="876" yMax="828">
      <contour>
        <pt x="341" y="-15" on="1"/>
        <pt x="200" y="-15" on="0"/>
        <pt x="71" y="168" on="0"/>
        <pt x="71" y="505" on="0"/>
        <pt x="185" y="644" on="1"/>
        <pt x="195" y="637" on="1"/>
        <pt x="85" y="504" on="0"/>
        <pt x="85" y="327" on="1"/>
        <pt x="85" y="228" on="0"/>
        <pt x="133" y="86" on="0"/>
        <pt x="250" y="-3" on="0"/>
        <pt x="341" y="-3" on="1"/>
        <pt x="393" y="-3" on="0"/>
        <pt x="431" y="47" on="0"/>
        <pt x="431" y="104" on="1"/>
        <pt x="431" y="621" on="1"/>
        <pt x="387" y="654" on="0"/>
        <pt x="269" y="654" on="0"/>
        <pt x="199" y="586" on="0"/>
        <pt x="199" y="530" on="1"/>
        <pt x="199" y="497" on="0"/>
        <pt x="233" y="452" on="0"/>
        <pt x="291" y="452" on="0"/>
        <pt x="324" y="486" on="0"/>
        <pt x="324" y="514" on="1"/>
        <pt x="324" y="524" on="0"/>
        <pt x="321" y="534" on="1"/>
        <pt x="332" y="538" on="1"/>
        <pt x="337" y="526" on="0"/>
        <pt x="337" y="514" on="1"/>
        <pt x="337" y="481" on="0"/>
        <pt x="297" y="440" on="0"/>
        <pt x="228" y="440" on="0"/>
        <pt x="185" y="491" on="0"/>
        <pt x="185" y="530" on="1"/>
        <pt x="185" y="590" on="0"/>
        <pt x="264" y="666" on="0"/>
        <pt x="392" y="666" on="0"/>
        <pt x="439" y="633" on="1"/>
        <pt x="439" y="632" on="1"/>
        <pt x="444" y="630" on="1"/>
        <pt x="445" y="622" on="0"/>
        <pt x="445" y="605" on="1"/>
        <pt x="445" y="104" on="1"/>
        <pt x="445" y="42" on="0"/>
        <pt x="399" y="-15" on="0"/>
      </contour>
      <contour>
        <pt x="485" y="328" on="1"/>
        <pt x="485" y="38" on="1"/>
        <pt x="561" y="-1" on="0"/>
        <pt x="688" y="-1" on="0"/>
        <pt x="743" y="43" on="0"/>
        <pt x="743" y="99" on="1"/>
        <pt x="743" y="117" on="0"/>
        <pt x="738" y="132" on="1"/>
        <pt x="749" y="137" on="1"/>
        <pt x="756" y="120" on="0"/>
        <pt x="756" y="99" on="1"/>
        <pt x="756" y="39" on="0"/>
        <pt x="694" y="-13" on="0"/>
        <pt x="554" y="-13" on="0"/>
        <pt x="471" y="30" on="1"/>
        <pt x="471" y="648" on="1"/>
        <pt x="598" y="656" on="1"/>
        <pt x="702" y="660" on="0"/>
        <pt x="778" y="696" on="1"/>
        <pt x="818" y="715" on="0"/>
        <pt x="864" y="782" on="0"/>
        <pt x="864" y="828" on="1"/>
        <pt x="876" y="827" on="1"/>
        <pt x="876" y="747" on="0"/>
        <pt x="756" y="662" on="0"/>
        <pt x="660" y="650" on="1"/>
        <pt x="653" y="650" on="0"/>
        <pt x="637" y="651" on="1"/>
        <pt x="637" y="649" on="1"/>
        <pt x="651" y="647" on="0"/>
        <pt x="660" y="645" on="1"/>
        <pt x="693" y="636" on="0"/>
        <pt x="735" y="583" on="0"/>
        <pt x="735" y="524" on="0"/>
        <pt x="724" y="512" on="1"/>
        <pt x="716" y="518" on="1"/>
        <pt x="722" y="531" on="0"/>
        <pt x="722" y="551" on="1"/>
        <pt x="722" y="593" on="0"/>
        <pt x="655" y="644" on="0"/>
        <pt x="603" y="644" on="1"/>
        <pt x="597" y="644" on="0"/>
        <pt x="591" y="644" on="1"/>
        <pt x="485" y="637" on="1"/>
        <pt x="485" y="340" on="1"/>
        <pt x="589" y="340" on="1"/>
        <pt x="661" y="340" on="0"/>
        <pt x="661" y="381" on="1"/>
        <pt x="661" y="392" on="0"/>
        <pt x="656" y="402" on="1"/>
        <pt x="666" y="407" on="1"/>
        <pt x="674" y="397" on="0"/>
        <pt x="674" y="362" on="0"/>
        <pt x="647" y="336" on="0"/>
        <pt x="628" y="333" on="1"/>
        <pt x="667" y="320" on="0"/>
        <pt x="675" y="259" on="1"/>
        <pt x="663" y="256" on="1"/>
        <pt x="656" y="295" on="0"/>
        <pt x="624" y="328" on="0"/>
        <pt x="588" y="328" on="1"/>
      </contour>
    </TTGlyph>
    <TTGlyph name="Oacute" xMin="71" yMin="-15" xMax="544" yMax="852">
      <contour>
        <pt x="71" y="327" on="1"/>
        <pt x="71" y="505" on="0"/>
        <pt x="185" y="644" on="1"/>
        <pt x="195" y="637" on="1"/>
        <pt x="85" y="504" on="0"/>
        <pt x="85" y="327" on="1"/>
        <pt x="85" y="82" on="0"/>
        <pt x="230" y="18" on="1"/>
        <pt x="230" y="410" on="1"/>
        <pt x="185" y="458" on="0"/>
        <pt x="185" y="590" on="0"/>
        <pt x="264" y="666" on="0"/>
        <pt x="385" y="666" on="0"/>
        <pt x="473" y="613" on="0"/>
        <pt x="498" y="566" on="1"/>
        <pt x="544" y="475" on="0"/>
        <pt x="544" y="341" on="1"/>
        <pt x="544" y="136" on="0"/>
        <pt x="432" y="-5" on="1"/>
        <pt x="383" y="-15" on="0"/>
        <pt x="302" y="-15" on="0"/>
        <pt x="270" y="-8" on="1"/>
        <pt x="270" y="379" on="1"/>
        <pt x="257" y="385" on="0"/>
        <pt x="244" y="397" on="1"/>
        <pt x="244" y="-1" on="1"/>
        <pt x="71" y="56" on="0"/>
      </contour>
      <contour>
        <pt x="338" y="362" on="1"/>
        <pt x="311" y="362" on="0"/>
        <pt x="284" y="372" on="1"/>
        <pt x="284" y="1" on="1"/>
        <pt x="320" y="-3" on="0"/>
        <pt x="384" y="-3" on="0"/>
        <pt x="424" y="5" on="1"/>
        <pt x="474" y="71" on="0"/>
        <pt x="530" y="247" on="0"/>
        <pt x="530" y="404" on="0"/>
        <pt x="509" y="510" on="0"/>
        <pt x="464" y="602" on="0"/>
        <pt x="382" y="654" on="0"/>
        <pt x="269" y="654" on="0"/>
        <pt x="199" y="586" on="0"/>
        <pt x="199" y="466" on="0"/>
        <pt x="278" y="374" on="0"/>
        <pt x="338" y="374" on="1"/>
        <pt x="380" y="374" on="0"/>
        <pt x="431" y="424" on="0"/>
        <pt x="431" y="466" on="1"/>
        <pt x="445" y="466" on="1"/>
        <pt x="445" y="420" on="0"/>
        <pt x="385" y="362" on="0"/>
      </contour>
      <contour>
        <pt x="459" y="852" on="1"/>
        <pt x="470" y="852" on="0"/>
        <pt x="470" y="838" on="1"/>
        <pt x="285" y="718" on="1"/>
        <pt x="280" y="726" on="1"/>
        <pt x="451" y="849" on="1"/>
        <pt x="455" y="852" on="0"/>
      </contour>
    </TTGlyph>
    <TTGlyph name="Ocircumflex" xMin="71" yMin="-15" xMax="544" yMax="867">
      <contour>
        <pt x="71" y="327" on="1"/>
        <pt x="71" y="505" on="0"/>
        <pt x="185" y="644" on="1"/>
        <pt x="195" y="637" on="1"/>
        <pt x="85" y="504" on="0"/>
        <pt x="85" y="327" on="1"/>
        <pt x="85" y="82" on="0"/>
        <pt x="230" y="18" on="1"/>
        <pt x="230" y="410" on="1"/>
        <pt x="185" y="458" on="0"/>
        <pt x="185" y="590" on="0"/>
        <pt x="264" y="666" on="0"/>
        <pt x="385" y="666" on="0"/>
        <pt x="473" y="613" on="0"/>
        <pt x="498" y="566" on="1"/>
        <pt x="544" y="475" on="0"/>
        <pt x="544" y="341" on="1"/>
        <pt x="544" y="136" on="0"/>
        <pt x="432" y="-5" on="1"/>
        <pt x="383" y="-15" on="0"/>
        <pt x="302" y="-15" on="0"/>
        <pt x="270" y="-8" on="1"/>
        <pt x="270" y="379" on="1"/>
        <pt x="257" y="385" on="0"/>
        <pt x="244" y="397" on="1"/>
        <pt x="244" y="-1" on="1"/>
        <pt x="71" y="56" on="0"/>
      </contour>
      <contour>
        <pt x="338" y="362" on="1"/>
        <pt x="311" y="362" on="0"/>
        <pt x="284" y="372" on="1"/>
        <pt x="284" y="1" on="1"/>
        <pt x="320" y="-3" on="0"/>
        <pt x="384" y="-3" on="0"/>
        <pt x="424" y="5" on="1"/>
        <pt x="474" y="71" on="0"/>
        <pt x="530" y="247" on="0"/>
        <pt x="530" y="404" on="0"/>
        <pt x="509" y="510" on="0"/>
        <pt x="464" y="602" on="0"/>
        <pt x="382" y="654" on="0"/>
        <pt x="269" y="654" on="0"/>
        <pt x="199" y="586" on="0"/>
        <pt x="199" y="466" on="0"/>
        <pt x="278" y="374" on="0"/>
        <pt x="338" y="374" on="1"/>
        <pt x="380" y="374" on="0"/>
        <pt x="431" y="424" on="0"/>
        <pt x="431" y="466" on="1"/>
        <pt x="445" y="466" on="1"/>
        <pt x="445" y="420" on="0"/>
        <pt x="385" y="362" on="0"/>
      </contour>
      <contour>
        <pt x="320" y="867" on="0"/>
        <pt x="330" y="867" on="0"/>
        <pt x="334" y="863" on="1"/>
        <pt x="452" y="739" on="1"/>
        <pt x="445" y="733" on="1"/>
        <pt x="325" y="845" on="1"/>
        <pt x="205" y="733" on="1"/>
        <pt x="198" y="739" on="1"/>
        <pt x="316" y="863" on="1"/>
      </contour>
    </TTGlyph>
    <TTGlyph name="Odieresis" xMin="71" yMin="-15" xMax="544" yMax="821">
      <contour>
        <pt x="71" y="327" on="1"/>
        <pt x="71" y="505" on="0"/>
        <pt x="185" y="644" on="1"/>
        <pt x="195" y="637" on="1"/>
        <pt x="85" y="504" on="0"/>
        <pt x="85" y="327" on="1"/>
        <pt x="85" y="82" on="0"/>
        <pt x="230" y="18" on="1"/>
        <pt x="230" y="410" on="1"/>
        <pt x="185" y="458" on="0"/>
        <pt x="185" y="590" on="0"/>
        <pt x="264" y="666" on="0"/>
        <pt x="385" y="666" on="0"/>
        <pt x="473" y="613" on="0"/>
        <pt x="498" y="566" on="1"/>
        <pt x="544" y="475" on="0"/>
        <pt x="544" y="341" on="1"/>
        <pt x="544" y="136" on="0"/>
        <pt x="432" y="-5" on="1"/>
        <pt x="383" y="-15" on="0"/>
        <pt x="302" y="-15" on="0"/>
        <pt x="270" y="-8" on="1"/>
        <pt x="270" y="379" on="1"/>
        <pt x="257" y="385" on="0"/>
        <pt x="244" y="397" on="1"/>
        <pt x="244" y="-1" on="1"/>
        <pt x="71" y="56" on="0"/>
      </contour>
      <contour>
        <pt x="338" y="362" on="1"/>
        <pt x="311" y="362" on="0"/>
        <pt x="284" y="372" on="1"/>
        <pt x="284" y="1" on="1"/>
        <pt x="320" y="-3" on="0"/>
        <pt x="384" y="-3" on="0"/>
        <pt x="424" y="5" on="1"/>
        <pt x="474" y="71" on="0"/>
        <pt x="530" y="247" on="0"/>
        <pt x="530" y="404" on="0"/>
        <pt x="509" y="510" on="0"/>
        <pt x="464" y="602" on="0"/>
        <pt x="382" y="654" on="0"/>
        <pt x="269" y="654" on="0"/>
        <pt x="199" y="586" on="0"/>
        <pt x="199" y="466" on="0"/>
        <pt x="278" y="374" on="0"/>
        <pt x="338" y="374" on="1"/>
        <pt x="380" y="374" on="0"/>
        <pt x="431" y="424" on="0"/>
        <pt x="431" y="466" on="1"/>
        <pt x="445" y="466" on="1"/>
        <pt x="445" y="420" on="0"/>
        <pt x="385" y="362" on="0"/>
      </contour>
      <contour>
        <pt x="270" y="799" on="1"/>
        <pt x="270" y="790" on="0"/>
        <pt x="258" y="776" on="0"/>
        <pt x="238" y="776" on="0"/>
        <pt x="226" y="790" on="0"/>
        <pt x="226" y="799" on="1"/>
        <pt x="226" y="821" on="0"/>
        <pt x="270" y="821" on="0"/>
      </contour>
      <contour>
        <pt x="426" y="799" on="1"/>
        <pt x="426" y="790" on="0"/>
        <pt x="414" y="776" on="0"/>
        <pt x="394" y="776" on="0"/>
        <pt x="382" y="790" on="0"/>
        <pt x="382" y="799" on="1"/>
        <pt x="382" y="821" on="0"/>
        <pt x="426" y="821" on="0"/>
      </contour>
    </TTGlyph>
    <TTGlyph name="Ograve" xMin="71" yMin="-15" xMax="544" yMax="867">
      <contour>
        <pt x="71" y="327" on="1"/>
        <pt x="71" y="505" on="0"/>
        <pt x="185" y="644" on="1"/>
        <pt x="195" y="637" on="1"/>
        <pt x="85" y="504" on="0"/>
        <pt x="85" y="327" on="1"/>
        <pt x="85" y="82" on="0"/>
        <pt x="230" y="18" on="1"/>
        <pt x="230" y="410" on="1"/>
        <pt x="185" y="458" on="0"/>
        <pt x="185" y="590" on="0"/>
        <pt x="264" y="666" on="0"/>
        <pt x="385" y="666" on="0"/>
        <pt x="473" y="613" on="0"/>
        <pt x="498" y="566" on="1"/>
        <pt x="544" y="475" on="0"/>
        <pt x="544" y="341" on="1"/>
        <pt x="544" y="136" on="0"/>
        <pt x="432" y="-5" on="1"/>
        <pt x="383" y="-15" on="0"/>
        <pt x="302" y="-15" on="0"/>
        <pt x="270" y="-8" on="1"/>
        <pt x="270" y="379" on="1"/>
        <pt x="257" y="385" on="0"/>
        <pt x="244" y="397" on="1"/>
        <pt x="244" y="-1" on="1"/>
        <pt x="71" y="56" on="0"/>
      </contour>
      <contour>
        <pt x="338" y="362" on="1"/>
        <pt x="311" y="362" on="0"/>
        <pt x="284" y="372" on="1"/>
        <pt x="284" y="1" on="1"/>
        <pt x="320" y="-3" on="0"/>
        <pt x="384" y="-3" on="0"/>
        <pt x="424" y="5" on="1"/>
        <pt x="474" y="71" on="0"/>
        <pt x="530" y="247" on="0"/>
        <pt x="530" y="404" on="0"/>
        <pt x="509" y="510" on="0"/>
        <pt x="464" y="602" on="0"/>
        <pt x="382" y="654" on="0"/>
        <pt x="269" y="654" on="0"/>
        <pt x="199" y="586" on="0"/>
        <pt x="199" y="466" on="0"/>
        <pt x="278" y="374" on="0"/>
        <pt x="338" y="374" on="1"/>
        <pt x="380" y="374" on="0"/>
        <pt x="431" y="424" on="0"/>
        <pt x="431" y="466" on="1"/>
        <pt x="445" y="466" on="1"/>
        <pt x="445" y="420" on="0"/>
        <pt x="385" y="362" on="0"/>
      </contour>
      <contour>
        <pt x="191" y="867" on="1"/>
        <pt x="194" y="867" on="0"/>
        <pt x="199" y="864" on="1"/>
        <pt x="370" y="741" on="1"/>
        <pt x="365" y="733" on="1"/>
        <pt x="180" y="853" on="1"/>
        <pt x="180" y="867" on="0"/>
      </contour>
    </TTGlyph>
    <TTGlyph name="Oslash" xMin="71" yMin="-84" xMax="544" yMax="735">
      <contour>
        <pt x="427" y="635" on="1"/>
        <pt x="465" y="735" on="1"/>
        <pt x="450" y="733" on="1"/>
        <pt x="415" y="641" on="1"/>
      </contour>
      <contour>
        <pt x="188" y="37" on="1"/>
        <pt x="198" y="28" on="1"/>
        <pt x="156" y="-84" on="1"/>
        <pt x="144" y="-79" on="1"/>
      </contour>
      <contour>
        <pt x="71" y="327" on="1"/>
        <pt x="71" y="505" on="0"/>
        <pt x="185" y="644" on="1"/>
        <pt x="195" y="637" on="1"/>
        <pt x="85" y="504" on="0"/>
        <pt x="85" y="327" on="1"/>
        <pt x="85" y="82" on="0"/>
        <pt x="230" y="18" on="1"/>
        <pt x="230" y="410" on="1"/>
        <pt x="185" y="458" on="0"/>
        <pt x="185" y="590" on="0"/>
        <pt x="264" y="666" on="0"/>
        <pt x="385" y="666" on="0"/>
        <pt x="473" y="613" on="0"/>
        <pt x="498" y="566" on="1"/>
        <pt x="544" y="475" on="0"/>
        <pt x="544" y="341" on="1"/>
        <pt x="544" y="136" on="0"/>
        <pt x="432" y="-5" on="1"/>
        <pt x="383" y="-15" on="0"/>
        <pt x="302" y="-15" on="0"/>
        <pt x="270" y="-8" on="1"/>
        <pt x="270" y="379" on="1"/>
        <pt x="257" y="385" on="0"/>
        <pt x="244" y="397" on="1"/>
        <pt x="244" y="-1" on="1"/>
        <pt x="71" y="56" on="0"/>
      </contour>
      <contour>
        <pt x="338" y="362" on="1"/>
        <pt x="311" y="362" on="0"/>
        <pt x="284" y="372" on="1"/>
        <pt x="284" y="1" on="1"/>
        <pt x="320" y="-3" on="0"/>
        <pt x="384" y="-3" on="0"/>
        <pt x="424" y="5" on="1"/>
        <pt x="474" y="71" on="0"/>
        <pt x="530" y="247" on="0"/>
        <pt x="530" y="404" on="0"/>
        <pt x="509" y="510" on="0"/>
        <pt x="464" y="602" on="0"/>
        <pt x="382" y="654" on="0"/>
        <pt x="269" y="654" on="0"/>
        <pt x="199" y="586" on="0"/>
        <pt x="199" y="466" on="0"/>
        <pt x="278" y="374" on="0"/>
        <pt x="338" y="374" on="1"/>
        <pt x="380" y="374" on="0"/>
        <pt x="431" y="424" on="0"/>
        <pt x="431" y="466" on="1"/>
        <pt x="445" y="466" on="1"/>
        <pt x="445" y="420" on="0"/>
        <pt x="385" y="362" on="0"/>
      </contour>
    </TTGlyph>
    <TTGlyph name="Otilde" xMin="71" yMin="-15" xMax="544" yMax="828">
      <contour>
        <pt x="71" y="327" on="1"/>
        <pt x="71" y="505" on="0"/>
        <pt x="185" y="644" on="1"/>
        <pt x="195" y="637" on="1"/>
        <pt x="85" y="504" on="0"/>
        <pt x="85" y="327" on="1"/>
        <pt x="85" y="82" on="0"/>
        <pt x="230" y="18" on="1"/>
        <pt x="230" y="410" on="1"/>
        <pt x="185" y="458" on="0"/>
        <pt x="185" y="590" on="0"/>
        <pt x="264" y="666" on="0"/>
        <pt x="385" y="666" on="0"/>
        <pt x="473" y="613" on="0"/>
        <pt x="498" y="566" on="1"/>
        <pt x="544" y="475" on="0"/>
        <pt x="544" y="341" on="1"/>
        <pt x="544" y="136" on="0"/>
        <pt x="432" y="-5" on="1"/>
        <pt x="383" y="-15" on="0"/>
        <pt x="302" y="-15" on="0"/>
        <pt x="270" y="-8" on="1"/>
        <pt x="270" y="379" on="1"/>
        <pt x="257" y="385" on="0"/>
        <pt x="244" y="397" on="1"/>
        <pt x="244" y="-1" on="1"/>
        <pt x="71" y="56" on="0"/>
      </contour>
      <contour>
        <pt x="338" y="362" on="1"/>
        <pt x="311" y="362" on="0"/>
        <pt x="284" y="372" on="1"/>
        <pt x="284" y="1" on="1"/>
        <pt x="320" y="-3" on="0"/>
        <pt x="384" y="-3" on="0"/>
        <pt x="424" y="5" on="1"/>
        <pt x="474" y="71" on="0"/>
        <pt x="530" y="247" on="0"/>
        <pt x="530" y="404" on="0"/>
        <pt x="509" y="510" on="0"/>
        <pt x="464" y="602" on="0"/>
        <pt x="382" y="654" on="0"/>
        <pt x="269" y="654" on="0"/>
        <pt x="199" y="586" on="0"/>
        <pt x="199" y="466" on="0"/>
        <pt x="278" y="374" on="0"/>
        <pt x="338" y="374" on="1"/>
        <pt x="380" y="374" on="0"/>
        <pt x="431" y="424" on="0"/>
        <pt x="431" y="466" on="1"/>
        <pt x="445" y="466" on="1"/>
        <pt x="445" y="420" on="0"/>
        <pt x="385" y="362" on="0"/>
      </contour>
      <contour>
        <pt x="180" y="776" on="1"/>
        <pt x="171" y="782" on="1"/>
        <pt x="199" y="817" on="0"/>
        <pt x="228" y="828" on="1"/>
        <pt x="256" y="828" on="0"/>
        <pt x="358" y="783" on="0"/>
        <pt x="385" y="782" on="1"/>
        <pt x="414" y="796" on="0"/>
        <pt x="435" y="822" on="1"/>
        <pt x="444" y="816" on="1"/>
        <pt x="416" y="781" on="0"/>
        <pt x="387" y="770" on="1"/>
        <pt x="359" y="770" on="0"/>
        <pt x="257" y="815" on="0"/>
        <pt x="230" y="816" on="1"/>
        <pt x="201" y="802" on="0"/>
      </contour>
    </TTGlyph>
    <TTGlyph name="P" xMin="-140" yMin="-12" xMax="557" yMax="794">
      <contour>
        <pt x="196" y="107" on="1"/>
        <pt x="196" y="47" on="0"/>
        <pt x="152" y="-12" on="0"/>
        <pt x="99" y="-12" on="1"/>
        <pt x="72" y="-12" on="0"/>
        <pt x="54" y="-6" on="1"/>
        <pt x="56" y="4" on="1"/>
        <pt x="78" y="-1" on="0"/>
        <pt x="96" y="-1" on="1"/>
        <pt x="146" y="-1" on="0"/>
        <pt x="182" y="51" on="0"/>
        <pt x="182" y="107" on="1"/>
        <pt x="182" y="640" on="1"/>
        <pt x="126" y="636" on="0"/>
        <pt x="100" y="625" on="1"/>
        <pt x="41" y="600" on="0"/>
        <pt x="41" y="544" on="1"/>
        <pt x="41" y="520" on="0"/>
        <pt x="51" y="501" on="1"/>
        <pt x="43" y="495" on="1"/>
        <pt x="28" y="512" on="0"/>
        <pt x="28" y="543" on="1"/>
        <pt x="28" y="609" on="0"/>
        <pt x="94" y="633" on="1"/>
        <pt x="106" y="637" on="0"/>
        <pt x="116" y="640" on="1"/>
        <pt x="116" y="642" on="1"/>
        <pt x="93" y="638" on="1"/>
        <pt x="-3" y="640" on="0"/>
        <pt x="-132" y="713" on="0"/>
        <pt x="-140" y="792" on="1"/>
        <pt x="-128" y="794" on="1"/>
        <pt x="-112" y="650" on="0"/>
        <pt x="120" y="650" on="1"/>
        <pt x="152" y="650" on="0"/>
        <pt x="196" y="653" on="1"/>
      </contour>
      <contour>
        <pt x="222" y="107" on="1"/>
        <pt x="222" y="655" on="1"/>
        <pt x="336" y="663" on="0"/>
        <pt x="374" y="663" on="1"/>
        <pt x="468" y="663" on="0"/>
        <pt x="557" y="594" on="0"/>
        <pt x="557" y="427" on="0"/>
        <pt x="455" y="323" on="0"/>
        <pt x="296" y="323" on="0"/>
        <pt x="296" y="379" on="1"/>
        <pt x="296" y="402" on="0"/>
        <pt x="329" y="431" on="0"/>
        <pt x="353" y="433" on="1"/>
        <pt x="355" y="423" on="1"/>
        <pt x="335" y="421" on="0"/>
        <pt x="310" y="398" on="0"/>
        <pt x="310" y="379" on="1"/>
        <pt x="310" y="334" on="0"/>
        <pt x="450" y="334" on="0"/>
        <pt x="543" y="432" on="0"/>
        <pt x="543" y="588" on="0"/>
        <pt x="461" y="651" on="0"/>
        <pt x="375" y="651" on="1"/>
        <pt x="350" y="651" on="0"/>
        <pt x="236" y="644" on="1"/>
        <pt x="236" y="107" on="1"/>
        <pt x="236" y="51" on="0"/>
        <pt x="272" y="-1" on="0"/>
        <pt x="322" y="-1" on="1"/>
        <pt x="340" y="-1" on="0"/>
        <pt x="362" y="4" on="1"/>
        <pt x="364" y="-6" on="1"/>
        <pt x="346" y="-12" on="0"/>
        <pt x="319" y="-12" on="1"/>
        <pt x="266" y="-12" on="0"/>
        <pt x="222" y="47" on="0"/>
      </contour>
    </TTGlyph>
    <TTGlyph name="Q" xMin="71" yMin="-167" xMax="751" yMax="666">
      <contour>
        <pt x="244" y="0" on="1"/>
        <pt x="229" y="4" on="0"/>
        <pt x="176" y="4" on="0"/>
        <pt x="156" y="-12" on="1"/>
        <pt x="147" y="-4" on="1"/>
        <pt x="170" y="14" on="0"/>
        <pt x="203" y="14" on="1"/>
        <pt x="207" y="14" on="0"/>
        <pt x="210" y="14" on="1"/>
        <pt x="71" y="86" on="0"/>
        <pt x="71" y="327" on="1"/>
        <pt x="71" y="505" on="0"/>
        <pt x="185" y="644" on="1"/>
        <pt x="195" y="637" on="1"/>
        <pt x="85" y="504" on="0"/>
        <pt x="85" y="327" on="1"/>
        <pt x="85" y="82" on="0"/>
        <pt x="230" y="18" on="1"/>
        <pt x="230" y="410" on="1"/>
        <pt x="185" y="458" on="0"/>
        <pt x="185" y="590" on="0"/>
        <pt x="264" y="666" on="0"/>
        <pt x="385" y="666" on="0"/>
        <pt x="473" y="613" on="0"/>
        <pt x="498" y="566" on="1"/>
        <pt x="544" y="475" on="0"/>
        <pt x="544" y="341" on="1"/>
        <pt x="544" y="136" on="0"/>
        <pt x="432" y="-5" on="1"/>
        <pt x="383" y="-15" on="0"/>
        <pt x="341" y="-15" on="1"/>
        <pt x="324" y="-15" on="1"/>
        <pt x="314" y="-15" on="0"/>
        <pt x="296" y="-10" on="1"/>
        <pt x="295" y="-12" on="1"/>
        <pt x="317" y="-18" on="0"/>
        <pt x="341" y="-31" on="0"/>
        <pt x="439" y="-89" on="0"/>
        <pt x="499" y="-123" on="0"/>
        <pt x="582" y="-153" on="0"/>
        <pt x="615" y="-153" on="1"/>
        <pt x="698" y="-153" on="0"/>
        <pt x="743" y="-100" on="1"/>
        <pt x="751" y="-107" on="1"/>
        <pt x="709" y="-167" on="0"/>
        <pt x="615" y="-167" on="1"/>
        <pt x="564" y="-167" on="0"/>
        <pt x="440" y="-108" on="0"/>
        <pt x="304" y="-23" on="0"/>
        <pt x="270" y="-9" on="1"/>
        <pt x="270" y="378" on="1"/>
        <pt x="260" y="383" on="0"/>
        <pt x="244" y="397" on="1"/>
      </contour>
      <contour>
        <pt x="445" y="420" on="0"/>
        <pt x="385" y="362" on="0"/>
        <pt x="307" y="362" on="0"/>
        <pt x="284" y="372" on="1"/>
        <pt x="284" y="2" on="1"/>
        <pt x="312" y="-3" on="0"/>
        <pt x="384" y="-3" on="0"/>
        <pt x="424" y="5" on="1"/>
        <pt x="474" y="71" on="0"/>
        <pt x="530" y="247" on="0"/>
        <pt x="530" y="404" on="0"/>
        <pt x="509" y="510" on="0"/>
        <pt x="464" y="602" on="0"/>
        <pt x="382" y="654" on="0"/>
        <pt x="269" y="654" on="0"/>
        <pt x="199" y="586" on="0"/>
        <pt x="199" y="466" on="0"/>
        <pt x="278" y="374" on="0"/>
        <pt x="338" y="374" on="1"/>
        <pt x="380" y="374" on="0"/>
        <pt x="431" y="424" on="0"/>
        <pt x="431" y="466" on="1"/>
        <pt x="445" y="466" on="1"/>
      </contour>
    </TTGlyph>
    <TTGlyph name="R" xMin="-140" yMin="-166" xMax="841" yMax="794">
      <contour>
        <pt x="196" y="107" on="1"/>
        <pt x="196" y="47" on="0"/>
        <pt x="152" y="-12" on="0"/>
        <pt x="99" y="-12" on="1"/>
        <pt x="72" y="-12" on="0"/>
        <pt x="54" y="-6" on="1"/>
        <pt x="56" y="4" on="1"/>
        <pt x="78" y="-1" on="0"/>
        <pt x="96" y="-1" on="1"/>
        <pt x="146" y="-1" on="0"/>
        <pt x="182" y="51" on="0"/>
        <pt x="182" y="107" on="1"/>
        <pt x="182" y="640" on="1"/>
        <pt x="126" y="636" on="0"/>
        <pt x="100" y="625" on="1"/>
        <pt x="41" y="600" on="0"/>
        <pt x="41" y="544" on="1"/>
        <pt x="41" y="520" on="0"/>
        <pt x="51" y="501" on="1"/>
        <pt x="43" y="495" on="1"/>
        <pt x="28" y="512" on="0"/>
        <pt x="28" y="543" on="1"/>
        <pt x="28" y="609" on="0"/>
        <pt x="94" y="633" on="1"/>
        <pt x="106" y="637" on="0"/>
        <pt x="116" y="640" on="1"/>
        <pt x="116" y="642" on="1"/>
        <pt x="93" y="638" on="1"/>
        <pt x="-3" y="640" on="0"/>
        <pt x="-132" y="713" on="0"/>
        <pt x="-140" y="792" on="1"/>
        <pt x="-128" y="794" on="1"/>
        <pt x="-112" y="650" on="0"/>
        <pt x="120" y="650" on="1"/>
        <pt x="152" y="650" on="0"/>
        <pt x="196" y="653" on="1"/>
      </contour>
      <contour>
        <pt x="222" y="107" on="1"/>
        <pt x="222" y="655" on="1"/>
        <pt x="336" y="663" on="0"/>
        <pt x="374" y="663" on="1"/>
        <pt x="464" y="663" on="0"/>
        <pt x="547" y="593" on="0"/>
        <pt x="547" y="434" on="0"/>
        <pt x="457" y="336" on="0"/>
        <pt x="384" y="333" on="1"/>
        <pt x="417" y="308" on="0"/>
        <pt x="459" y="226" on="1"/>
        <pt x="519" y="108" on="1"/>
        <pt x="558" y="30" on="0"/>
        <pt x="611" y="-54" on="0"/>
        <pt x="685" y="-127" on="0"/>
        <pt x="776" y="-155" on="0"/>
        <pt x="841" y="-155" on="1"/>
        <pt x="841" y="-166" on="1"/>
        <pt x="775" y="-166" on="0"/>
        <pt x="684" y="-140" on="0"/>
        <pt x="606" y="-69" on="0"/>
        <pt x="548" y="21" on="0"/>
        <pt x="507" y="102" on="1"/>
        <pt x="447" y="220" on="1"/>
        <pt x="415" y="283" on="0"/>
        <pt x="373" y="332" on="0"/>
        <pt x="350" y="335" on="1"/>
        <pt x="296" y="344" on="0"/>
        <pt x="296" y="389" on="1"/>
        <pt x="296" y="412" on="0"/>
        <pt x="329" y="441" on="0"/>
        <pt x="353" y="443" on="1"/>
        <pt x="355" y="433" on="1"/>
        <pt x="335" y="431" on="0"/>
        <pt x="310" y="408" on="0"/>
        <pt x="310" y="389" on="1"/>
        <pt x="310" y="344" on="0"/>
        <pt x="446" y="344" on="0"/>
        <pt x="533" y="435" on="0"/>
        <pt x="533" y="586" on="0"/>
        <pt x="457" y="651" on="0"/>
        <pt x="375" y="651" on="1"/>
        <pt x="350" y="651" on="0"/>
        <pt x="236" y="644" on="1"/>
        <pt x="236" y="107" on="1"/>
        <pt x="236" y="51" on="0"/>
        <pt x="272" y="-1" on="0"/>
        <pt x="322" y="-1" on="1"/>
        <pt x="340" y="-1" on="0"/>
        <pt x="362" y="4" on="1"/>
        <pt x="364" y="-6" on="1"/>
        <pt x="346" y="-12" on="0"/>
        <pt x="319" y="-12" on="1"/>
        <pt x="266" y="-12" on="0"/>
        <pt x="222" y="47" on="0"/>
      </contour>
    </TTGlyph>
    <TTGlyph name="Racute" xMin="-140" yMin="-166" xMax="841" yMax="852">
      <contour>
        <pt x="196" y="107" on="1"/>
        <pt x="196" y="47" on="0"/>
        <pt x="152" y="-12" on="0"/>
        <pt x="99" y="-12" on="1"/>
        <pt x="72" y="-12" on="0"/>
        <pt x="54" y="-6" on="1"/>
        <pt x="56" y="4" on="1"/>
        <pt x="78" y="-1" on="0"/>
        <pt x="96" y="-1" on="1"/>
        <pt x="146" y="-1" on="0"/>
        <pt x="182" y="51" on="0"/>
        <pt x="182" y="107" on="1"/>
        <pt x="182" y="640" on="1"/>
        <pt x="126" y="636" on="0"/>
        <pt x="100" y="625" on="1"/>
        <pt x="41" y="600" on="0"/>
        <pt x="41" y="544" on="1"/>
        <pt x="41" y="520" on="0"/>
        <pt x="51" y="501" on="1"/>
        <pt x="43" y="495" on="1"/>
        <pt x="28" y="512" on="0"/>
        <pt x="28" y="543" on="1"/>
        <pt x="28" y="609" on="0"/>
        <pt x="94" y="633" on="1"/>
        <pt x="106" y="637" on="0"/>
        <pt x="116" y="640" on="1"/>
        <pt x="116" y="642" on="1"/>
        <pt x="93" y="638" on="1"/>
        <pt x="-3" y="640" on="0"/>
        <pt x="-132" y="713" on="0"/>
        <pt x="-140" y="792" on="1"/>
        <pt x="-128" y="794" on="1"/>
        <pt x="-112" y="650" on="0"/>
        <pt x="120" y="650" on="1"/>
        <pt x="152" y="650" on="0"/>
        <pt x="196" y="653" on="1"/>
      </contour>
      <contour>
        <pt x="222" y="107" on="1"/>
        <pt x="222" y="655" on="1"/>
        <pt x="336" y="663" on="0"/>
        <pt x="374" y="663" on="1"/>
        <pt x="464" y="663" on="0"/>
        <pt x="547" y="593" on="0"/>
        <pt x="547" y="434" on="0"/>
        <pt x="457" y="336" on="0"/>
        <pt x="384" y="333" on="1"/>
        <pt x="417" y="308" on="0"/>
        <pt x="459" y="226" on="1"/>
        <pt x="519" y="108" on="1"/>
        <pt x="558" y="30" on="0"/>
        <pt x="611" y="-54" on="0"/>
        <pt x="685" y="-127" on="0"/>
        <pt x="776" y="-155" on="0"/>
        <pt x="841" y="-155" on="1"/>
        <pt x="841" y="-166" on="1"/>
        <pt x="775" y="-166" on="0"/>
        <pt x="684" y="-140" on="0"/>
        <pt x="606" y="-69" on="0"/>
        <pt x="548" y="21" on="0"/>
        <pt x="507" y="102" on="1"/>
        <pt x="447" y="220" on="1"/>
        <pt x="415" y="283" on="0"/>
        <pt x="373" y="332" on="0"/>
        <pt x="350" y="335" on="1"/>
        <pt x="296" y="344" on="0"/>
        <pt x="296" y="389" on="1"/>
        <pt x="296" y="412" on="0"/>
        <pt x="329" y="441" on="0"/>
        <pt x="353" y="443" on="1"/>
        <pt x="355" y="433" on="1"/>
        <pt x="335" y="431" on="0"/>
        <pt x="310" y="408" on="0"/>
        <pt x="310" y="389" on="1"/>
        <pt x="310" y="344" on="0"/>
        <pt x="446" y="344" on="0"/>
        <pt x="533" y="435" on="0"/>
        <pt x="533" y="586" on="0"/>
        <pt x="457" y="651" on="0"/>
        <pt x="375" y="651" on="1"/>
        <pt x="350" y="651" on="0"/>
        <pt x="236" y="644" on="1"/>
        <pt x="236" y="107" on="1"/>
        <pt x="236" y="51" on="0"/>
        <pt x="272" y="-1" on="0"/>
        <pt x="322" y="-1" on="1"/>
        <pt x="340" y="-1" on="0"/>
        <pt x="362" y="4" on="1"/>
        <pt x="364" y="-6" on="1"/>
        <pt x="346" y="-12" on="0"/>
        <pt x="319" y="-12" on="1"/>
        <pt x="266" y="-12" on="0"/>
        <pt x="222" y="47" on="0"/>
      </contour>
      <contour>
        <pt x="508" y="852" on="1"/>
        <pt x="519" y="852" on="0"/>
        <pt x="519" y="838" on="1"/>
        <pt x="334" y="718" on="1"/>
        <pt x="329" y="726" on="1"/>
        <pt x="500" y="849" on="1"/>
        <pt x="504" y="852" on="0"/>
      </contour>
    </TTGlyph>
    <TTGlyph name="Rcaron" xMin="-140" yMin="-166" xMax="841" yMax="867">
      <contour>
        <pt x="196" y="107" on="1"/>
        <pt x="196" y="47" on="0"/>
        <pt x="152" y="-12" on="0"/>
        <pt x="99" y="-12" on="1"/>
        <pt x="72" y="-12" on="0"/>
        <pt x="54" y="-6" on="1"/>
        <pt x="56" y="4" on="1"/>
        <pt x="78" y="-1" on="0"/>
        <pt x="96" y="-1" on="1"/>
        <pt x="146" y="-1" on="0"/>
        <pt x="182" y="51" on="0"/>
        <pt x="182" y="107" on="1"/>
        <pt x="182" y="640" on="1"/>
        <pt x="126" y="636" on="0"/>
        <pt x="100" y="625" on="1"/>
        <pt x="41" y="600" on="0"/>
        <pt x="41" y="544" on="1"/>
        <pt x="41" y="520" on="0"/>
        <pt x="51" y="501" on="1"/>
        <pt x="43" y="495" on="1"/>
        <pt x="28" y="512" on="0"/>
        <pt x="28" y="543" on="1"/>
        <pt x="28" y="609" on="0"/>
        <pt x="94" y="633" on="1"/>
        <pt x="106" y="637" on="0"/>
        <pt x="116" y="640" on="1"/>
        <pt x="116" y="642" on="1"/>
        <pt x="93" y="638" on="1"/>
        <pt x="-3" y="640" on="0"/>
        <pt x="-132" y="713" on="0"/>
        <pt x="-140" y="792" on="1"/>
        <pt x="-128" y="794" on="1"/>
        <pt x="-112" y="650" on="0"/>
        <pt x="120" y="650" on="1"/>
        <pt x="152" y="650" on="0"/>
        <pt x="196" y="653" on="1"/>
      </contour>
      <contour>
        <pt x="222" y="107" on="1"/>
        <pt x="222" y="655" on="1"/>
        <pt x="336" y="663" on="0"/>
        <pt x="374" y="663" on="1"/>
        <pt x="464" y="663" on="0"/>
        <pt x="547" y="593" on="0"/>
        <pt x="547" y="434" on="0"/>
        <pt x="457" y="336" on="0"/>
        <pt x="384" y="333" on="1"/>
        <pt x="417" y="308" on="0"/>
        <pt x="459" y="226" on="1"/>
        <pt x="519" y="108" on="1"/>
        <pt x="558" y="30" on="0"/>
        <pt x="611" y="-54" on="0"/>
        <pt x="685" y="-127" on="0"/>
        <pt x="776" y="-155" on="0"/>
        <pt x="841" y="-155" on="1"/>
        <pt x="841" y="-166" on="1"/>
        <pt x="775" y="-166" on="0"/>
        <pt x="684" y="-140" on="0"/>
        <pt x="606" y="-69" on="0"/>
        <pt x="548" y="21" on="0"/>
        <pt x="507" y="102" on="1"/>
        <pt x="447" y="220" on="1"/>
        <pt x="415" y="283" on="0"/>
        <pt x="373" y="332" on="0"/>
        <pt x="350" y="335" on="1"/>
        <pt x="296" y="344" on="0"/>
        <pt x="296" y="389" on="1"/>
        <pt x="296" y="412" on="0"/>
        <pt x="329" y="441" on="0"/>
        <pt x="353" y="443" on="1"/>
        <pt x="355" y="433" on="1"/>
        <pt x="335" y="431" on="0"/>
        <pt x="310" y="408" on="0"/>
        <pt x="310" y="389" on="1"/>
        <pt x="310" y="344" on="0"/>
        <pt x="446" y="344" on="0"/>
        <pt x="533" y="435" on="0"/>
        <pt x="533" y="586" on="0"/>
        <pt x="457" y="651" on="0"/>
        <pt x="375" y="651" on="1"/>
        <pt x="350" y="651" on="0"/>
        <pt x="236" y="644" on="1"/>
        <pt x="236" y="107" on="1"/>
        <pt x="236" y="51" on="0"/>
        <pt x="272" y="-1" on="0"/>
        <pt x="322" y="-1" on="1"/>
        <pt x="340" y="-1" on="0"/>
        <pt x="362" y="4" on="1"/>
        <pt x="364" y="-6" on="1"/>
        <pt x="346" y="-12" on="0"/>
        <pt x="319" y="-12" on="1"/>
        <pt x="266" y="-12" on="0"/>
        <pt x="222" y="47" on="0"/>
      </contour>
      <contour>
        <pt x="379" y="733" on="0"/>
        <pt x="369" y="733" on="0"/>
        <pt x="365" y="737" on="1"/>
        <pt x="247" y="861" on="1"/>
        <pt x="254" y="867" on="1"/>
        <pt x="374" y="755" on="1"/>
        <pt x="494" y="867" on="1"/>
        <pt x="501" y="861" on="1"/>
        <pt x="383" y="737" on="1"/>
      </contour>
    </TTGlyph>
    <TTGlyph name="Rcommaaccent" xMin="-140" yMin="-216" xMax="841" yMax="794">
      <contour>
        <pt x="196" y="107" on="1"/>
        <pt x="196" y="47" on="0"/>
        <pt x="152" y="-12" on="0"/>
        <pt x="99" y="-12" on="1"/>
        <pt x="72" y="-12" on="0"/>
        <pt x="54" y="-6" on="1"/>
        <pt x="56" y="4" on="1"/>
        <pt x="78" y="-1" on="0"/>
        <pt x="96" y="-1" on="1"/>
        <pt x="146" y="-1" on="0"/>
        <pt x="182" y="51" on="0"/>
        <pt x="182" y="107" on="1"/>
        <pt x="182" y="640" on="1"/>
        <pt x="126" y="636" on="0"/>
        <pt x="100" y="625" on="1"/>
        <pt x="41" y="600" on="0"/>
        <pt x="41" y="544" on="1"/>
        <pt x="41" y="520" on="0"/>
        <pt x="51" y="501" on="1"/>
        <pt x="43" y="495" on="1"/>
        <pt x="28" y="512" on="0"/>
        <pt x="28" y="543" on="1"/>
        <pt x="28" y="609" on="0"/>
        <pt x="94" y="633" on="1"/>
        <pt x="106" y="637" on="0"/>
        <pt x="116" y="640" on="1"/>
        <pt x="116" y="642" on="1"/>
        <pt x="93" y="638" on="1"/>
        <pt x="-3" y="640" on="0"/>
        <pt x="-132" y="713" on="0"/>
        <pt x="-140" y="792" on="1"/>
        <pt x="-128" y="794" on="1"/>
        <pt x="-112" y="650" on="0"/>
        <pt x="120" y="650" on="1"/>
        <pt x="152" y="650" on="0"/>
        <pt x="196" y="653" on="1"/>
      </contour>
      <contour>
        <pt x="222" y="107" on="1"/>
        <pt x="222" y="655" on="1"/>
        <pt x="336" y="663" on="0"/>
        <pt x="374" y="663" on="1"/>
        <pt x="464" y="663" on="0"/>
        <pt x="547" y="593" on="0"/>
        <pt x="547" y="434" on="0"/>
        <pt x="457" y="336" on="0"/>
        <pt x="384" y="333" on="1"/>
        <pt x="417" y="308" on="0"/>
        <pt x="459" y="226" on="1"/>
        <pt x="519" y="108" on="1"/>
        <pt x="558" y="30" on="0"/>
        <pt x="611" y="-54" on="0"/>
        <pt x="685" y="-127" on="0"/>
        <pt x="776" y="-155" on="0"/>
        <pt x="841" y="-155" on="1"/>
        <pt x="841" y="-166" on="1"/>
        <pt x="775" y="-166" on="0"/>
        <pt x="684" y="-140" on="0"/>
        <pt x="606" y="-69" on="0"/>
        <pt x="548" y="21" on="0"/>
        <pt x="507" y="102" on="1"/>
        <pt x="447" y="220" on="1"/>
        <pt x="415" y="283" on="0"/>
        <pt x="373" y="332" on="0"/>
        <pt x="350" y="335" on="1"/>
        <pt x="296" y="344" on="0"/>
        <pt x="296" y="389" on="1"/>
        <pt x="296" y="412" on="0"/>
        <pt x="329" y="441" on="0"/>
        <pt x="353" y="443" on="1"/>
        <pt x="355" y="433" on="1"/>
        <pt x="335" y="431" on="0"/>
        <pt x="310" y="408" on="0"/>
        <pt x="310" y="389" on="1"/>
        <pt x="310" y="344" on="0"/>
        <pt x="446" y="344" on="0"/>
        <pt x="533" y="435" on="0"/>
        <pt x="533" y="586" on="0"/>
        <pt x="457" y="651" on="0"/>
        <pt x="375" y="651" on="1"/>
        <pt x="350" y="651" on="0"/>
        <pt x="236" y="644" on="1"/>
        <pt x="236" y="107" on="1"/>
        <pt x="236" y="51" on="0"/>
        <pt x="272" y="-1" on="0"/>
        <pt x="322" y="-1" on="1"/>
        <pt x="340" y="-1" on="0"/>
        <pt x="362" y="4" on="1"/>
        <pt x="364" y="-6" on="1"/>
        <pt x="346" y="-12" on="0"/>
        <pt x="319" y="-12" on="1"/>
        <pt x="266" y="-12" on="0"/>
        <pt x="222" y="47" on="0"/>
      </contour>
      <contour>
        <pt x="425" y="-108" on="1"/>
        <pt x="405" y="-108" on="0"/>
        <pt x="405" y="-63" on="0"/>
        <pt x="449" y="-63" on="0"/>
        <pt x="449" y="-89" on="1"/>
        <pt x="449" y="-159" on="0"/>
        <pt x="387" y="-216" on="1"/>
        <pt x="379" y="-208" on="1"/>
        <pt x="427" y="-162" on="0"/>
        <pt x="435" y="-106" on="1"/>
        <pt x="431" y="-108" on="0"/>
      </contour>
    </TTGlyph>
    <TTGlyph name="S" xMin="58" yMin="-14" xMax="424" yMax="666">
      <contour>
        <pt x="410" y="259" on="1"/>
        <pt x="410" y="287" on="0"/>
        <pt x="354" y="327" on="0"/>
        <pt x="198" y="385" on="0"/>
        <pt x="100" y="447" on="0"/>
        <pt x="100" y="534" on="0"/>
        <pt x="198" y="643" on="0"/>
        <pt x="244" y="666" on="1"/>
        <pt x="338" y="666" on="0"/>
        <pt x="422" y="619" on="1"/>
        <pt x="416" y="609" on="1"/>
        <pt x="332" y="654" on="0"/>
        <pt x="248" y="654" on="1"/>
        <pt x="234" y="646" on="1"/>
        <pt x="190" y="618" on="0"/>
        <pt x="114" y="527" on="0"/>
        <pt x="114" y="452" on="0"/>
        <pt x="213" y="392" on="0"/>
        <pt x="362" y="336" on="0"/>
        <pt x="424" y="292" on="0"/>
        <pt x="424" y="259" on="1"/>
        <pt x="424" y="240" on="0"/>
        <pt x="413" y="221" on="1"/>
        <pt x="416" y="210" on="0"/>
        <pt x="416" y="201" on="1"/>
        <pt x="416" y="148" on="0"/>
        <pt x="321" y="9" on="0"/>
        <pt x="272" y="-14" on="1"/>
        <pt x="58" y="-14" on="0"/>
        <pt x="58" y="106" on="1"/>
        <pt x="58" y="145" on="0"/>
        <pt x="101" y="196" on="0"/>
        <pt x="170" y="196" on="0"/>
        <pt x="210" y="155" on="0"/>
        <pt x="210" y="122" on="1"/>
        <pt x="210" y="110" on="0"/>
        <pt x="205" y="98" on="1"/>
        <pt x="194" y="102" on="1"/>
        <pt x="197" y="112" on="0"/>
        <pt x="197" y="122" on="1"/>
        <pt x="197" y="150" on="0"/>
        <pt x="164" y="184" on="0"/>
        <pt x="106" y="184" on="0"/>
        <pt x="72" y="140" on="0"/>
        <pt x="72" y="74" on="0"/>
        <pt x="105" y="29" on="0"/>
        <pt x="136" y="18" on="1"/>
        <pt x="192" y="-2" on="0"/>
        <pt x="268" y="-2" on="1"/>
        <pt x="317" y="22" on="0"/>
        <pt x="402" y="151" on="0"/>
        <pt x="402" y="241" on="0"/>
        <pt x="304" y="299" on="0"/>
        <pt x="154" y="355" on="0"/>
        <pt x="96" y="399" on="0"/>
        <pt x="86" y="421" on="1"/>
        <pt x="96" y="428" on="1"/>
        <pt x="111" y="401" on="0"/>
        <pt x="159" y="367" on="0"/>
        <pt x="285" y="319" on="0"/>
        <pt x="388" y="267" on="0"/>
        <pt x="406" y="236" on="1"/>
        <pt x="410" y="247" on="0"/>
      </contour>
    </TTGlyph>
    <TTGlyph name="T" xMin="-8" yMin="-11" xMax="668" yMax="827">
      <contour>
        <pt x="283" y="108" on="1"/>
        <pt x="283" y="650" on="1"/>
        <pt x="293" y="651" on="0"/>
        <pt x="345" y="653" on="0"/>
        <pt x="442" y="657" on="0"/>
        <pt x="530" y="676" on="0"/>
        <pt x="610" y="714" on="0"/>
        <pt x="656" y="781" on="0"/>
        <pt x="656" y="827" on="1"/>
        <pt x="668" y="826" on="1"/>
        <pt x="668" y="746" on="0"/>
        <pt x="548" y="661" on="0"/>
        <pt x="452" y="649" on="1"/>
        <pt x="445" y="649" on="0"/>
        <pt x="429" y="650" on="1"/>
        <pt x="429" y="648" on="1"/>
        <pt x="443" y="646" on="0"/>
        <pt x="452" y="644" on="1"/>
        <pt x="485" y="635" on="0"/>
        <pt x="527" y="582" on="0"/>
        <pt x="527" y="523" on="0"/>
        <pt x="516" y="511" on="1"/>
        <pt x="508" y="517" on="1"/>
        <pt x="514" y="530" on="0"/>
        <pt x="514" y="550" on="1"/>
        <pt x="514" y="592" on="0"/>
        <pt x="447" y="643" on="0"/>
        <pt x="395" y="643" on="1"/>
        <pt x="389" y="643" on="0"/>
        <pt x="383" y="643" on="1"/>
        <pt x="297" y="639" on="1"/>
        <pt x="297" y="108" on="1"/>
        <pt x="297" y="52" on="0"/>
        <pt x="333" y="0" on="0"/>
        <pt x="383" y="0" on="1"/>
        <pt x="401" y="0" on="0"/>
        <pt x="423" y="5" on="1"/>
        <pt x="425" y="-5" on="1"/>
        <pt x="407" y="-11" on="0"/>
        <pt x="380" y="-11" on="1"/>
        <pt x="327" y="-11" on="0"/>
        <pt x="283" y="48" on="0"/>
      </contour>
      <contour>
        <pt x="243" y="639" on="1"/>
        <pt x="122" y="645" on="1"/>
        <pt x="6" y="645" on="0"/>
        <pt x="6" y="555" on="1"/>
        <pt x="6" y="522" on="0"/>
        <pt x="40" y="478" on="0"/>
        <pt x="98" y="478" on="0"/>
        <pt x="131" y="512" on="0"/>
        <pt x="131" y="540" on="1"/>
        <pt x="131" y="550" on="0"/>
        <pt x="128" y="560" on="1"/>
        <pt x="139" y="564" on="1"/>
        <pt x="144" y="552" on="0"/>
        <pt x="144" y="540" on="1"/>
        <pt x="144" y="507" on="0"/>
        <pt x="104" y="466" on="0"/>
        <pt x="35" y="466" on="0"/>
        <pt x="-8" y="517" on="0"/>
        <pt x="-8" y="556" on="1"/>
        <pt x="-8" y="657" on="0"/>
        <pt x="126" y="657" on="1"/>
        <pt x="180" y="657" on="0"/>
        <pt x="257" y="650" on="1"/>
        <pt x="257" y="108" on="1"/>
        <pt x="257" y="48" on="0"/>
        <pt x="213" y="-11" on="0"/>
        <pt x="160" y="-11" on="1"/>
        <pt x="133" y="-11" on="0"/>
        <pt x="115" y="-5" on="1"/>
        <pt x="117" y="5" on="1"/>
        <pt x="139" y="0" on="0"/>
        <pt x="157" y="0" on="1"/>
        <pt x="207" y="0" on="0"/>
        <pt x="243" y="52" on="0"/>
        <pt x="243" y="108" on="1"/>
      </contour>
    </TTGlyph>
    <TTGlyph name="Thorn" xMin="-140" yMin="-12" xMax="544" yMax="824">
      <contour>
        <pt x="209" y="107" on="1"/>
        <pt x="209" y="605" on="1"/>
        <pt x="209" y="665" on="0"/>
        <pt x="253" y="724" on="0"/>
        <pt x="306" y="724" on="1"/>
        <pt x="333" y="724" on="0"/>
        <pt x="351" y="718" on="1"/>
        <pt x="349" y="708" on="1"/>
        <pt x="327" y="713" on="0"/>
        <pt x="309" y="713" on="1"/>
        <pt x="259" y="713" on="0"/>
        <pt x="223" y="661" on="0"/>
        <pt x="223" y="605" on="1"/>
        <pt x="223" y="521" on="1"/>
        <pt x="347" y="528" on="0"/>
        <pt x="361" y="528" on="1"/>
        <pt x="455" y="528" on="0"/>
        <pt x="544" y="459" on="0"/>
        <pt x="544" y="292" on="0"/>
        <pt x="442" y="188" on="0"/>
        <pt x="283" y="188" on="0"/>
        <pt x="283" y="244" on="1"/>
        <pt x="283" y="267" on="0"/>
        <pt x="316" y="296" on="0"/>
        <pt x="340" y="298" on="1"/>
        <pt x="342" y="288" on="1"/>
        <pt x="322" y="286" on="0"/>
        <pt x="297" y="263" on="0"/>
        <pt x="297" y="244" on="1"/>
        <pt x="297" y="199" on="0"/>
        <pt x="437" y="199" on="0"/>
        <pt x="530" y="297" on="0"/>
        <pt x="530" y="453" on="0"/>
        <pt x="448" y="516" on="0"/>
        <pt x="362" y="516" on="1"/>
        <pt x="337" y="516" on="0"/>
        <pt x="223" y="509" on="1"/>
        <pt x="223" y="107" on="1"/>
        <pt x="223" y="51" on="0"/>
        <pt x="259" y="-1" on="0"/>
        <pt x="309" y="-1" on="1"/>
        <pt x="327" y="-1" on="0"/>
        <pt x="349" y="4" on="1"/>
        <pt x="351" y="-6" on="1"/>
        <pt x="333" y="-12" on="0"/>
        <pt x="306" y="-12" on="1"/>
        <pt x="253" y="-12" on="0"/>
        <pt x="209" y="47" on="0"/>
      </contour>
      <contour>
        <pt x="169" y="107" on="1"/>
        <pt x="169" y="638" on="1"/>
        <pt x="138" y="640" on="1"/>
        <pt x="134" y="640" on="0"/>
        <pt x="130" y="640" on="1"/>
        <pt x="82" y="640" on="0"/>
        <pt x="14" y="594" on="0"/>
        <pt x="14" y="547" on="1"/>
        <pt x="14" y="528" on="0"/>
        <pt x="20" y="514" on="1"/>
        <pt x="12" y="508" on="1"/>
        <pt x="1" y="520" on="0"/>
        <pt x="1" y="579" on="0"/>
        <pt x="43" y="633" on="0"/>
        <pt x="76" y="642" on="1"/>
        <pt x="77" y="642" on="0"/>
        <pt x="99" y="645" on="1"/>
        <pt x="99" y="647" on="1"/>
        <pt x="76" y="646" on="1"/>
        <pt x="-20" y="658" on="0"/>
        <pt x="-140" y="743" on="0"/>
        <pt x="-140" y="823" on="1"/>
        <pt x="-128" y="824" on="1"/>
        <pt x="-128" y="778" on="0"/>
        <pt x="-82" y="711" on="0"/>
        <pt x="-42" y="692" on="1"/>
        <pt x="32" y="658" on="0"/>
        <pt x="138" y="652" on="1"/>
        <pt x="183" y="649" on="1"/>
        <pt x="183" y="107" on="1"/>
        <pt x="183" y="47" on="0"/>
        <pt x="139" y="-12" on="0"/>
        <pt x="86" y="-12" on="1"/>
        <pt x="59" y="-12" on="0"/>
        <pt x="41" y="-6" on="1"/>
        <pt x="43" y="4" on="1"/>
        <pt x="65" y="-1" on="0"/>
        <pt x="83" y="-1" on="1"/>
        <pt x="133" y="-1" on="0"/>
        <pt x="169" y="51" on="0"/>
      </contour>
    </TTGlyph>
    <TTGlyph name="U" xMin="27" yMin="-15" xMax="684" yMax="663">
      <contour>
        <pt x="502" y="544" on="1"/>
        <pt x="502" y="600" on="0"/>
        <pt x="466" y="652" on="0"/>
        <pt x="416" y="652" on="1"/>
        <pt x="398" y="652" on="0"/>
        <pt x="376" y="647" on="1"/>
        <pt x="374" y="657" on="1"/>
        <pt x="392" y="663" on="0"/>
        <pt x="419" y="663" on="1"/>
        <pt x="472" y="663" on="0"/>
        <pt x="516" y="604" on="0"/>
        <pt x="516" y="544" on="1"/>
        <pt x="516" y="58" on="1"/>
        <pt x="445" y="2" on="0"/>
        <pt x="367" y="-15" on="1"/>
        <pt x="234" y="-14" on="0"/>
        <pt x="141" y="106" on="0"/>
        <pt x="141" y="250" on="1"/>
        <pt x="141" y="331" on="0"/>
        <pt x="153" y="552" on="0"/>
        <pt x="153" y="557" on="1"/>
        <pt x="153" y="603" on="0"/>
        <pt x="118" y="652" on="0"/>
        <pt x="69" y="652" on="1"/>
        <pt x="51" y="652" on="0"/>
        <pt x="29" y="647" on="1"/>
        <pt x="27" y="657" on="1"/>
        <pt x="45" y="663" on="0"/>
        <pt x="72" y="663" on="1"/>
        <pt x="149" y="663" on="0"/>
        <pt x="162" y="597" on="1"/>
        <pt x="174" y="663" on="0"/>
        <pt x="252" y="663" on="1"/>
        <pt x="279" y="663" on="0"/>
        <pt x="297" y="657" on="1"/>
        <pt x="295" y="647" on="1"/>
        <pt x="273" y="652" on="0"/>
        <pt x="255" y="652" on="1"/>
        <pt x="206" y="652" on="0"/>
        <pt x="169" y="603" on="0"/>
        <pt x="167" y="544" on="1"/>
        <pt x="155" y="260" on="0"/>
        <pt x="155" y="250" on="1"/>
        <pt x="155" y="114" on="0"/>
        <pt x="240" y="0" on="0"/>
        <pt x="365" y="-3" on="1"/>
        <pt x="445" y="17" on="0"/>
        <pt x="502" y="65" on="1"/>
      </contour>
      <contour>
        <pt x="556" y="544" on="1"/>
        <pt x="556" y="107" on="1"/>
        <pt x="556" y="51" on="0"/>
        <pt x="592" y="-1" on="0"/>
        <pt x="642" y="-1" on="1"/>
        <pt x="660" y="-1" on="0"/>
        <pt x="682" y="4" on="1"/>
        <pt x="684" y="-6" on="1"/>
        <pt x="666" y="-12" on="0"/>
        <pt x="639" y="-12" on="1"/>
        <pt x="586" y="-12" on="0"/>
        <pt x="542" y="47" on="0"/>
        <pt x="542" y="107" on="1"/>
        <pt x="542" y="544" on="1"/>
        <pt x="542" y="604" on="0"/>
        <pt x="586" y="663" on="0"/>
        <pt x="639" y="663" on="1"/>
        <pt x="666" y="663" on="0"/>
        <pt x="684" y="657" on="1"/>
        <pt x="682" y="647" on="1"/>
        <pt x="660" y="652" on="0"/>
        <pt x="642" y="652" on="1"/>
        <pt x="592" y="652" on="0"/>
        <pt x="556" y="600" on="0"/>
      </contour>
    </TTGlyph>
    <TTGlyph name="Uacute" xMin="27" yMin="-15" xMax="684" yMax="853">
      <contour>
        <pt x="502" y="544" on="1"/>
        <pt x="502" y="600" on="0"/>
        <pt x="466" y="652" on="0"/>
        <pt x="416" y="652" on="1"/>
        <pt x="398" y="652" on="0"/>
        <pt x="376" y="647" on="1"/>
        <pt x="374" y="657" on="1"/>
        <pt x="392" y="663" on="0"/>
        <pt x="419" y="663" on="1"/>
        <pt x="472" y="663" on="0"/>
        <pt x="516" y="604" on="0"/>
        <pt x="516" y="544" on="1"/>
        <pt x="516" y="58" on="1"/>
        <pt x="445" y="2" on="0"/>
        <pt x="367" y="-15" on="1"/>
        <pt x="234" y="-14" on="0"/>
        <pt x="141" y="106" on="0"/>
        <pt x="141" y="250" on="1"/>
        <pt x="141" y="331" on="0"/>
        <pt x="153" y="552" on="0"/>
        <pt x="153" y="557" on="1"/>
        <pt x="153" y="603" on="0"/>
        <pt x="118" y="652" on="0"/>
        <pt x="69" y="652" on="1"/>
        <pt x="51" y="652" on="0"/>
        <pt x="29" y="647" on="1"/>
        <pt x="27" y="657" on="1"/>
        <pt x="45" y="663" on="0"/>
        <pt x="72" y="663" on="1"/>
        <pt x="149" y="663" on="0"/>
        <pt x="162" y="597" on="1"/>
        <pt x="174" y="663" on="0"/>
        <pt x="252" y="663" on="1"/>
        <pt x="279" y="663" on="0"/>
        <pt x="297" y="657" on="1"/>
        <pt x="295" y="647" on="1"/>
        <pt x="273" y="652" on="0"/>
        <pt x="255" y="652" on="1"/>
        <pt x="206" y="652" on="0"/>
        <pt x="169" y="603" on="0"/>
        <pt x="167" y="544" on="1"/>
        <pt x="155" y="260" on="0"/>
        <pt x="155" y="250" on="1"/>
        <pt x="155" y="114" on="0"/>
        <pt x="240" y="0" on="0"/>
        <pt x="365" y="-3" on="1"/>
        <pt x="445" y="17" on="0"/>
        <pt x="502" y="65" on="1"/>
      </contour>
      <contour>
        <pt x="556" y="544" on="1"/>
        <pt x="556" y="107" on="1"/>
        <pt x="556" y="51" on="0"/>
        <pt x="592" y="-1" on="0"/>
        <pt x="642" y="-1" on="1"/>
        <pt x="660" y="-1" on="0"/>
        <pt x="682" y="4" on="1"/>
        <pt x="684" y="-6" on="1"/>
        <pt x="666" y="-12" on="0"/>
        <pt x="639" y="-12" on="1"/>
        <pt x="586" y="-12" on="0"/>
        <pt x="542" y="47" on="0"/>
        <pt x="542" y="107" on="1"/>
        <pt x="542" y="544" on="1"/>
        <pt x="542" y="604" on="0"/>
        <pt x="586" y="663" on="0"/>
        <pt x="639" y="663" on="1"/>
        <pt x="666" y="663" on="0"/>
        <pt x="684" y="657" on="1"/>
        <pt x="682" y="647" on="1"/>
        <pt x="660" y="652" on="0"/>
        <pt x="642" y="652" on="1"/>
        <pt x="592" y="652" on="0"/>
        <pt x="556" y="600" on="0"/>
      </contour>
      <contour>
        <pt x="467" y="853" on="1"/>
        <pt x="478" y="853" on="0"/>
        <pt x="478" y="839" on="1"/>
        <pt x="293" y="719" on="1"/>
        <pt x="288" y="727" on="1"/>
        <pt x="459" y="850" on="1"/>
        <pt x="464" y="853" on="0"/>
      </contour>
    </TTGlyph>
    <TTGlyph name="Ucircumflex" xMin="27" yMin="-15" xMax="684" yMax="868">
      <contour>
        <pt x="502" y="544" on="1"/>
        <pt x="502" y="600" on="0"/>
        <pt x="466" y="652" on="0"/>
        <pt x="416" y="652" on="1"/>
        <pt x="398" y="652" on="0"/>
        <pt x="376" y="647" on="1"/>
        <pt x="374" y="657" on="1"/>
        <pt x="392" y="663" on="0"/>
        <pt x="419" y="663" on="1"/>
        <pt x="472" y="663" on="0"/>
        <pt x="516" y="604" on="0"/>
        <pt x="516" y="544" on="1"/>
        <pt x="516" y="58" on="1"/>
        <pt x="445" y="2" on="0"/>
        <pt x="367" y="-15" on="1"/>
        <pt x="234" y="-14" on="0"/>
        <pt x="141" y="106" on="0"/>
        <pt x="141" y="250" on="1"/>
        <pt x="141" y="331" on="0"/>
        <pt x="153" y="552" on="0"/>
        <pt x="153" y="557" on="1"/>
        <pt x="153" y="603" on="0"/>
        <pt x="118" y="652" on="0"/>
        <pt x="69" y="652" on="1"/>
        <pt x="51" y="652" on="0"/>
        <pt x="29" y="647" on="1"/>
        <pt x="27" y="657" on="1"/>
        <pt x="45" y="663" on="0"/>
        <pt x="72" y="663" on="1"/>
        <pt x="149" y="663" on="0"/>
        <pt x="162" y="597" on="1"/>
        <pt x="174" y="663" on="0"/>
        <pt x="252" y="663" on="1"/>
        <pt x="279" y="663" on="0"/>
        <pt x="297" y="657" on="1"/>
        <pt x="295" y="647" on="1"/>
        <pt x="273" y="652" on="0"/>
        <pt x="255" y="652" on="1"/>
        <pt x="206" y="652" on="0"/>
        <pt x="169" y="603" on="0"/>
        <pt x="167" y="544" on="1"/>
        <pt x="155" y="260" on="0"/>
        <pt x="155" y="250" on="1"/>
        <pt x="155" y="114" on="0"/>
        <pt x="240" y="0" on="0"/>
        <pt x="365" y="-3" on="1"/>
        <pt x="445" y="17" on="0"/>
        <pt x="502" y="65" on="1"/>
      </contour>
      <contour>
        <pt x="556" y="544" on="1"/>
        <pt x="556" y="107" on="1"/>
        <pt x="556" y="51" on="0"/>
        <pt x="592" y="-1" on="0"/>
        <pt x="642" y="-1" on="1"/>
        <pt x="660" y="-1" on="0"/>
        <pt x="682" y="4" on="1"/>
        <pt x="684" y="-6" on="1"/>
        <pt x="666" y="-12" on="0"/>
        <pt x="639" y="-12" on="1"/>
        <pt x="586" y="-12" on="0"/>
        <pt x="542" y="47" on="0"/>
        <pt x="542" y="107" on="1"/>
        <pt x="542" y="544" on="1"/>
        <pt x="542" y="604" on="0"/>
        <pt x="586" y="663" on="0"/>
        <pt x="639" y="663" on="1"/>
        <pt x="666" y="663" on="0"/>
        <pt x="684" y="657" on="1"/>
        <pt x="682" y="647" on="1"/>
        <pt x="660" y="652" on="0"/>
        <pt x="642" y="652" on="1"/>
        <pt x="592" y="652" on="0"/>
        <pt x="556" y="600" on="0"/>
      </contour>
      <contour>
        <pt x="328" y="868" on="0"/>
        <pt x="338" y="868" on="0"/>
        <pt x="342" y="864" on="1"/>
        <pt x="460" y="740" on="1"/>
        <pt x="453" y="734" on="1"/>
        <pt x="333" y="846" on="1"/>
        <pt x="213" y="734" on="1"/>
        <pt x="206" y="740" on="1"/>
        <pt x="324" y="864" on="1"/>
      </contour>
    </TTGlyph>
    <TTGlyph name="Udieresis" xMin="27" yMin="-15" xMax="684" yMax="822">
      <contour>
        <pt x="502" y="544" on="1"/>
        <pt x="502" y="600" on="0"/>
        <pt x="466" y="652" on="0"/>
        <pt x="416" y="652" on="1"/>
        <pt x="398" y="652" on="0"/>
        <pt x="376" y="647" on="1"/>
        <pt x="374" y="657" on="1"/>
        <pt x="392" y="663" on="0"/>
        <pt x="419" y="663" on="1"/>
        <pt x="472" y="663" on="0"/>
        <pt x="516" y="604" on="0"/>
        <pt x="516" y="544" on="1"/>
        <pt x="516" y="58" on="1"/>
        <pt x="445" y="2" on="0"/>
        <pt x="367" y="-15" on="1"/>
        <pt x="234" y="-14" on="0"/>
        <pt x="141" y="106" on="0"/>
        <pt x="141" y="250" on="1"/>
        <pt x="141" y="331" on="0"/>
        <pt x="153" y="552" on="0"/>
        <pt x="153" y="557" on="1"/>
        <pt x="153" y="603" on="0"/>
        <pt x="118" y="652" on="0"/>
        <pt x="69" y="652" on="1"/>
        <pt x="51" y="652" on="0"/>
        <pt x="29" y="647" on="1"/>
        <pt x="27" y="657" on="1"/>
        <pt x="45" y="663" on="0"/>
        <pt x="72" y="663" on="1"/>
        <pt x="149" y="663" on="0"/>
        <pt x="162" y="597" on="1"/>
        <pt x="174" y="663" on="0"/>
        <pt x="252" y="663" on="1"/>
        <pt x="279" y="663" on="0"/>
        <pt x="297" y="657" on="1"/>
        <pt x="295" y="647" on="1"/>
        <pt x="273" y="652" on="0"/>
        <pt x="255" y="652" on="1"/>
        <pt x="206" y="652" on="0"/>
        <pt x="169" y="603" on="0"/>
        <pt x="167" y="544" on="1"/>
        <pt x="155" y="260" on="0"/>
        <pt x="155" y="250" on="1"/>
        <pt x="155" y="114" on="0"/>
        <pt x="240" y="0" on="0"/>
        <pt x="365" y="-3" on="1"/>
        <pt x="445" y="17" on="0"/>
        <pt x="502" y="65" on="1"/>
      </contour>
      <contour>
        <pt x="556" y="544" on="1"/>
        <pt x="556" y="107" on="1"/>
        <pt x="556" y="51" on="0"/>
        <pt x="592" y="-1" on="0"/>
        <pt x="642" y="-1" on="1"/>
        <pt x="660" y="-1" on="0"/>
        <pt x="682" y="4" on="1"/>
        <pt x="684" y="-6" on="1"/>
        <pt x="666" y="-12" on="0"/>
        <pt x="639" y="-12" on="1"/>
        <pt x="586" y="-12" on="0"/>
        <pt x="542" y="47" on="0"/>
        <pt x="542" y="107" on="1"/>
        <pt x="542" y="544" on="1"/>
        <pt x="542" y="604" on="0"/>
        <pt x="586" y="663" on="0"/>
        <pt x="639" y="663" on="1"/>
        <pt x="666" y="663" on="0"/>
        <pt x="684" y="657" on="1"/>
        <pt x="682" y="647" on="1"/>
        <pt x="660" y="652" on="0"/>
        <pt x="642" y="652" on="1"/>
        <pt x="592" y="652" on="0"/>
        <pt x="556" y="600" on="0"/>
      </contour>
      <contour>
        <pt x="278" y="800" on="1"/>
        <pt x="278" y="791" on="0"/>
        <pt x="266" y="777" on="0"/>
        <pt x="246" y="777" on="0"/>
        <pt x="234" y="791" on="0"/>
        <pt x="234" y="800" on="1"/>
        <pt x="234" y="822" on="0"/>
        <pt x="278" y="822" on="0"/>
      </contour>
      <contour>
        <pt x="434" y="800" on="1"/>
        <pt x="434" y="791" on="0"/>
        <pt x="422" y="777" on="0"/>
        <pt x="402" y="777" on="0"/>
        <pt x="390" y="791" on="0"/>
        <pt x="390" y="800" on="1"/>
        <pt x="390" y="822" on="0"/>
        <pt x="434" y="822" on="0"/>
      </contour>
    </TTGlyph>
    <TTGlyph name="Ugrave" xMin="27" yMin="-15" xMax="684" yMax="868">
      <contour>
        <pt x="502" y="544" on="1"/>
        <pt x="502" y="600" on="0"/>
        <pt x="466" y="652" on="0"/>
        <pt x="416" y="652" on="1"/>
        <pt x="398" y="652" on="0"/>
        <pt x="376" y="647" on="1"/>
        <pt x="374" y="657" on="1"/>
        <pt x="392" y="663" on="0"/>
        <pt x="419" y="663" on="1"/>
        <pt x="472" y="663" on="0"/>
        <pt x="516" y="604" on="0"/>
        <pt x="516" y="544" on="1"/>
        <pt x="516" y="58" on="1"/>
        <pt x="445" y="2" on="0"/>
        <pt x="367" y="-15" on="1"/>
        <pt x="234" y="-14" on="0"/>
        <pt x="141" y="106" on="0"/>
        <pt x="141" y="250" on="1"/>
        <pt x="141" y="331" on="0"/>
        <pt x="153" y="552" on="0"/>
        <pt x="153" y="557" on="1"/>
        <pt x="153" y="603" on="0"/>
        <pt x="118" y="652" on="0"/>
        <pt x="69" y="652" on="1"/>
        <pt x="51" y="652" on="0"/>
        <pt x="29" y="647" on="1"/>
        <pt x="27" y="657" on="1"/>
        <pt x="45" y="663" on="0"/>
        <pt x="72" y="663" on="1"/>
        <pt x="149" y="663" on="0"/>
        <pt x="162" y="597" on="1"/>
        <pt x="174" y="663" on="0"/>
        <pt x="252" y="663" on="1"/>
        <pt x="279" y="663" on="0"/>
        <pt x="297" y="657" on="1"/>
        <pt x="295" y="647" on="1"/>
        <pt x="273" y="652" on="0"/>
        <pt x="255" y="652" on="1"/>
        <pt x="206" y="652" on="0"/>
        <pt x="169" y="603" on="0"/>
        <pt x="167" y="544" on="1"/>
        <pt x="155" y="260" on="0"/>
        <pt x="155" y="250" on="1"/>
        <pt x="155" y="114" on="0"/>
        <pt x="240" y="0" on="0"/>
        <pt x="365" y="-3" on="1"/>
        <pt x="445" y="17" on="0"/>
        <pt x="502" y="65" on="1"/>
      </contour>
      <contour>
        <pt x="556" y="544" on="1"/>
        <pt x="556" y="107" on="1"/>
        <pt x="556" y="51" on="0"/>
        <pt x="592" y="-1" on="0"/>
        <pt x="642" y="-1" on="1"/>
        <pt x="660" y="-1" on="0"/>
        <pt x="682" y="4" on="1"/>
        <pt x="684" y="-6" on="1"/>
        <pt x="666" y="-12" on="0"/>
        <pt x="639" y="-12" on="1"/>
        <pt x="586" y="-12" on="0"/>
        <pt x="542" y="47" on="0"/>
        <pt x="542" y="107" on="1"/>
        <pt x="542" y="544" on="1"/>
        <pt x="542" y="604" on="0"/>
        <pt x="586" y="663" on="0"/>
        <pt x="639" y="663" on="1"/>
        <pt x="666" y="663" on="0"/>
        <pt x="684" y="657" on="1"/>
        <pt x="682" y="647" on="1"/>
        <pt x="660" y="652" on="0"/>
        <pt x="642" y="652" on="1"/>
        <pt x="592" y="652" on="0"/>
        <pt x="556" y="600" on="0"/>
      </contour>
      <contour>
        <pt x="199" y="868" on="1"/>
        <pt x="202" y="868" on="0"/>
        <pt x="207" y="865" on="1"/>
        <pt x="378" y="742" on="1"/>
        <pt x="373" y="734" on="1"/>
        <pt x="188" y="854" on="1"/>
        <pt x="188" y="868" on="0"/>
      </contour>
    </TTGlyph>
</ttFont>
